font.ufo
<glyph name="uni0D82" format="1">
  <advance width="364"/>
  <unicode hex="0D82"/>
  <outline>
    <contour>
      <point x="77" y="187" type="curve" smooth="yes"/>
      <point x="77" y="136"/>
      <point x="120" y="95"/>
      <point x="173" y="95" type="curve" smooth="yes"/>
      <point x="226" y="95"/>
      <point x="269" y="136"/>
      <point x="269" y="187" type="curve" smooth="yes"/>
      <point x="269" y="237"/>
      <point x="226" y="279"/>
      <point x="173" y="279" type="curve" smooth="yes"/>
      <point x="120" y="279"/>
      <point x="77" y="237"/>
    </contour>
    <contour>
      <point x="29" y="165" type="curve" smooth="yes"/>
      <point x="29" y="243"/>
      <point x="94" y="306"/>
      <point x="173" y="306" type="curve" smooth="yes"/>
      <point x="252" y="306"/>
      <point x="317" y="243"/>
      <point x="317" y="165" type="curve" smooth="yes"/>
      <point x="317" y="87"/>
      <point x="252" y="24"/>
      <point x="173" y="24" type="curve" smooth="yes"/>
      <point x="94" y="24"/>
      <point x="29" y="87"/>
    </contour>
  </outline>
</glyph>
<glyph name="visarga" format="1">
  <advance width="248"/>
  <unicode hex="0D83"/>
  <outline>
    <contour>
      <point x="62" y="111" type="curve" smooth="yes"/>
      <point x="62" y="82"/>
      <point x="86" y="58"/>
      <point x="115" y="58" type="curve" smooth="yes"/>
      <point x="144" y="58"/>
      <point x="168" y="82"/>
      <point x="168" y="111" type="curve" smooth="yes"/>
      <point x="168" y="140"/>
      <point x="144" y="164"/>
      <point x="115" y="164" type="curve" smooth="yes"/>
      <point x="86" y="164"/>
      <point x="62" y="140"/>
    </contour>
    <contour>
      <point x="31" y="110" type="curve" smooth="yes"/>
      <point x="31" y="156"/>
      <point x="69" y="194"/>
      <point x="115" y="194" type="curve" smooth="yes"/>
      <point x="161" y="194"/>
      <point x="199" y="156"/>
      <point x="199" y="110" type="curve" smooth="yes"/>
      <point x="199" y="64"/>
      <point x="161" y="26"/>
      <point x="115" y="26" type="curve" smooth="yes"/>
      <point x="69" y="26"/>
      <point x="31" y="64"/>
    </contour>
    <contour>
      <point x="62" y="313" type="curve" smooth="yes"/>
      <point x="62" y="284"/>
      <point x="86" y="260"/>
      <point x="115" y="260" type="curve" smooth="yes"/>
      <point x="144" y="260"/>
      <point x="168" y="284"/>
      <point x="168" y="313" type="curve" smooth="yes"/>
      <point x="168" y="342"/>
      <point x="144" y="366"/>
      <point x="115" y="366" type="curve" smooth="yes"/>
      <point x="86" y="366"/>
      <point x="62" y="342"/>
    </contour>
    <contour>
      <point x="31" y="312" type="curve" smooth="yes"/>
      <point x="31" y="358"/>
      <point x="69" y="396"/>
      <point x="115" y="396" type="curve" smooth="yes"/>
      <point x="161" y="396"/>
      <point x="199" y="358"/>
      <point x="199" y="312" type="curve" smooth="yes"/>
      <point x="199" y="266"/>
      <point x="161" y="228"/>
      <point x="115" y="228" type="curve" smooth="yes"/>
      <point x="69" y="228"/>
      <point x="31" y="266"/>
    </contour>
  </outline>
</glyph>
<glyph name="uni0D85" format="1">
  <advance width="573"/>
  <unicode hex="0D85"/>
  <outline>
    <contour>
      <point x="384" y="204" type="curve"/>
      <point x="384" y="235" type="line"/>
      <point x="392" y="231"/>
      <point x="399" y="230"/>
      <point x="408" y="230" type="curve" smooth="yes"/>
      <point x="436" y="230"/>
      <point x="456" y="254"/>
      <point x="456" y="290" type="curve" smooth="yes"/>
      <point x="456" y="313"/>
      <point x="451" y="328"/>
      <point x="439" y="346" type="curve" smooth="yes"/>
      <point x="428" y="362"/>
      <point x="420" y="374"/>
      <point x="420" y="395" type="curve" smooth="yes"/>
      <point x="420" y="397"/>
      <point x="421" y="401"/>
      <point x="421" y="403" type="curve"/>
      <point x="438" y="418" type="line" smooth="yes"/>
      <point x="457" y="421" type="line"/>
      <point x="451" y="418"/>
      <point x="445" y="414"/>
      <point x="445" y="403" type="curve" smooth="yes"/>
      <point x="445" y="369"/>
      <point x="528" y="357"/>
      <point x="528" y="281" type="curve" smooth="yes"/>
      <point x="528" y="226"/>
      <point x="480" y="199"/>
      <point x="429" y="199" type="curve" smooth="yes"/>
      <point x="412" y="199"/>
      <point x="398" y="201"/>
    </contour>
    <contour>
      <point x="357" y="-215" type="line"/>
      <point x="357" y="-39"/>
      <point x="357" y="137"/>
      <point x="357" y="313" type="curve" smooth="yes"/>
      <point x="357" y="350"/>
      <point x="365" y="379"/>
      <point x="384" y="400" type="curve" smooth="yes"/>
      <point x="399" y="418"/>
      <point x="419" y="430"/>
      <point x="439" y="435" type="curve"/>
      <point x="463" y="424" type="line"/>
      <point x="393" y="394"/>
      <point x="388" y="351"/>
      <point x="388" y="312" type="curve" smooth="yes"/>
      <point x="388" y="-215" type="line"/>
    </contour>
    <contour>
      <point x="33" y="160" type="curve" smooth="yes"/>
      <point x="33" y="248"/>
      <point x="94" y="309"/>
      <point x="202" y="309" type="curve" smooth="yes"/>
      <point x="313" y="309" type="line"/>
      <point x="312" y="350"/>
      <point x="285" y="389"/>
      <point x="243" y="389" type="curve" smooth="yes"/>
      <point x="209" y="389"/>
      <point x="201" y="372"/>
      <point x="194" y="358" type="curve" smooth="yes"/>
      <point x="188" y="345"/>
      <point x="175" y="329"/>
      <point x="148" y="329" type="curve" smooth="yes"/>
      <point x="126" y="329"/>
      <point x="106" y="345"/>
      <point x="106" y="369" type="curve" smooth="yes"/>
      <point x="106" y="410"/>
      <point x="154" y="433"/>
      <point x="211" y="433" type="curve" smooth="yes"/>
      <point x="295" y="433"/>
      <point x="345" y="382"/>
      <point x="345" y="290" type="curve" smooth="yes"/>
      <point x="345" y="289"/>
      <point x="345" y="287"/>
      <point x="345" y="286" type="curve"/>
      <point x="291" y="286" type="line" smooth="yes"/>
      <point x="178" y="286"/>
      <point x="163" y="200"/>
      <point x="163" y="164" type="curve" smooth="yes"/>
      <point x="163" y="88"/>
      <point x="216" y="31"/>
      <point x="323" y="31" type="curve" smooth="yes"/>
      <point x="415" y="31"/>
      <point x="480" y="51"/>
      <point x="523" y="84" type="curve"/>
      <point x="523" y="51" type="line"/>
      <point x="472" y="17"/>
      <point x="386" y="-4"/>
      <point x="282" y="-4" type="curve" smooth="yes"/>
      <point x="118" y="-4"/>
      <point x="33" y="62"/>
    </contour>
  </outline>
</glyph>
<glyph name="si_I" format="1">
  <advance width="593"/>
  <unicode hex="0D89"/>
  <outline>
    <contour>
      <point x="33" y="221" type="curve" smooth="yes"/>
      <point x="33" y="357"/>
      <point x="148" y="432"/>
      <point x="284" y="432" type="curve" smooth="yes"/>
      <point x="437" y="432"/>
      <point x="544" y="353"/>
      <point x="544" y="198" type="curve" smooth="yes"/>
      <point x="544" y="92"/>
      <point x="473" y="10"/>
      <point x="384" y="-6" type="curve"/>
      <point x="417" y="-12"/>
      <point x="439" y="-36"/>
      <point x="439" y="-75" type="curve" smooth="yes"/>
      <point x="439" y="-134"/>
      <point x="364" y="-160"/>
      <point x="298" y="-160" type="curve" smooth="yes"/>
      <point x="236" y="-160"/>
      <point x="173" y="-139"/>
      <point x="173" y="-76" type="curve" smooth="yes"/>
      <point x="173" y="-50"/>
      <point x="191" y="-38"/>
      <point x="208" y="-38" type="curve" smooth="yes"/>
      <point x="223" y="-38"/>
      <point x="238" y="-48"/>
      <point x="238" y="-65" type="curve" smooth="yes"/>
      <point x="238" y="-71"/>
      <point x="234" y="-82"/>
      <point x="234" y="-94" type="curve" smooth="yes"/>
      <point x="234" y="-114"/>
      <point x="245" y="-136"/>
      <point x="300" y="-136" type="curve" smooth="yes"/>
      <point x="339" y="-136"/>
      <point x="366" y="-118"/>
      <point x="366" y="-83" type="curve" smooth="yes"/>
      <point x="366" y="-43"/>
      <point x="334" y="-15"/>
      <point x="267" y="-15" type="curve" smooth="yes"/>
      <point x="259" y="-15"/>
      <point x="259" y="-15"/>
      <point x="249" y="-16" type="curve"/>
      <point x="249" y="13" type="line"/>
      <point x="261" y="14"/>
      <point x="262" y="14"/>
      <point x="273" y="14" type="curve" smooth="yes"/>
      <point x="290" y="14"/>
      <point x="306" y="12"/>
      <point x="323" y="12" type="curve" smooth="yes"/>
      <point x="421" y="12"/>
      <point x="482" y="82"/>
      <point x="482" y="167" type="curve" smooth="yes"/>
      <point x="482" y="262"/>
      <point x="407" y="333"/>
      <point x="285" y="333" type="curve" smooth="yes"/>
      <point x="174" y="333"/>
      <point x="97" y="285"/>
      <point x="97" y="194" type="curve" smooth="yes"/>
      <point x="97" y="141"/>
      <point x="146" y="82"/>
      <point x="232" y="82" type="curve" smooth="yes"/>
      <point x="275" y="82"/>
      <point x="312" y="93"/>
      <point x="328" y="114" type="curve"/>
      <point x="316" y="104"/>
      <point x="299" y="100"/>
      <point x="285" y="100" type="curve" smooth="yes"/>
      <point x="242" y="100"/>
      <point x="207" y="135"/>
      <point x="207" y="175" type="curve" smooth="yes"/>
      <point x="207" y="221"/>
      <point x="241" y="257"/>
      <point x="286" y="257" type="curve" smooth="yes"/>
      <point x="344" y="257"/>
      <point x="377" y="219"/>
      <point x="377" y="166" type="curve" smooth="yes"/>
      <point x="377" y="86"/>
      <point x="310" y="54"/>
      <point x="220" y="54" type="curve" smooth="yes"/>
      <point x="113" y="54"/>
      <point x="33" y="117"/>
    </contour>
    <contour>
      <point x="238" y="178" type="curve" smooth="yes"/>
      <point x="238" y="150"/>
      <point x="261" y="129"/>
      <point x="288" y="129" type="curve" smooth="yes"/>
      <point x="316" y="129"/>
      <point x="338" y="151"/>
      <point x="338" y="178" type="curve" smooth="yes"/>
      <point x="338" y="206"/>
      <point x="315" y="227"/>
      <point x="288" y="227" type="curve" smooth="yes"/>
      <point x="260" y="227"/>
      <point x="238" y="205"/>
    </contour>
  </outline>
</glyph>
<glyph name="uni0D8A" format="1">
  <advance width="528"/>
  <unicode hex="0D8A"/>
  <outline>
    <contour>
      <point x="410" y="468" type="curve" smooth="yes"/>
      <point x="410" y="448"/>
      <point x="427" y="431"/>
      <point x="448" y="431" type="curve" smooth="yes"/>
      <point x="468" y="431"/>
      <point x="485" y="448"/>
      <point x="485" y="468" type="curve" smooth="yes"/>
      <point x="485" y="489"/>
      <point x="468" y="506"/>
      <point x="448" y="506" type="curve" smooth="yes"/>
      <point x="427" y="506"/>
      <point x="410" y="489"/>
    </contour>
    <contour>
      <point x="382" y="468" type="curve" smooth="yes"/>
      <point x="382" y="504"/>
      <point x="411" y="533"/>
      <point x="448" y="533" type="curve" smooth="yes"/>
      <point x="484" y="533"/>
      <point x="513" y="504"/>
      <point x="513" y="468" type="curve" smooth="yes"/>
      <point x="513" y="432"/>
      <point x="484" y="403"/>
      <point x="448" y="403" type="curve" smooth="yes"/>
      <point x="411" y="403"/>
      <point x="382" y="432"/>
    </contour>
    <contour>
      <point x="145" y="538" type="curve" smooth="yes"/>
      <point x="145" y="518"/>
      <point x="162" y="501"/>
      <point x="183" y="501" type="curve" smooth="yes"/>
      <point x="203" y="501"/>
      <point x="220" y="518"/>
      <point x="220" y="538" type="curve" smooth="yes"/>
      <point x="220" y="559"/>
      <point x="203" y="576"/>
      <point x="183" y="576" type="curve" smooth="yes"/>
      <point x="162" y="576"/>
      <point x="145" y="559"/>
    </contour>
    <contour>
      <point x="117" y="538" type="curve" smooth="yes"/>
      <point x="117" y="574"/>
      <point x="146" y="603"/>
      <point x="183" y="603" type="curve" smooth="yes"/>
      <point x="219" y="603"/>
      <point x="248" y="574"/>
      <point x="248" y="538" type="curve" smooth="yes"/>
      <point x="248" y="502"/>
      <point x="219" y="473"/>
      <point x="183" y="473" type="curve" smooth="yes"/>
      <point x="146" y="473"/>
      <point x="117" y="502"/>
    </contour>
    <contour>
      <point x="31" y="213" type="curve" smooth="yes"/>
      <point x="31" y="323"/>
      <point x="94" y="382"/>
      <point x="170" y="422" type="curve" smooth="yes"/>
      <point x="223" y="450"/>
      <point x="254" y="477"/>
      <point x="292" y="518" type="curve" smooth="yes"/>
      <point x="329" y="558"/>
      <point x="350" y="627"/>
      <point x="395" y="627" type="curve" smooth="yes"/>
      <point x="418" y="627"/>
      <point x="431" y="613"/>
      <point x="431" y="598" type="curve" smooth="yes"/>
      <point x="431" y="578"/>
      <point x="408" y="552"/>
      <point x="359" y="511" type="curve" smooth="yes"/>
      <point x="326" y="484"/>
      <point x="293" y="462"/>
      <point x="247" y="436" type="curve"/>
      <point x="252" y="437"/>
      <point x="253" y="437"/>
      <point x="262" y="437" type="curve" smooth="yes"/>
      <point x="333" y="437"/>
      <point x="388" y="413"/>
      <point x="430" y="366" type="curve" smooth="yes"/>
      <point x="465" y="326"/>
      <point x="482" y="281"/>
      <point x="482" y="225" type="curve" smooth="yes"/>
      <point x="482" y="102"/>
      <point x="384" y="0"/>
      <point x="248" y="0" type="curve" smooth="yes"/>
      <point x="124" y="0"/>
      <point x="31" y="89"/>
    </contour>
    <contour>
      <point x="75" y="250" type="curve" smooth="yes"/>
      <point x="75" y="181"/>
      <point x="124" y="117"/>
      <point x="232" y="117" type="curve" smooth="yes"/>
      <point x="337" y="117"/>
      <point x="414" y="178"/>
      <point x="414" y="279" type="curve" smooth="yes"/>
      <point x="414" y="360"/>
      <point x="353" y="412"/>
      <point x="261" y="412" type="curve" smooth="yes"/>
      <point x="177" y="412"/>
      <point x="75" y="348"/>
    </contour>
  </outline>
</glyph>
<glyph name="uni0D8B" format="1">
  <advance width="651"/>
  <unicode hex="0D8B"/>
  <outline>
    <contour>
      <point x="32" y="99" type="curve" smooth="yes"/>
      <point x="32" y="210"/>
      <point x="121" y="296"/>
      <point x="264" y="296" type="curve" smooth="yes"/>
      <point x="505" y="296" type="line"/>
      <point x="502" y="346"/>
      <point x="458" y="385"/>
      <point x="413" y="385" type="curve" smooth="yes"/>
      <point x="391" y="385"/>
      <point x="371" y="377"/>
      <point x="357" y="354" type="curve" smooth="yes"/>
      <point x="349" y="342"/>
      <point x="337" y="325"/>
      <point x="310" y="325" type="curve" smooth="yes"/>
      <point x="282" y="325"/>
      <point x="267" y="345"/>
      <point x="267" y="365" type="curve" smooth="yes"/>
      <point x="267" y="410"/>
      <point x="313" y="432"/>
      <point x="376" y="432" type="curve" smooth="yes"/>
      <point x="469" y="432"/>
      <point x="539" y="370"/>
      <point x="539" y="276" type="curve" smooth="yes"/>
      <point x="539" y="274"/>
      <point x="539" y="271"/>
      <point x="539" y="269" type="curve"/>
      <point x="337" y="269" type="line" smooth="yes"/>
      <point x="213" y="269"/>
      <point x="162" y="209"/>
      <point x="162" y="115" type="curve" smooth="yes"/>
      <point x="162" y="-25"/>
      <point x="259" y="-108"/>
      <point x="377" y="-108" type="curve" smooth="yes"/>
      <point x="473" y="-108"/>
      <point x="572" y="-36"/>
      <point x="572" y="69" type="curve"/>
      <point x="603" y="69" type="line"/>
      <point x="603" y="-64"/>
      <point x="480" y="-161"/>
      <point x="328" y="-161" type="curve" smooth="yes"/>
      <point x="177" y="-161"/>
      <point x="32" y="-62"/>
    </contour>
  </outline>
</glyph>
<glyph name="si_vocalicRr" format="1">
  <advance width="1140"/>
  <unicode hex="0D8E"/>
  <outline>
    <contour>
      <point x="31" y="154" type="curve" smooth="yes"/>
      <point x="31" y="239"/>
      <point x="85" y="316"/>
      <point x="206" y="316" type="curve" smooth="yes"/>
      <point x="221" y="316"/>
      <point x="247" y="313"/>
      <point x="261" y="310" type="curve"/>
      <point x="261" y="312"/>
      <point x="261" y="311"/>
      <point x="261" y="313" type="curve" smooth="yes"/>
      <point x="261" y="356"/>
      <point x="228" y="391"/>
      <point x="195" y="391" type="curve" smooth="yes"/>
      <point x="156" y="391"/>
      <point x="147" y="369"/>
      <point x="142" y="353" type="curve" smooth="yes"/>
      <point x="135" y="334"/>
      <point x="123" y="322"/>
      <point x="99" y="322" type="curve" smooth="yes"/>
      <point x="80" y="322"/>
      <point x="62" y="333"/>
      <point x="62" y="359" type="curve" smooth="yes"/>
      <point x="62" y="405"/>
      <point x="112" y="432"/>
      <point x="167" y="432" type="curve" smooth="yes"/>
      <point x="255" y="432"/>
      <point x="293" y="369"/>
      <point x="293" y="296" type="curve" smooth="yes"/>
      <point x="293" y="293"/>
      <point x="293" y="287"/>
      <point x="293" y="280" type="curve"/>
      <point x="265" y="286"/>
      <point x="234" y="289"/>
      <point x="205" y="289" type="curve" smooth="yes"/>
      <point x="144" y="289"/>
      <point x="89" y="262"/>
      <point x="89" y="201" type="curve" smooth="yes"/>
      <point x="89" y="157"/>
      <point x="129" y="118"/>
      <point x="201" y="118" type="curve" smooth="yes"/>
      <point x="257" y="118"/>
      <point x="301" y="139"/>
      <point x="301" y="183" type="curve" smooth="yes"/>
      <point x="301" y="204" type="line"/>
      <point x="328" y="204" type="line"/>
      <point x="328" y="183" type="line" smooth="yes"/>
      <point x="328" y="137"/>
      <point x="371" y="118"/>
      <point x="433" y="118" type="curve" smooth="yes"/>
      <point x="504" y="118"/>
      <point x="551" y="151"/>
      <point x="551" y="204" type="curve" smooth="yes"/>
      <point x="551" y="251"/>
      <point x="516" y="289"/>
      <point x="431" y="289" type="curve" smooth="yes"/>
      <point x="399" y="289"/>
      <point x="371" y="287"/>
      <point x="333" y="280" type="curve"/>
      <point x="333" y="284"/>
      <point x="333" y="287"/>
      <point x="333" y="291" type="curve" smooth="yes"/>
      <point x="333" y="375"/>
      <point x="381" y="432"/>
      <point x="456" y="432" type="curve" smooth="yes"/>
      <point x="510" y="432"/>
      <point x="559" y="408"/>
      <point x="559" y="350" type="curve" smooth="yes"/>
      <point x="559" y="329"/>
      <point x="544" y="305"/>
      <point x="530" y="298" type="curve"/>
      <point x="579" y="275"/>
      <point x="608" y="221"/>
      <point x="608" y="166" type="curve" smooth="yes"/>
      <point x="608" y="58"/>
      <point x="538" y="0"/>
      <point x="440" y="0" type="curve" smooth="yes"/>
      <point x="375" y="0"/>
      <point x="332" y="31"/>
      <point x="313" y="82" type="curve"/>
      <point x="292" y="30"/>
      <point x="251" y="-1"/>
      <point x="183" y="-1" type="curve" smooth="yes"/>
      <point x="88" y="-1"/>
      <point x="31" y="76"/>
    </contour>
    <contour>
      <point x="364" y="310" type="curve"/>
      <point x="375" y="313"/>
      <point x="401" y="316"/>
      <point x="425" y="316" type="curve" smooth="yes"/>
      <point x="459" y="316"/>
      <point x="481" y="314"/>
      <point x="503" y="307" type="curve"/>
      <point x="513" y="317"/>
      <point x="517" y="330"/>
      <point x="517" y="343" type="curve" smooth="yes"/>
      <point x="517" y="374"/>
      <point x="486" y="388"/>
      <point x="450" y="388" type="curve" smooth="yes"/>
      <point x="398" y="388"/>
      <point x="368" y="359"/>
    </contour>
    <component base="si_MatraR" xOffset="833"/>
    <component base="si_MatraR" xOffset="583"/>
  </outline>
</glyph>
<glyph name="si_vocalicL" format="1">
  <advance width="820"/>
  <unicode hex="0D8F"/>
  <outline>
    <contour>
      <point x="641" y="53" type="curve" smooth="yes"/>
      <point x="641" y="40"/>
      <point x="652" y="29"/>
      <point x="665" y="29" type="curve" smooth="yes"/>
      <point x="679" y="29"/>
      <point x="689" y="40"/>
      <point x="689" y="53" type="curve" smooth="yes"/>
      <point x="689" y="66"/>
      <point x="679" y="77"/>
      <point x="665" y="77" type="curve" smooth="yes"/>
      <point x="652" y="77"/>
      <point x="641" y="66"/>
    </contour>
    <contour>
      <point x="582" y="445" type="curve" smooth="yes"/>
      <point x="582" y="467"/>
      <point x="598" y="481"/>
      <point x="630" y="481" type="curve" smooth="yes"/>
      <point x="717" y="481"/>
      <point x="773" y="378"/>
      <point x="773" y="240" type="curve" smooth="yes"/>
      <point x="773" y="147"/>
      <point x="742" y="1"/>
      <point x="666" y="1" type="curve" smooth="yes"/>
      <point x="636" y="1"/>
      <point x="614" y="23"/>
      <point x="614" y="53" type="curve" smooth="yes"/>
      <point x="614" y="79"/>
      <point x="633" y="105"/>
      <point x="666" y="105" type="curve" smooth="yes"/>
      <point x="683" y="105"/>
      <point x="700" y="98"/>
      <point x="709" y="79" type="curve"/>
      <point x="730" y="114"/>
      <point x="741" y="188"/>
      <point x="741" y="240" type="curve" smooth="yes"/>
      <point x="741" y="347"/>
      <point x="702" y="451"/>
      <point x="634" y="451" type="curve" smooth="yes"/>
      <point x="625" y="451"/>
      <point x="614" y="448"/>
      <point x="614" y="433" type="curve" smooth="yes"/>
      <point x="614" y="421"/>
      <point x="619" y="408"/>
      <point x="631" y="391" type="curve"/>
      <point x="618" y="400"/>
      <point x="596" y="420"/>
      <point x="588" y="423" type="curve"/>
      <point x="583" y="430"/>
      <point x="582" y="440"/>
    </contour>
    <contour>
      <point x="115" y="53" type="curve" smooth="yes"/>
      <point x="115" y="40"/>
      <point x="125" y="29"/>
      <point x="139" y="29" type="curve" smooth="yes"/>
      <point x="152" y="29"/>
      <point x="163" y="40"/>
      <point x="163" y="53" type="curve" smooth="yes"/>
      <point x="163" y="66"/>
      <point x="152" y="77"/>
      <point x="139" y="77" type="curve" smooth="yes"/>
      <point x="125" y="77"/>
      <point x="115" y="66"/>
    </contour>
    <contour>
      <point x="31" y="240" type="curve" smooth="yes"/>
      <point x="31" y="378"/>
      <point x="87" y="481"/>
      <point x="174" y="481" type="curve" smooth="yes"/>
      <point x="206" y="481"/>
      <point x="222" y="467"/>
      <point x="222" y="445" type="curve" smooth="yes"/>
      <point x="222" y="440"/>
      <point x="221" y="433"/>
      <point x="216" y="426" type="curve"/>
      <point x="208" y="423"/>
      <point x="186" y="413"/>
      <point x="173" y="404" type="curve"/>
      <point x="182" y="414"/>
      <point x="190" y="424"/>
      <point x="190" y="436" type="curve" smooth="yes"/>
      <point x="190" y="447"/>
      <point x="179" y="451"/>
      <point x="170" y="451" type="curve" smooth="yes"/>
      <point x="102" y="451"/>
      <point x="63" y="347"/>
      <point x="63" y="240" type="curve" smooth="yes"/>
      <point x="63" y="188"/>
      <point x="74" y="114"/>
      <point x="95" y="79" type="curve"/>
      <point x="104" y="98"/>
      <point x="121" y="105"/>
      <point x="138" y="105" type="curve" smooth="yes"/>
      <point x="171" y="105"/>
      <point x="190" y="79"/>
      <point x="190" y="53" type="curve" smooth="yes"/>
      <point x="190" y="23"/>
      <point x="168" y="1"/>
      <point x="138" y="1" type="curve" smooth="yes"/>
      <point x="62" y="1"/>
      <point x="31" y="147"/>
    </contour>
    <contour>
      <point x="133" y="184" type="curve" smooth="yes"/>
      <point x="133" y="275"/>
      <point x="201" y="327"/>
      <point x="308" y="327" type="curve" smooth="yes"/>
      <point x="321" y="327"/>
      <point x="332" y="326"/>
      <point x="344" y="325" type="curve"/>
      <point x="345" y="329"/>
      <point x="345" y="332"/>
      <point x="345" y="336" type="curve" smooth="yes"/>
      <point x="345" y="376"/>
      <point x="319" y="392"/>
      <point x="293" y="392" type="curve" smooth="yes"/>
      <point x="264" y="392"/>
      <point x="250" y="377"/>
      <point x="245" y="359" type="curve" smooth="yes"/>
      <point x="239" y="341"/>
      <point x="223" y="327"/>
      <point x="197" y="327" type="curve" smooth="yes"/>
      <point x="177" y="327"/>
      <point x="157" y="338"/>
      <point x="157" y="366" type="curve" smooth="yes"/>
      <point x="157" y="408"/>
      <point x="204" y="434"/>
      <point x="260" y="434" type="curve" smooth="yes"/>
      <point x="332" y="434"/>
      <point x="376" y="401"/>
      <point x="376" y="334" type="curve" smooth="yes"/>
      <point x="376" y="323"/>
      <point x="375" y="310"/>
      <point x="372" y="297" type="curve"/>
      <point x="355" y="299"/>
      <point x="320" y="301"/>
      <point x="318" y="301" type="curve" smooth="yes"/>
      <point x="244" y="301"/>
      <point x="188" y="275"/>
      <point x="188" y="221" type="curve" smooth="yes"/>
      <point x="188" y="142"/>
      <point x="303" y="118"/>
      <point x="408" y="118" type="curve" smooth="yes"/>
      <point x="508" y="118"/>
      <point x="619" y="148"/>
      <point x="619" y="228" type="curve" smooth="yes"/>
      <point x="619" y="277"/>
      <point x="570" y="303"/>
      <point x="495" y="303" type="curve" smooth="yes"/>
      <point x="472" y="303"/>
      <point x="448" y="300"/>
      <point x="425" y="296" type="curve"/>
      <point x="424" y="307"/>
      <point x="423" y="318"/>
      <point x="423" y="328" type="curve" smooth="yes"/>
      <point x="423" y="397"/>
      <point x="467" y="433"/>
      <point x="540" y="433" type="curve" smooth="yes"/>
      <point x="606" y="433"/>
      <point x="643" y="393"/>
      <point x="643" y="354" type="curve" smooth="yes"/>
      <point x="643" y="334"/>
      <point x="634" y="317"/>
      <point x="615" y="303" type="curve"/>
      <point x="656" y="279"/>
      <point x="676" y="241"/>
      <point x="676" y="186" type="curve" smooth="yes"/>
      <point x="676" y="56"/>
      <point x="549" y="0"/>
      <point x="408" y="0" type="curve" smooth="yes"/>
      <point x="260" y="0"/>
      <point x="133" y="46"/>
    </contour>
    <contour>
      <point x="456" y="336" type="curve" smooth="yes"/>
      <point x="456" y="332"/>
      <point x="456" y="329"/>
      <point x="456" y="325" type="curve"/>
      <point x="473" y="327"/>
      <point x="489" y="328"/>
      <point x="504" y="328" type="curve" smooth="yes"/>
      <point x="537" y="328"/>
      <point x="565" y="324"/>
      <point x="589" y="315" type="curve"/>
      <point x="601" y="326"/>
      <point x="605" y="338"/>
      <point x="605" y="351" type="curve" smooth="yes"/>
      <point x="605" y="380"/>
      <point x="580" y="404"/>
      <point x="533" y="404" type="curve" smooth="yes"/>
      <point x="491" y="404"/>
      <point x="456" y="381"/>
    </contour>
  </outline>
</glyph>
<glyph name="si_E" format="1">
  <advance width="595"/>
  <unicode hex="0D91"/>
  <outline>
    <contour>
      <point x="45" y="165" type="curve" smooth="yes"/>
      <point x="45" y="196"/>
      <point x="55" y="228"/>
      <point x="78" y="248" type="curve" smooth="yes"/>
      <point x="94" y="262"/>
      <point x="113" y="273"/>
      <point x="139" y="278" type="curve"/>
      <point x="173" y="290"/>
      <point x="214" y="302"/>
      <point x="251" y="302" type="curve" smooth="yes"/>
      <point x="262" y="302" type="line"/>
      <point x="262" y="304"/>
      <point x="262" y="306"/>
      <point x="262" y="308" type="curve" smooth="yes"/>
      <point x="262" y="356"/>
      <point x="229" y="391"/>
      <point x="192" y="391" type="curve" smooth="yes"/>
      <point x="164" y="391"/>
      <point x="150" y="372"/>
      <point x="145" y="355" type="curve" smooth="yes"/>
      <point x="138" y="333"/>
      <point x="126" y="322"/>
      <point x="102" y="322" type="curve" smooth="yes"/>
      <point x="84" y="322"/>
      <point x="64" y="333"/>
      <point x="64" y="359" type="curve" smooth="yes"/>
      <point x="64" y="405"/>
      <point x="112" y="432"/>
      <point x="168" y="432" type="curve" smooth="yes"/>
      <point x="256" y="432"/>
      <point x="295" y="363"/>
      <point x="295" y="290" type="curve" smooth="yes"/>
      <point x="295" y="287"/>
      <point x="295" y="279"/>
      <point x="295" y="276" type="curve"/>
      <point x="232" y="276" type="line" smooth="yes"/>
      <point x="188" y="276"/>
      <point x="154" y="267"/>
      <point x="131" y="252" type="curve" smooth="yes"/>
      <point x="111" y="239"/>
      <point x="100" y="220"/>
      <point x="100" y="198" type="curve" smooth="yes"/>
      <point x="100" y="131"/>
      <point x="196" y="118"/>
      <point x="279" y="118" type="curve" smooth="yes"/>
      <point x="432" y="118"/>
      <point x="501" y="190"/>
      <point x="501" y="290" type="curve" smooth="yes"/>
      <point x="501" y="342"/>
      <point x="488" y="383"/>
      <point x="471" y="411" type="curve"/>
      <point x="456" y="379"/>
      <point x="426" y="359"/>
      <point x="383" y="359" type="curve" smooth="yes"/>
      <point x="320" y="359"/>
      <point x="283" y="414"/>
      <point x="283" y="480" type="curve" smooth="yes"/>
      <point x="283" y="530"/>
      <point x="298" y="566"/>
      <point x="325" y="597" type="curve"/>
      <point x="386" y="564"/>
      <point x="457" y="492"/>
      <point x="493" y="430" type="curve" smooth="yes"/>
      <point x="532" y="363"/>
      <point x="545" y="315"/>
      <point x="545" y="245" type="curve" smooth="yes"/>
      <point x="545" y="117"/>
      <point x="459" y="0"/>
      <point x="276" y="0" type="curve" smooth="yes"/>
      <point x="155" y="0"/>
      <point x="45" y="46"/>
    </contour>
    <contour>
      <point x="16" y="269" type="curve"/>
      <point x="16" y="302" type="line"/>
      <point x="260" y="302" type="line"/>
      <point x="291" y="276" type="line"/>
      <point x="129" y="276" type="line" smooth="yes"/>
      <point x="58" y="275"/>
      <point x="32" y="272"/>
    </contour>
    <contour>
      <point x="316" y="487" type="curve" smooth="yes"/>
      <point x="316" y="438"/>
      <point x="345" y="402"/>
      <point x="393" y="402" type="curve" smooth="yes"/>
      <point x="413" y="402"/>
      <point x="440" y="413"/>
      <point x="450" y="441" type="curve"/>
      <point x="420" y="485"/>
      <point x="372" y="530"/>
      <point x="334" y="558" type="curve"/>
      <point x="325" y="541"/>
      <point x="316" y="518"/>
    </contour>
  </outline>
</glyph>
<glyph name="uni0D92" format="1">
  <advance width="595"/>
  <unicode hex="0D92"/>
  <outline>
    <contour>
      <point x="440" y="444" type="line"/>
      <point x="440" y="694" type="line"/>
      <point x="495" y="651"/>
      <point x="593" y="648"/>
      <point x="593" y="555" type="curve" smooth="yes"/>
      <point x="593" y="512"/>
      <point x="559" y="482"/>
      <point x="514" y="482" type="curve" smooth="yes"/>
      <point x="499" y="482"/>
      <point x="484" y="485"/>
      <point x="469" y="491" type="curve"/>
      <point x="469" y="427" type="line"/>
    </contour>
    <contour>
      <point x="469" y="516" type="line"/>
      <point x="478" y="512"/>
      <point x="488" y="510"/>
      <point x="501" y="510" type="curve" smooth="yes"/>
      <point x="537" y="510"/>
      <point x="550" y="535"/>
      <point x="550" y="558" type="curve" smooth="yes"/>
      <point x="550" y="599"/>
      <point x="519" y="619"/>
      <point x="469" y="649" type="curve"/>
    </contour>
    <contour>
      <point x="45" y="165" type="curve" smooth="yes"/>
      <point x="45" y="196"/>
      <point x="55" y="228"/>
      <point x="78" y="248" type="curve" smooth="yes"/>
      <point x="94" y="262"/>
      <point x="113" y="273"/>
      <point x="139" y="278" type="curve"/>
      <point x="173" y="290"/>
      <point x="208" y="302"/>
      <point x="245" y="302" type="curve" smooth="yes"/>
      <point x="256" y="302" type="line"/>
      <point x="256" y="304"/>
      <point x="256" y="306"/>
      <point x="256" y="308" type="curve" smooth="yes"/>
      <point x="256" y="348"/>
      <point x="230" y="385"/>
      <point x="193" y="385" type="curve" smooth="yes"/>
      <point x="165" y="385"/>
      <point x="150" y="365"/>
      <point x="145" y="349" type="curve" smooth="yes"/>
      <point x="137" y="327"/>
      <point x="127" y="316"/>
      <point x="102" y="316" type="curve" smooth="yes"/>
      <point x="85" y="316"/>
      <point x="64" y="328"/>
      <point x="64" y="353" type="curve" smooth="yes"/>
      <point x="64" y="400"/>
      <point x="111" y="426"/>
      <point x="166" y="426" type="curve" smooth="yes"/>
      <point x="254" y="426"/>
      <point x="289" y="359"/>
      <point x="289" y="290" type="curve" smooth="yes"/>
      <point x="289" y="287"/>
      <point x="289" y="279"/>
      <point x="289" y="276" type="curve"/>
      <point x="232" y="276" type="line" smooth="yes"/>
      <point x="188" y="276"/>
      <point x="154" y="267"/>
      <point x="131" y="252" type="curve" smooth="yes"/>
      <point x="111" y="239"/>
      <point x="100" y="220"/>
      <point x="100" y="198" type="curve" smooth="yes"/>
      <point x="100" y="131"/>
      <point x="196" y="118"/>
      <point x="279" y="118" type="curve" smooth="yes"/>
      <point x="432" y="118"/>
      <point x="501" y="191"/>
      <point x="501" y="288" type="curve" smooth="yes"/>
      <point x="501" y="340"/>
      <point x="488" y="365"/>
      <point x="471" y="393" type="curve"/>
      <point x="456" y="361"/>
      <point x="426" y="341"/>
      <point x="383" y="341" type="curve" smooth="yes"/>
      <point x="320" y="341"/>
      <point x="283" y="396"/>
      <point x="283" y="462" type="curve" smooth="yes"/>
      <point x="283" y="512"/>
      <point x="298" y="548"/>
      <point x="325" y="579" type="curve"/>
      <point x="386" y="546"/>
      <point x="456" y="473"/>
      <point x="493" y="412" type="curve" smooth="yes"/>
      <point x="531" y="349"/>
      <point x="545" y="313"/>
      <point x="545" y="243" type="curve" smooth="yes"/>
      <point x="545" y="118"/>
      <point x="459" y="0"/>
      <point x="276" y="0" type="curve" smooth="yes"/>
      <point x="155" y="0"/>
      <point x="45" y="46"/>
    </contour>
    <contour>
      <point x="16" y="269" type="curve"/>
      <point x="16" y="302" type="line"/>
      <point x="254" y="302" type="line"/>
      <point x="285" y="276" type="line"/>
      <point x="129" y="276" type="line" smooth="yes"/>
      <point x="58" y="275"/>
      <point x="32" y="272"/>
    </contour>
    <contour>
      <point x="316" y="469" type="curve" smooth="yes"/>
      <point x="316" y="420"/>
      <point x="345" y="384"/>
      <point x="393" y="384" type="curve" smooth="yes"/>
      <point x="413" y="384"/>
      <point x="440" y="395"/>
      <point x="450" y="423" type="curve"/>
      <point x="420" y="467"/>
      <point x="372" y="512"/>
      <point x="334" y="540" type="curve"/>
      <point x="325" y="523"/>
      <point x="316" y="500"/>
    </contour>
  </outline>
</glyph>
<glyph name="si_Os" format="1">
  <advance width="636"/>
  <unicode hex="0D94"/>
  <outline>
    <contour>
      <point x="275" y="362" type="curve" smooth="yes"/>
      <point x="275" y="336"/>
      <point x="296" y="315"/>
      <point x="321" y="315" type="curve" smooth="yes"/>
      <point x="346" y="315"/>
      <point x="367" y="336"/>
      <point x="367" y="362" type="curve" smooth="yes"/>
      <point x="367" y="387"/>
      <point x="346" y="408"/>
      <point x="321" y="408" type="curve" smooth="yes"/>
      <point x="296" y="408"/>
      <point x="275" y="387"/>
    </contour>
    <contour>
      <point x="30" y="224" type="curve" smooth="yes"/>
      <point x="30" y="332"/>
      <point x="74" y="432"/>
      <point x="148" y="432" type="curve" smooth="yes"/>
      <point x="167" y="432"/>
      <point x="174" y="428"/>
      <point x="181" y="423" type="curve" smooth="yes"/>
      <point x="192" y="415"/>
      <point x="200" y="401"/>
      <point x="200" y="371" type="curve" smooth="yes"/>
      <point x="200" y="357"/>
      <point x="200" y="340"/>
      <point x="200" y="337" type="curve" smooth="yes"/>
      <point x="200" y="284"/>
      <point x="240" y="255"/>
      <point x="295" y="255" type="curve" smooth="yes"/>
      <point x="348" y="255"/>
      <point x="389" y="281"/>
      <point x="389" y="326" type="curve" smooth="yes"/>
      <point x="389" y="327"/>
      <point x="389" y="329"/>
      <point x="388" y="331" type="curve"/>
      <point x="383" y="317"/>
      <point x="361" y="286"/>
      <point x="318" y="286" type="curve" smooth="yes"/>
      <point x="271" y="286"/>
      <point x="244" y="323"/>
      <point x="244" y="360" type="curve" smooth="yes"/>
      <point x="244" y="402"/>
      <point x="275" y="434"/>
      <point x="322" y="434" type="curve" smooth="yes"/>
      <point x="383" y="434"/>
      <point x="419" y="389"/>
      <point x="419" y="330" type="curve" smooth="yes"/>
      <point x="419" y="266"/>
      <point x="367" y="225"/>
      <point x="296" y="225" type="curve" smooth="yes"/>
      <point x="223" y="225"/>
      <point x="171" y="265"/>
      <point x="171" y="339" type="curve" smooth="yes"/>
      <point x="171" y="344"/>
      <point x="171" y="363"/>
      <point x="171" y="372" type="curve" smooth="yes"/>
      <point x="171" y="392"/>
      <point x="165" y="404"/>
      <point x="145" y="404" type="curve" smooth="yes"/>
      <point x="97" y="404"/>
      <point x="70" y="328"/>
      <point x="70" y="271" type="curve" smooth="yes"/>
      <point x="70" y="183"/>
      <point x="123" y="116"/>
      <point x="202" y="116" type="curve" smooth="yes"/>
      <point x="273" y="116"/>
      <point x="292" y="151"/>
      <point x="292" y="184" type="curve" smooth="yes"/>
      <point x="292" y="195" type="line"/>
      <point x="318" y="195" type="line"/>
      <point x="318" y="183" type="line" smooth="yes"/>
      <point x="318" y="147"/>
      <point x="346" y="117"/>
      <point x="405" y="117" type="curve" smooth="yes"/>
      <point x="501" y="117"/>
      <point x="538" y="215"/>
      <point x="538" y="311" type="curve" smooth="yes"/>
      <point x="538" y="436"/>
      <point x="458" y="554"/>
      <point x="298" y="554" type="curve" smooth="yes"/>
      <point x="199" y="554"/>
      <point x="141" y="523"/>
      <point x="95" y="466" type="curve"/>
      <point x="62" y="466" type="line"/>
      <point x="107" y="531"/>
      <point x="174" y="579"/>
      <point x="301" y="579" type="curve" smooth="yes"/>
      <point x="487" y="579"/>
      <point x="590" y="431"/>
      <point x="590" y="254" type="curve" smooth="yes"/>
      <point x="590" y="127"/>
      <point x="543" y="0"/>
      <point x="406" y="0" type="curve" smooth="yes"/>
      <point x="365" y="0"/>
      <point x="321" y="16"/>
      <point x="305" y="55" type="curve"/>
      <point x="283" y="15"/>
      <point x="246" y="0"/>
      <point x="196" y="0" type="curve" smooth="yes"/>
      <point x="78" y="0"/>
      <point x="30" y="127"/>
    </contour>
  </outline>
</glyph>
<glyph name="uni0D95" format="1">
  <advance width="636"/>
  <unicode hex="0D95"/>
  <outline>
    <contour>
      <point x="142" y="540" type="curve" smooth="yes"/>
      <point x="142" y="528"/>
      <point x="163" y="526"/>
      <point x="163" y="515" type="curve" smooth="yes"/>
      <point x="163" y="513"/>
      <point x="162" y="510"/>
      <point x="160" y="508" type="curve"/>
      <point x="193" y="514"/>
      <point x="233" y="519"/>
      <point x="279" y="519" type="curve" smooth="yes"/>
      <point x="387" y="519"/>
      <point x="472" y="489"/>
      <point x="529" y="424" type="curve"/>
      <point x="496" y="536"/>
      <point x="400" y="579"/>
      <point x="284" y="579" type="curve" smooth="yes"/>
      <point x="212" y="579"/>
      <point x="142" y="561"/>
    </contour>
    <contour>
      <point x="42" y="441" type="curve"/>
      <point x="42" y="473" type="line"/>
      <point x="74" y="485"/>
      <point x="125" y="499"/>
      <point x="125" y="508" type="curve" smooth="yes"/>
      <point x="125" y="520"/>
      <point x="97" y="521"/>
      <point x="97" y="546" type="curve" smooth="yes"/>
      <point x="97" y="583"/>
      <point x="163" y="629"/>
      <point x="278" y="629" type="curve" smooth="yes"/>
      <point x="486" y="629"/>
      <point x="560" y="490"/>
      <point x="572" y="356" type="curve"/>
      <point x="582" y="332"/>
      <point x="590" y="294"/>
      <point x="590" y="248" type="curve"/>
      <point x="539" y="275" type="line"/>
      <point x="539" y="283"/>
      <point x="539" y="283"/>
      <point x="539" y="288" type="curve" smooth="yes"/>
      <point x="539" y="410"/>
      <point x="444" y="493"/>
      <point x="278" y="493" type="curve" smooth="yes"/>
      <point x="202" y="493"/>
      <point x="123" y="479"/>
    </contour>
    <contour>
      <point x="275" y="362" type="curve" smooth="yes"/>
      <point x="275" y="336"/>
      <point x="296" y="315"/>
      <point x="321" y="315" type="curve" smooth="yes"/>
      <point x="346" y="315"/>
      <point x="367" y="336"/>
      <point x="367" y="362" type="curve" smooth="yes"/>
      <point x="367" y="387"/>
      <point x="346" y="408"/>
      <point x="321" y="408" type="curve" smooth="yes"/>
      <point x="296" y="408"/>
      <point x="275" y="387"/>
    </contour>
    <contour>
      <point x="30" y="224" type="curve" smooth="yes"/>
      <point x="30" y="332"/>
      <point x="74" y="432"/>
      <point x="148" y="432" type="curve" smooth="yes"/>
      <point x="167" y="432"/>
      <point x="174" y="428"/>
      <point x="181" y="423" type="curve" smooth="yes"/>
      <point x="192" y="415"/>
      <point x="200" y="401"/>
      <point x="200" y="371" type="curve" smooth="yes"/>
      <point x="200" y="357"/>
      <point x="200" y="340"/>
      <point x="200" y="337" type="curve" smooth="yes"/>
      <point x="200" y="284"/>
      <point x="240" y="255"/>
      <point x="295" y="255" type="curve" smooth="yes"/>
      <point x="348" y="255"/>
      <point x="389" y="281"/>
      <point x="389" y="326" type="curve" smooth="yes"/>
      <point x="389" y="327"/>
      <point x="389" y="329"/>
      <point x="388" y="331" type="curve"/>
      <point x="383" y="317"/>
      <point x="361" y="286"/>
      <point x="318" y="286" type="curve" smooth="yes"/>
      <point x="271" y="286"/>
      <point x="244" y="323"/>
      <point x="244" y="360" type="curve" smooth="yes"/>
      <point x="244" y="402"/>
      <point x="275" y="434"/>
      <point x="322" y="434" type="curve" smooth="yes"/>
      <point x="383" y="434"/>
      <point x="419" y="389"/>
      <point x="419" y="330" type="curve" smooth="yes"/>
      <point x="419" y="266"/>
      <point x="367" y="225"/>
      <point x="296" y="225" type="curve" smooth="yes"/>
      <point x="223" y="225"/>
      <point x="171" y="265"/>
      <point x="171" y="339" type="curve" smooth="yes"/>
      <point x="171" y="344"/>
      <point x="171" y="363"/>
      <point x="171" y="372" type="curve" smooth="yes"/>
      <point x="171" y="392"/>
      <point x="165" y="404"/>
      <point x="145" y="404" type="curve" smooth="yes"/>
      <point x="97" y="404"/>
      <point x="70" y="328"/>
      <point x="70" y="271" type="curve" smooth="yes"/>
      <point x="70" y="183"/>
      <point x="123" y="116"/>
      <point x="202" y="116" type="curve" smooth="yes"/>
      <point x="273" y="116"/>
      <point x="292" y="151"/>
      <point x="292" y="184" type="curve" smooth="yes"/>
      <point x="292" y="195" type="line"/>
      <point x="318" y="195" type="line"/>
      <point x="318" y="183" type="line" smooth="yes"/>
      <point x="318" y="147"/>
      <point x="346" y="117"/>
      <point x="405" y="117" type="curve" smooth="yes"/>
      <point x="501" y="117"/>
      <point x="539" y="208"/>
      <point x="539" y="296" type="curve"/>
      <point x="556" y="280"/>
      <point x="570" y="282"/>
      <point x="590" y="254" type="curve"/>
      <point x="590" y="127"/>
      <point x="543" y="0"/>
      <point x="406" y="0" type="curve" smooth="yes"/>
      <point x="365" y="0"/>
      <point x="321" y="16"/>
      <point x="305" y="55" type="curve"/>
      <point x="283" y="15"/>
      <point x="246" y="0"/>
      <point x="196" y="0" type="curve" smooth="yes"/>
      <point x="78" y="0"/>
      <point x="30" y="127"/>
    </contour>
  </outline>
</glyph>
<glyph name="si_Kha" format="1">
  <advance width="630"/>
  <unicode hex="0D9B"/>
  <outline>
    <contour>
      <point x="93" y="73" type="curve" smooth="yes"/>
      <point x="93" y="49"/>
      <point x="113" y="29"/>
      <point x="137" y="29" type="curve" smooth="yes"/>
      <point x="161" y="29"/>
      <point x="180" y="49"/>
      <point x="180" y="73" type="curve" smooth="yes"/>
      <point x="180" y="97"/>
      <point x="161" y="116"/>
      <point x="137" y="116" type="curve" smooth="yes"/>
      <point x="113" y="116"/>
      <point x="93" y="97"/>
    </contour>
    <contour>
      <point x="32" y="183" type="curve" smooth="yes"/>
      <point x="32" y="322"/>
      <point x="124" y="396"/>
      <point x="240" y="396" type="curve" smooth="yes"/>
      <point x="333" y="396"/>
      <point x="413" y="343"/>
      <point x="413" y="258" type="curve" smooth="yes"/>
      <point x="413" y="201"/>
      <point x="387" y="166"/>
      <point x="370" y="146" type="curve"/>
      <point x="373" y="147"/>
      <point x="376" y="147"/>
      <point x="379" y="147" type="curve" smooth="yes"/>
      <point x="408" y="147"/>
      <point x="404" y="114"/>
      <point x="441" y="114" type="curve" smooth="yes"/>
      <point x="503" y="114"/>
      <point x="536" y="210"/>
      <point x="536" y="313" type="curve" smooth="yes"/>
      <point x="536" y="459"/>
      <point x="445" y="575"/>
      <point x="294" y="575" type="curve" smooth="yes"/>
      <point x="205" y="575"/>
      <point x="140" y="541"/>
      <point x="98" y="470" type="curve"/>
      <point x="64" y="470" type="line"/>
      <point x="109" y="553"/>
      <point x="186" y="601"/>
      <point x="298" y="601" type="curve" smooth="yes"/>
      <point x="464" y="601"/>
      <point x="584" y="473"/>
      <point x="584" y="286" type="curve" smooth="yes"/>
      <point x="584" y="150"/>
      <point x="524" y="0"/>
      <point x="416" y="0" type="curve" smooth="yes"/>
      <point x="352" y="0"/>
      <point x="348" y="54"/>
      <point x="321" y="54" type="curve" smooth="yes"/>
      <point x="308" y="54"/>
      <point x="283" y="34"/>
      <point x="241" y="-21" type="curve"/>
      <point x="203" y="-18" type="line"/>
      <point x="216" y="-5"/>
      <point x="245" y="34"/>
      <point x="287" y="84" type="curve" smooth="yes"/>
      <point x="339" y="146"/>
      <point x="353" y="184"/>
      <point x="353" y="210" type="curve" smooth="yes"/>
      <point x="353" y="251"/>
      <point x="328" y="289"/>
      <point x="236" y="289" type="curve" smooth="yes"/>
      <point x="151" y="289"/>
      <point x="68" y="240"/>
      <point x="68" y="145" type="curve" smooth="yes"/>
      <point x="68" y="133"/>
      <point x="69" y="118"/>
      <point x="73" y="104" type="curve"/>
      <point x="81" y="131"/>
      <point x="107" y="147"/>
      <point x="136" y="147" type="curve" smooth="yes"/>
      <point x="180" y="147"/>
      <point x="211" y="119"/>
      <point x="211" y="73" type="curve" smooth="yes"/>
      <point x="211" y="37"/>
      <point x="181" y="-1"/>
      <point x="141" y="-1" type="curve" smooth="yes"/>
      <point x="56" y="-1"/>
      <point x="32" y="108"/>
    </contour>
  </outline>
</glyph>
<glyph name="si_Gha" format="1">
  <advance width="677"/>
  <unicode hex="0D9D"/>
  <outline>
    <contour>
      <point x="51" y="154" type="curve" smooth="yes"/>
      <point x="51" y="226"/>
      <point x="92" y="268"/>
      <point x="144" y="284" type="curve"/>
      <point x="178" y="296"/>
      <point x="232" y="308"/>
      <point x="269" y="308" type="curve" smooth="yes"/>
      <point x="279" y="308" type="line"/>
      <point x="279" y="310"/>
      <point x="279" y="310"/>
      <point x="279" y="312" type="curve" smooth="yes"/>
      <point x="279" y="357"/>
      <point x="250" y="390"/>
      <point x="213" y="390" type="curve" smooth="yes"/>
      <point x="185" y="390"/>
      <point x="172" y="374"/>
      <point x="164" y="355" type="curve" smooth="yes"/>
      <point x="157" y="335"/>
      <point x="145" y="321"/>
      <point x="120" y="321" type="curve" smooth="yes"/>
      <point x="99" y="321"/>
      <point x="82" y="333"/>
      <point x="82" y="359" type="curve" smooth="yes"/>
      <point x="82" y="406"/>
      <point x="132" y="432"/>
      <point x="187" y="432" type="curve" smooth="yes"/>
      <point x="275" y="432"/>
      <point x="313" y="369"/>
      <point x="313" y="294" type="curve" smooth="yes"/>
      <point x="313" y="291"/>
      <point x="313" y="284"/>
      <point x="313" y="281" type="curve"/>
      <point x="221" y="281" type="line" smooth="yes"/>
      <point x="164" y="281"/>
      <point x="105" y="246"/>
      <point x="105" y="193" type="curve" smooth="yes"/>
      <point x="105" y="144"/>
      <point x="145" y="116"/>
      <point x="192" y="116" type="curve" smooth="yes"/>
      <point x="218" y="116"/>
      <point x="236" y="120"/>
      <point x="242" y="126" type="curve"/>
      <point x="242" y="134"/>
      <point x="242" y="143"/>
      <point x="244" y="151" type="curve" smooth="yes"/>
      <point x="252" y="202"/>
      <point x="292" y="222"/>
      <point x="332" y="222" type="curve" smooth="yes"/>
      <point x="372" y="222"/>
      <point x="412" y="202"/>
      <point x="420" y="151" type="curve" smooth="yes"/>
      <point x="422" y="143"/>
      <point x="422" y="134"/>
      <point x="422" y="126" type="curve"/>
      <point x="428" y="120"/>
      <point x="446" y="116"/>
      <point x="472" y="116" type="curve" smooth="yes"/>
      <point x="524" y="116"/>
      <point x="577" y="146"/>
      <point x="577" y="202" type="curve" smooth="yes"/>
      <point x="577" y="250"/>
      <point x="537" y="289"/>
      <point x="448" y="289" type="curve" smooth="yes"/>
      <point x="412" y="289"/>
      <point x="386" y="287"/>
      <point x="353" y="280" type="curve"/>
      <point x="353" y="284"/>
      <point x="353" y="287"/>
      <point x="353" y="291" type="curve" smooth="yes"/>
      <point x="353" y="375"/>
      <point x="400" y="432"/>
      <point x="477" y="432" type="curve" smooth="yes"/>
      <point x="531" y="432"/>
      <point x="579" y="406"/>
      <point x="579" y="351" type="curve" smooth="yes"/>
      <point x="579" y="330"/>
      <point x="568" y="307"/>
      <point x="550" y="297" type="curve"/>
      <point x="597" y="274"/>
      <point x="628" y="221"/>
      <point x="628" y="166" type="curve" smooth="yes"/>
      <point x="628" y="58"/>
      <point x="556" y="0"/>
      <point x="464" y="0" type="curve" smooth="yes"/>
      <point x="442" y="0"/>
      <point x="414" y="3"/>
      <point x="383" y="12" type="curve"/>
      <point x="380" y="16"/>
      <point x="379" y="36"/>
      <point x="379" y="43" type="curve" smooth="yes"/>
      <point x="379" y="79"/>
      <point x="392" y="87"/>
      <point x="392" y="125" type="curve" smooth="yes"/>
      <point x="392" y="165"/>
      <point x="370" y="191"/>
      <point x="332" y="191" type="curve" smooth="yes"/>
      <point x="294" y="191"/>
      <point x="272" y="165"/>
      <point x="272" y="125" type="curve" smooth="yes"/>
      <point x="272" y="87"/>
      <point x="285" y="79"/>
      <point x="285" y="43" type="curve" smooth="yes"/>
      <point x="285" y="36"/>
      <point x="284" y="16"/>
      <point x="281" y="12" type="curve"/>
      <point x="250" y="3"/>
      <point x="222" y="0"/>
      <point x="200" y="0" type="curve" smooth="yes"/>
      <point x="109" y="0"/>
      <point x="51" y="76"/>
    </contour>
    <contour>
      <point x="5" y="274" type="curve"/>
      <point x="5" y="308" type="line"/>
      <point x="277" y="308" type="line"/>
      <point x="309" y="281" type="line"/>
      <point x="147" y="281" type="line" smooth="yes"/>
      <point x="76" y="280"/>
      <point x="21" y="277"/>
    </contour>
    <contour>
      <point x="384" y="310" type="curve"/>
      <point x="397" y="314"/>
      <point x="419" y="316"/>
      <point x="445" y="316" type="curve" smooth="yes"/>
      <point x="479" y="316"/>
      <point x="509" y="312"/>
      <point x="522" y="307" type="curve"/>
      <point x="532" y="316"/>
      <point x="538" y="329"/>
      <point x="538" y="345" type="curve" smooth="yes"/>
      <point x="538" y="377"/>
      <point x="502" y="391"/>
      <point x="471" y="391" type="curve" smooth="yes"/>
      <point x="419" y="391"/>
      <point x="389" y="365"/>
    </contour>
  </outline>
</glyph>
<glyph name="uni0D9E" format="1">
  <advance width="617"/>
  <unicode hex="0D9E"/>
  <outline>
    <contour>
      <point x="89" y="347" type="curve" smooth="yes"/>
      <point x="89" y="320"/>
      <point x="113" y="298"/>
      <point x="142" y="298" type="curve" smooth="yes"/>
      <point x="170" y="298"/>
      <point x="194" y="320"/>
      <point x="194" y="347" type="curve" smooth="yes"/>
      <point x="194" y="373"/>
      <point x="170" y="395"/>
      <point x="142" y="395" type="curve" smooth="yes"/>
      <point x="113" y="395"/>
      <point x="89" y="373"/>
    </contour>
    <contour>
      <point x="46" y="468" type="line"/>
      <point x="105" y="544"/>
      <point x="184" y="582"/>
      <point x="281" y="582" type="curve" smooth="yes"/>
      <point x="441" y="582"/>
      <point x="570" y="445"/>
      <point x="570" y="260" type="curve" smooth="yes"/>
      <point x="570" y="114"/>
      <point x="516" y="0"/>
      <point x="416" y="0" type="curve" smooth="yes"/>
      <point x="354" y="0"/>
      <point x="329" y="21"/>
      <point x="298" y="59" type="curve"/>
      <point x="267" y="20"/>
      <point x="233" y="0"/>
      <point x="188" y="0" type="curve" smooth="yes"/>
      <point x="107" y="0"/>
      <point x="51" y="60"/>
      <point x="51" y="140" type="curve" smooth="yes"/>
      <point x="51" y="212"/>
      <point x="109" y="259"/>
      <point x="179" y="259" type="curve" smooth="yes"/>
      <point x="215" y="259"/>
      <point x="244" y="252"/>
      <point x="280" y="252" type="curve" smooth="yes"/>
      <point x="326" y="252"/>
      <point x="342" y="276"/>
      <point x="342" y="310" type="curve" smooth="yes"/>
      <point x="342" y="381"/>
      <point x="264" y="410"/>
      <point x="214" y="410" type="curve" smooth="yes"/>
      <point x="199" y="410"/>
      <point x="191" y="409"/>
      <point x="183" y="408" type="curve"/>
      <point x="202" y="398"/>
      <point x="222" y="380"/>
      <point x="222" y="345" type="curve" smooth="yes"/>
      <point x="222" y="309"/>
      <point x="189" y="272"/>
      <point x="141" y="272" type="curve" smooth="yes"/>
      <point x="100" y="272"/>
      <point x="60" y="303"/>
      <point x="60" y="346" type="curve" smooth="yes"/>
      <point x="60" y="402"/>
      <point x="119" y="434"/>
      <point x="208" y="434" type="curve" smooth="yes"/>
      <point x="310" y="434"/>
      <point x="372" y="379"/>
      <point x="372" y="306" type="curve" smooth="yes"/>
      <point x="372" y="265"/>
      <point x="348" y="224"/>
      <point x="280" y="224" type="curve" smooth="yes"/>
      <point x="239" y="224"/>
      <point x="224" y="230"/>
      <point x="181" y="230" type="curve" smooth="yes"/>
      <point x="132" y="230"/>
      <point x="109" y="205"/>
      <point x="109" y="178" type="curve" smooth="yes"/>
      <point x="109" y="144"/>
      <point x="138" y="118"/>
      <point x="196" y="118" type="curve" smooth="yes"/>
      <point x="231" y="118"/>
      <point x="284" y="127"/>
      <point x="284" y="175" type="curve" smooth="yes"/>
      <point x="284" y="190" type="line"/>
      <point x="311" y="190" type="line"/>
      <point x="311" y="175" type="line" smooth="yes"/>
      <point x="311" y="129"/>
      <point x="357" y="118"/>
      <point x="394" y="118" type="curve" smooth="yes"/>
      <point x="470" y="118"/>
      <point x="509" y="193"/>
      <point x="509" y="304" type="curve" smooth="yes"/>
      <point x="509" y="430"/>
      <point x="425" y="557"/>
      <point x="278" y="557" type="curve" smooth="yes"/>
      <point x="199" y="557"/>
      <point x="133" y="527"/>
      <point x="79" y="468" type="curve"/>
    </contour>
  </outline>
</glyph>
<glyph name="si_Nnga" format="1">
  <advance width="749"/>
  <unicode hex="0D9F"/>
  <outline>
    <contour>
      <point x="151" y="207" type="curve" smooth="yes"/>
      <point x="151" y="330"/>
      <point x="226" y="432"/>
      <point x="337" y="432" type="curve" smooth="yes"/>
      <point x="341" y="432"/>
      <point x="346" y="431"/>
      <point x="350" y="431" type="curve"/>
      <point x="350" y="406" type="line"/>
      <point x="347" y="406"/>
      <point x="342" y="406"/>
      <point x="339" y="406" type="curve" smooth="yes"/>
      <point x="254" y="406"/>
      <point x="199" y="330"/>
      <point x="199" y="249" type="curve" smooth="yes"/>
      <point x="199" y="173"/>
      <point x="251" y="118"/>
      <point x="326" y="118" type="curve" smooth="yes"/>
      <point x="385" y="118"/>
      <point x="419" y="143"/>
      <point x="419" y="180" type="curve" smooth="yes"/>
      <point x="419" y="210"/>
      <point x="400" y="219"/>
      <point x="385" y="219" type="curve" smooth="yes"/>
      <point x="376" y="219"/>
      <point x="368" y="216"/>
      <point x="362" y="213" type="curve"/>
      <point x="361" y="207"/>
      <point x="360" y="196"/>
      <point x="360" y="193" type="curve"/>
      <point x="333" y="193" type="line"/>
      <point x="342" y="320"/>
      <point x="405" y="432"/>
      <point x="527" y="432" type="curve" smooth="yes"/>
      <point x="639" y="432"/>
      <point x="703" y="332"/>
      <point x="703" y="217" type="curve" smooth="yes"/>
      <point x="703" y="95"/>
      <point x="617" y="-1"/>
      <point x="486" y="-1" type="curve" smooth="yes"/>
      <point x="476" y="-1"/>
      <point x="466" y="0"/>
      <point x="455" y="1" type="curve"/>
      <point x="455" y="28" type="line"/>
      <point x="463" y="27"/>
      <point x="471" y="26"/>
      <point x="479" y="26" type="curve" smooth="yes"/>
      <point x="584" y="26"/>
      <point x="629" y="107"/>
      <point x="629" y="183" type="curve" smooth="yes"/>
      <point x="629" y="270"/>
      <point x="585" y="336"/>
      <point x="490" y="336" type="curve" smooth="yes"/>
      <point x="417" y="336"/>
      <point x="376" y="289"/>
      <point x="366" y="239" type="curve"/>
      <point x="373" y="243"/>
      <point x="380" y="244"/>
      <point x="387" y="244" type="curve" smooth="yes"/>
      <point x="436" y="244"/>
      <point x="469" y="202"/>
      <point x="469" y="136" type="curve" smooth="yes"/>
      <point x="469" y="56"/>
      <point x="412" y="-2"/>
      <point x="325" y="-2" type="curve" smooth="yes"/>
      <point x="214" y="-2"/>
      <point x="151" y="96"/>
    </contour>
    <contour>
      <point x="27" y="221" type="curve" smooth="yes"/>
      <point x="27" y="353"/>
      <point x="100" y="433"/>
      <point x="239" y="433" type="curve" smooth="yes"/>
      <point x="248" y="433"/>
      <point x="315" y="432"/>
      <point x="342" y="432" type="curve"/>
      <point x="321" y="420"/>
      <point x="268" y="413"/>
      <point x="256" y="408" type="curve"/>
      <point x="155" y="408"/>
      <point x="58" y="368"/>
      <point x="58" y="218" type="curve" smooth="yes"/>
      <point x="58" y="137"/>
      <point x="85" y="77"/>
      <point x="135" y="33" type="curve"/>
      <point x="135" y="0" type="line"/>
      <point x="69" y="33"/>
      <point x="27" y="120"/>
    </contour>
  </outline>
</glyph>
<glyph name="si_Ca" format="1">
  <advance width="597"/>
  <unicode hex="0DA0"/>
  <outline>
    <contour>
      <point x="64" y="165" type="curve" smooth="yes"/>
      <point x="64" y="196"/>
      <point x="74" y="228"/>
      <point x="97" y="248" type="curve" smooth="yes"/>
      <point x="113" y="262"/>
      <point x="132" y="273"/>
      <point x="158" y="278" type="curve"/>
      <point x="192" y="290"/>
      <point x="233" y="302"/>
      <point x="270" y="302" type="curve" smooth="yes"/>
      <point x="285" y="302" type="line"/>
      <point x="285" y="304"/>
      <point x="285" y="306"/>
      <point x="285" y="308" type="curve" smooth="yes"/>
      <point x="285" y="359"/>
      <point x="252" y="391"/>
      <point x="219" y="391" type="curve" smooth="yes"/>
      <point x="181" y="391"/>
      <point x="170" y="371"/>
      <point x="165" y="355" type="curve" smooth="yes"/>
      <point x="158" y="336"/>
      <point x="147" y="321"/>
      <point x="120" y="321" type="curve" smooth="yes"/>
      <point x="102" y="321"/>
      <point x="83" y="333"/>
      <point x="83" y="359" type="curve" smooth="yes"/>
      <point x="83" y="406"/>
      <point x="133" y="432"/>
      <point x="188" y="432" type="curve" smooth="yes"/>
      <point x="276" y="432"/>
      <point x="319" y="376"/>
      <point x="319" y="290" type="curve" smooth="yes"/>
      <point x="319" y="287"/>
      <point x="319" y="278"/>
      <point x="319" y="275" type="curve"/>
      <point x="264" y="275" type="line" smooth="yes"/>
      <point x="213" y="275"/>
      <point x="178" y="266"/>
      <point x="155" y="252" type="curve" smooth="yes"/>
      <point x="127" y="237"/>
      <point x="119" y="216"/>
      <point x="119" y="198" type="curve" smooth="yes"/>
      <point x="119" y="137"/>
      <point x="208" y="118"/>
      <point x="298" y="118" type="curve" smooth="yes"/>
      <point x="451" y="118"/>
      <point x="525" y="199"/>
      <point x="525" y="320" type="curve" smooth="yes"/>
      <point x="525" y="442"/>
      <point x="437" y="552"/>
      <point x="303" y="552" type="curve" smooth="yes"/>
      <point x="224" y="552"/>
      <point x="162" y="523"/>
      <point x="118" y="470" type="curve"/>
      <point x="84" y="470" type="line"/>
      <point x="133" y="540"/>
      <point x="205" y="577"/>
      <point x="303" y="577" type="curve" smooth="yes"/>
      <point x="463" y="577"/>
      <point x="575" y="443"/>
      <point x="575" y="274" type="curve" smooth="yes"/>
      <point x="575" y="114"/>
      <point x="478" y="0"/>
      <point x="295" y="0" type="curve" smooth="yes"/>
      <point x="174" y="0"/>
      <point x="64" y="46"/>
    </contour>
    <contour>
      <point x="13" y="268" type="curve"/>
      <point x="13" y="302" type="line"/>
      <point x="283" y="302" type="line"/>
      <point x="315" y="275" type="line"/>
      <point x="148" y="275" type="line" smooth="yes"/>
      <point x="77" y="274"/>
      <point x="29" y="271"/>
    </contour>
  </outline>
</glyph>
<glyph name="si_Cha" format="1">
  <advance width="598"/>
  <unicode hex="0DA1"/>
  <outline>
    <contour>
      <point x="33" y="170" type="curve" smooth="yes"/>
      <point x="33" y="249"/>
      <point x="96" y="312"/>
      <point x="208" y="312" type="curve" smooth="yes"/>
      <point x="212" y="312"/>
      <point x="222" y="312"/>
      <point x="226" y="311" type="curve"/>
      <point x="227" y="318"/>
      <point x="228" y="323"/>
      <point x="228" y="330" type="curve" smooth="yes"/>
      <point x="228" y="363"/>
      <point x="212" y="386"/>
      <point x="182" y="386" type="curve" smooth="yes"/>
      <point x="159" y="386"/>
      <point x="148" y="377"/>
      <point x="142" y="362" type="curve" smooth="yes"/>
      <point x="130" y="338"/>
      <point x="119" y="321"/>
      <point x="92" y="321" type="curve" smooth="yes"/>
      <point x="73" y="321"/>
      <point x="53" y="335"/>
      <point x="53" y="360" type="curve" smooth="yes"/>
      <point x="53" y="409"/>
      <point x="101" y="432"/>
      <point x="148" y="432" type="curve" smooth="yes"/>
      <point x="215" y="432"/>
      <point x="258" y="393"/>
      <point x="258" y="326" type="curve" smooth="yes"/>
      <point x="258" y="314"/>
      <point x="257" y="300"/>
      <point x="254" y="287" type="curve"/>
      <point x="246" y="288"/>
      <point x="238" y="289"/>
      <point x="229" y="289" type="curve" smooth="yes"/>
      <point x="110" y="289"/>
      <point x="86" y="236"/>
      <point x="86" y="207" type="curve" smooth="yes"/>
      <point x="86" y="138"/>
      <point x="189" y="116"/>
      <point x="292" y="116" type="curve" smooth="yes"/>
      <point x="398" y="116"/>
      <point x="498" y="136"/>
      <point x="498" y="202" type="curve" smooth="yes"/>
      <point x="498" y="242"/>
      <point x="470" y="288"/>
      <point x="355" y="288" type="curve" smooth="yes"/>
      <point x="333" y="288"/>
      <point x="298" y="285"/>
      <point x="284" y="284" type="curve"/>
      <point x="282" y="291"/>
      <point x="279" y="308"/>
      <point x="279" y="319" type="curve" smooth="yes"/>
      <point x="279" y="401"/>
      <point x="336" y="435"/>
      <point x="406" y="435" type="curve" smooth="yes"/>
      <point x="478" y="435"/>
      <point x="532" y="389"/>
      <point x="532" y="306" type="curve" smooth="yes"/>
      <point x="532" y="258"/>
      <point x="506" y="178"/>
      <point x="433" y="178" type="curve" smooth="yes"/>
      <point x="373" y="178"/>
      <point x="349" y="229"/>
      <point x="349" y="293" type="curve" smooth="yes"/>
      <point x="349" y="407"/>
      <point x="385" y="506"/>
      <point x="433" y="562" type="curve" smooth="yes"/>
      <point x="467" y="601"/>
      <point x="504" y="617"/>
      <point x="534" y="617" type="curve" smooth="yes"/>
      <point x="558" y="617"/>
      <point x="572" y="603"/>
      <point x="572" y="588" type="curve" smooth="yes"/>
      <point x="572" y="539"/>
      <point x="506" y="569"/>
      <point x="445" y="499" type="curve" smooth="yes"/>
      <point x="409" y="458"/>
      <point x="378" y="391"/>
      <point x="378" y="292" type="curve" smooth="yes"/>
      <point x="378" y="250"/>
      <point x="388" y="205"/>
      <point x="435" y="205" type="curve" smooth="yes"/>
      <point x="478" y="205"/>
      <point x="503" y="263"/>
      <point x="503" y="304" type="curve" smooth="yes"/>
      <point x="503" y="375"/>
      <point x="464" y="409"/>
      <point x="402" y="409" type="curve" smooth="yes"/>
      <point x="358" y="409"/>
      <point x="307" y="387"/>
      <point x="307" y="324" type="curve" smooth="yes"/>
      <point x="307" y="319"/>
      <point x="307" y="314"/>
      <point x="308" y="310" type="curve"/>
      <point x="315" y="311"/>
      <point x="334" y="312"/>
      <point x="350" y="312" type="curve" smooth="yes"/>
      <point x="388" y="312"/>
      <point x="434" y="309"/>
      <point x="473" y="291" type="curve" smooth="yes"/>
      <point x="517" y="271"/>
      <point x="549" y="228"/>
      <point x="549" y="168" type="curve" smooth="yes"/>
      <point x="549" y="45"/>
      <point x="424" y="0"/>
      <point x="298" y="0" type="curve" smooth="yes"/>
      <point x="160" y="0"/>
      <point x="33" y="44"/>
    </contour>
  </outline>
</glyph>
<glyph name="si_Ja" format="1">
  <advance width="598"/>
  <unicode hex="0DA2"/>
  <outline>
    <contour>
      <point x="33" y="170" type="curve" smooth="yes"/>
      <point x="33" y="249"/>
      <point x="96" y="312"/>
      <point x="208" y="312" type="curve" smooth="yes"/>
      <point x="226" y="312"/>
      <point x="226" y="312"/>
      <point x="234" y="311" type="curve"/>
      <point x="235" y="318"/>
      <point x="236" y="324"/>
      <point x="236" y="331" type="curve" smooth="yes"/>
      <point x="236" y="357"/>
      <point x="223" y="388"/>
      <point x="186" y="388" type="curve" smooth="yes"/>
      <point x="164" y="388"/>
      <point x="148" y="372"/>
      <point x="141" y="357" type="curve" smooth="yes"/>
      <point x="130" y="333"/>
      <point x="119" y="321"/>
      <point x="95" y="321" type="curve" smooth="yes"/>
      <point x="72" y="321"/>
      <point x="56" y="335"/>
      <point x="56" y="360" type="curve" smooth="yes"/>
      <point x="56" y="409"/>
      <point x="107" y="432"/>
      <point x="154" y="432" type="curve" smooth="yes"/>
      <point x="221" y="432"/>
      <point x="266" y="393"/>
      <point x="266" y="326" type="curve" smooth="yes"/>
      <point x="266" y="314"/>
      <point x="265" y="299"/>
      <point x="262" y="286" type="curve"/>
      <point x="250" y="287"/>
      <point x="238" y="288"/>
      <point x="229" y="288" type="curve" smooth="yes"/>
      <point x="110" y="288"/>
      <point x="87" y="239"/>
      <point x="87" y="206" type="curve" smooth="yes"/>
      <point x="87" y="138"/>
      <point x="189" y="118"/>
      <point x="292" y="118" type="curve" smooth="yes"/>
      <point x="398" y="118"/>
      <point x="494" y="140"/>
      <point x="494" y="209" type="curve" smooth="yes"/>
      <point x="494" y="242"/>
      <point x="470" y="288"/>
      <point x="355" y="288" type="curve" smooth="yes"/>
      <point x="333" y="288"/>
      <point x="314" y="286"/>
      <point x="300" y="285" type="curve"/>
      <point x="295" y="301"/>
      <point x="293" y="316"/>
      <point x="293" y="331" type="curve" smooth="yes"/>
      <point x="293" y="409"/>
      <point x="350" y="434"/>
      <point x="419" y="434" type="curve" smooth="yes"/>
      <point x="460" y="434"/>
      <point x="520" y="412"/>
      <point x="520" y="353" type="curve" smooth="yes"/>
      <point x="520" y="324"/>
      <point x="503" y="285"/>
      <point x="438" y="285" type="curve" smooth="yes"/>
      <point x="384" y="285"/>
      <point x="363" y="331"/>
      <point x="363" y="371" type="curve" smooth="yes"/>
      <point x="363" y="461"/>
      <point x="409" y="534"/>
      <point x="453" y="575" type="curve" smooth="yes"/>
      <point x="485" y="605"/>
      <point x="517" y="618"/>
      <point x="537" y="618" type="curve" smooth="yes"/>
      <point x="561" y="618"/>
      <point x="568" y="602"/>
      <point x="568" y="590" type="curve" smooth="yes"/>
      <point x="568" y="559"/>
      <point x="514" y="551"/>
      <point x="459" y="508" type="curve" smooth="yes"/>
      <point x="430" y="486"/>
      <point x="392" y="439"/>
      <point x="392" y="371" type="curve" smooth="yes"/>
      <point x="392" y="338"/>
      <point x="408" y="311"/>
      <point x="439" y="311" type="curve" smooth="yes"/>
      <point x="468" y="311"/>
      <point x="489" y="329"/>
      <point x="489" y="355" type="curve" smooth="yes"/>
      <point x="489" y="388"/>
      <point x="459" y="406"/>
      <point x="415" y="406" type="curve" smooth="yes"/>
      <point x="344" y="406"/>
      <point x="324" y="374"/>
      <point x="324" y="334" type="curve" smooth="yes"/>
      <point x="324" y="327"/>
      <point x="325" y="318"/>
      <point x="327" y="309" type="curve"/>
      <point x="335" y="310"/>
      <point x="343" y="311"/>
      <point x="356" y="311" type="curve" smooth="yes"/>
      <point x="447" y="311"/>
      <point x="549" y="283"/>
      <point x="549" y="168" type="curve" smooth="yes"/>
      <point x="549" y="45"/>
      <point x="424" y="0"/>
      <point x="298" y="0" type="curve" smooth="yes"/>
      <point x="160" y="0"/>
      <point x="33" y="44"/>
    </contour>
  </outline>
</glyph>
<glyph name="si_Tta" format="1">
  <advance width="603"/>
  <unicode hex="0DA7"/>
  <outline>
    <contour>
      <point x="32" y="208" type="curve" smooth="yes"/>
      <point x="32" y="323"/>
      <point x="126" y="391"/>
      <point x="232" y="391" type="curve" smooth="yes"/>
      <point x="259" y="391"/>
      <point x="292" y="386"/>
      <point x="321" y="375" type="curve"/>
      <point x="321" y="344" type="line"/>
      <point x="294" y="357"/>
      <point x="266" y="363"/>
      <point x="234" y="363" type="curve" smooth="yes"/>
      <point x="152" y="363"/>
      <point x="88" y="319"/>
      <point x="88" y="248" type="curve" smooth="yes"/>
      <point x="88" y="155"/>
      <point x="184" y="118"/>
      <point x="277" y="118" type="curve" smooth="yes"/>
      <point x="406" y="118"/>
      <point x="500" y="184"/>
      <point x="500" y="316" type="curve" smooth="yes"/>
      <point x="500" y="431"/>
      <point x="417" y="552"/>
      <point x="275" y="552" type="curve" smooth="yes"/>
      <point x="195" y="552"/>
      <point x="134" y="524"/>
      <point x="92" y="470" type="curve"/>
      <point x="57" y="470" type="line"/>
      <point x="104" y="539"/>
      <point x="177" y="577"/>
      <point x="273" y="577" type="curve" smooth="yes"/>
      <point x="446" y="577"/>
      <point x="557" y="433"/>
      <point x="557" y="271" type="curve" smooth="yes"/>
      <point x="557" y="115"/>
      <point x="447" y="-1"/>
      <point x="285" y="-1" type="curve" smooth="yes"/>
      <point x="133" y="-1"/>
      <point x="32" y="81"/>
    </contour>
  </outline>
</glyph>
<glyph name="uni0DA8" format="1">
  <advance width="614"/>
  <unicode hex="0DA8"/>
  <outline>
    <contour>
      <point x="33" y="195" type="curve" smooth="yes"/>
      <point x="33" y="288"/>
      <point x="86" y="364"/>
      <point x="152" y="387" type="curve" smooth="yes"/>
      <point x="173" y="394"/>
      <point x="196" y="398"/>
      <point x="221" y="398" type="curve"/>
      <point x="221" y="372" type="line"/>
      <point x="218" y="372"/>
      <point x="214" y="372"/>
      <point x="211" y="372" type="curve" smooth="yes"/>
      <point x="132" y="372"/>
      <point x="83" y="304"/>
      <point x="83" y="235" type="curve" smooth="yes"/>
      <point x="83" y="175"/>
      <point x="114" y="118"/>
      <point x="189" y="118" type="curve" smooth="yes"/>
      <point x="240" y="118"/>
      <point x="289" y="139"/>
      <point x="289" y="203" type="curve" smooth="yes"/>
      <point x="289" y="231" type="line"/>
      <point x="319" y="231" type="line"/>
      <point x="319" y="203" type="line" smooth="yes"/>
      <point x="319" y="139"/>
      <point x="366" y="118"/>
      <point x="415" y="118" type="curve" smooth="yes"/>
      <point x="511" y="118"/>
      <point x="542" y="203"/>
      <point x="542" y="269" type="curve" smooth="yes"/>
      <point x="542" y="332"/>
      <point x="524" y="386"/>
      <point x="503" y="418" type="curve"/>
      <point x="489" y="388"/>
      <point x="459" y="367"/>
      <point x="416" y="367" type="curve" smooth="yes"/>
      <point x="353" y="367"/>
      <point x="316" y="422"/>
      <point x="316" y="488" type="curve" smooth="yes"/>
      <point x="316" y="538"/>
      <point x="331" y="574"/>
      <point x="358" y="605" type="curve"/>
      <point x="419" y="572"/>
      <point x="490" y="500"/>
      <point x="526" y="438" type="curve" smooth="yes"/>
      <point x="565" y="371"/>
      <point x="589" y="307"/>
      <point x="589" y="232" type="curve" smooth="yes"/>
      <point x="589" y="130"/>
      <point x="548" y="0"/>
      <point x="422" y="0" type="curve" smooth="yes"/>
      <point x="373" y="0"/>
      <point x="333" y="20"/>
      <point x="303" y="59" type="curve"/>
      <point x="272" y="20"/>
      <point x="235" y="0"/>
      <point x="190" y="0" type="curve" smooth="yes"/>
      <point x="88" y="0"/>
      <point x="33" y="96"/>
    </contour>
    <contour>
      <point x="347" y="491" type="curve" smooth="yes"/>
      <point x="347" y="443"/>
      <point x="367" y="404"/>
      <point x="423" y="404" type="curve" smooth="yes"/>
      <point x="446" y="404"/>
      <point x="474" y="415"/>
      <point x="484" y="448" type="curve"/>
      <point x="454" y="493"/>
      <point x="405" y="538"/>
      <point x="368" y="566" type="curve"/>
      <point x="356" y="548"/>
      <point x="347" y="525"/>
    </contour>
  </outline>
</glyph>
<glyph name="uni0DA9" format="1">
  <advance width="647"/>
  <unicode hex="0DA9"/>
  <outline>
    <contour>
      <point x="15" y="286" type="line"/>
      <point x="15" y="315" type="line"/>
      <point x="259" y="315" type="line"/>
      <point x="257" y="353"/>
      <point x="230" y="389"/>
      <point x="197" y="389" type="curve" smooth="yes"/>
      <point x="185" y="389"/>
      <point x="168" y="387"/>
      <point x="153" y="361" type="curve" smooth="yes"/>
      <point x="143" y="343"/>
      <point x="128" y="336"/>
      <point x="113" y="336" type="curve" smooth="yes"/>
      <point x="90" y="336"/>
      <point x="74" y="352"/>
      <point x="74" y="373" type="curve" smooth="yes"/>
      <point x="74" y="413"/>
      <point x="122" y="432"/>
      <point x="164" y="432" type="curve" smooth="yes"/>
      <point x="244" y="432"/>
      <point x="295" y="381"/>
      <point x="295" y="286" type="curve"/>
      <point x="223" y="286" type="line" smooth="yes"/>
      <point x="130" y="286"/>
      <point x="101" y="233"/>
      <point x="101" y="198" type="curve" smooth="yes"/>
      <point x="101" y="151"/>
      <point x="141" y="118"/>
      <point x="201" y="118" type="curve" smooth="yes"/>
      <point x="261" y="118"/>
      <point x="298" y="140"/>
      <point x="298" y="182" type="curve" smooth="yes"/>
      <point x="298" y="207" type="line"/>
      <point x="327" y="207" type="line"/>
      <point x="327" y="182" type="line" smooth="yes"/>
      <point x="327" y="142"/>
      <point x="360" y="118"/>
      <point x="417" y="118" type="curve" smooth="yes"/>
      <point x="499" y="118"/>
      <point x="546" y="189"/>
      <point x="546" y="287" type="curve" smooth="yes"/>
      <point x="546" y="424"/>
      <point x="459" y="555"/>
      <point x="298" y="555" type="curve" smooth="yes"/>
      <point x="218" y="555"/>
      <point x="154" y="523"/>
      <point x="108" y="468" type="curve"/>
      <point x="73" y="468" type="line"/>
      <point x="127" y="546"/>
      <point x="210" y="582"/>
      <point x="304" y="582" type="curve" smooth="yes"/>
      <point x="479" y="582"/>
      <point x="598" y="444"/>
      <point x="598" y="258" type="curve" smooth="yes"/>
      <point x="598" y="115"/>
      <point x="547" y="0"/>
      <point x="428" y="0" type="curve" smooth="yes"/>
      <point x="363" y="0"/>
      <point x="335" y="29"/>
      <point x="313" y="59" type="curve"/>
      <point x="283" y="22"/>
      <point x="250" y="0"/>
      <point x="199" y="0" type="curve" smooth="yes"/>
      <point x="98" y="0"/>
      <point x="46" y="81"/>
      <point x="46" y="162" type="curve" smooth="yes"/>
      <point x="46" y="212"/>
      <point x="71" y="262"/>
      <point x="125" y="286" type="curve"/>
    </contour>
  </outline>
</glyph>
<glyph name="uni0DAB" format="1">
  <advance width="963"/>
  <unicode hex="0DAB"/>
  <outline>
    <contour>
      <point x="22" y="178" type="line"/>
      <point x="226" y="317"/>
      <point x="480" y="437"/>
      <point x="658" y="495" type="curve" smooth="yes"/>
      <point x="723" y="516"/>
      <point x="773" y="528"/>
      <point x="812" y="528" type="curve" smooth="yes"/>
      <point x="846" y="528"/>
      <point x="863" y="510"/>
      <point x="863" y="490" type="curve" smooth="yes"/>
      <point x="863" y="475"/>
      <point x="853" y="456"/>
      <point x="822" y="452" type="curve" smooth="yes"/>
      <point x="789" y="449"/>
      <point x="703" y="440"/>
      <point x="627" y="425" type="curve" smooth="yes"/>
      <point x="440" y="386"/>
      <point x="257" y="292"/>
      <point x="116" y="207" type="curve"/>
      <point x="177" y="207"/>
      <point x="195" y="111"/>
      <point x="341" y="111" type="curve" smooth="yes"/>
      <point x="456" y="111"/>
      <point x="510" y="181"/>
      <point x="510" y="259" type="curve" smooth="yes"/>
      <point x="510" y="320"/>
      <point x="467" y="405"/>
      <point x="356" y="405" type="curve" smooth="yes"/>
      <point x="270" y="405"/>
      <point x="201" y="364"/>
      <point x="201" y="294" type="curve" smooth="yes"/>
      <point x="201" y="219"/>
      <point x="267" y="194"/>
      <point x="322" y="194" type="curve"/>
      <point x="405" y="189" type="line"/>
      <point x="384" y="175"/>
      <point x="362" y="166"/>
      <point x="321" y="166" type="curve" smooth="yes"/>
      <point x="232" y="166"/>
      <point x="170" y="214"/>
      <point x="170" y="289" type="curve" smooth="yes"/>
      <point x="170" y="383"/>
      <point x="255" y="433"/>
      <point x="359" y="433" type="curve" smooth="yes"/>
      <point x="440" y="433"/>
      <point x="584" y="390"/>
      <point x="584" y="213" type="curve" smooth="yes"/>
      <point x="584" y="114"/>
      <point x="520" y="0"/>
      <point x="365" y="0" type="curve" smooth="yes"/>
      <point x="167" y="0"/>
      <point x="180" y="180"/>
      <point x="99" y="180" type="curve" smooth="yes"/>
      <point x="71" y="180"/>
      <point x="54" y="167"/>
      <point x="33" y="153" type="curve"/>
    </contour>
    <contour>
      <point x="266" y="260" type="curve" smooth="yes"/>
      <point x="266" y="309"/>
      <point x="306" y="348"/>
      <point x="354" y="348" type="curve" smooth="yes"/>
      <point x="403" y="348"/>
      <point x="442" y="309"/>
      <point x="442" y="260" type="curve" smooth="yes"/>
      <point x="442" y="212"/>
      <point x="403" y="173"/>
      <point x="354" y="173" type="curve" smooth="yes"/>
      <point x="306" y="173"/>
      <point x="266" y="212"/>
    </contour>
    <contour>
      <point x="296" y="261" type="curve" smooth="yes"/>
      <point x="296" y="229"/>
      <point x="322" y="203"/>
      <point x="354" y="203" type="curve" smooth="yes"/>
      <point x="386" y="203"/>
      <point x="411" y="229"/>
      <point x="411" y="261" type="curve" smooth="yes"/>
      <point x="411" y="293"/>
      <point x="386" y="318"/>
      <point x="354" y="318" type="curve" smooth="yes"/>
      <point x="322" y="318"/>
      <point x="296" y="293"/>
    </contour>
    <contour>
      <point x="549" y="161" type="curve" smooth="yes"/>
      <point x="549" y="230"/>
      <point x="591" y="286"/>
      <point x="645" y="286" type="curve" smooth="yes"/>
      <point x="678" y="286"/>
      <point x="703" y="274"/>
      <point x="719" y="251" type="curve"/>
      <point x="723" y="300"/>
      <point x="752" y="348"/>
      <point x="813" y="348" type="curve" smooth="yes"/>
      <point x="882" y="348"/>
      <point x="915" y="265"/>
      <point x="915" y="168" type="curve" smooth="yes"/>
      <point x="915" y="73"/>
      <point x="883" y="-1"/>
      <point x="800" y="-1" type="curve" smooth="yes"/>
      <point x="748" y="-1"/>
      <point x="719" y="33"/>
      <point x="714" y="68" type="curve"/>
      <point x="697" y="48"/>
      <point x="674" y="36"/>
      <point x="645" y="36" type="curve" smooth="yes"/>
      <point x="591" y="36"/>
      <point x="549" y="92"/>
    </contour>
    <contour>
      <point x="578" y="162" type="curve" smooth="yes"/>
      <point x="578" y="111"/>
      <point x="607" y="69"/>
      <point x="643" y="69" type="curve" smooth="yes"/>
      <point x="685" y="69"/>
      <point x="709" y="106"/>
      <point x="709" y="162" type="curve" smooth="yes"/>
      <point x="709" y="221"/>
      <point x="688" y="255"/>
      <point x="643" y="255" type="curve" smooth="yes"/>
      <point x="607" y="255"/>
      <point x="578" y="213"/>
    </contour>
    <contour>
      <point x="735" y="105" type="curve" smooth="yes"/>
      <point x="735" y="54"/>
      <point x="768" y="45"/>
      <point x="782" y="45" type="curve" smooth="yes"/>
      <point x="823" y="45"/>
      <point x="831" y="95"/>
      <point x="831" y="169" type="curve" smooth="yes"/>
      <point x="831" y="245"/>
      <point x="818" y="293"/>
      <point x="786" y="293" type="curve" smooth="yes"/>
      <point x="756" y="293"/>
      <point x="742" y="256"/>
      <point x="739" y="195" type="curve" smooth="yes"/>
      <point x="741" y="185"/>
      <point x="741" y="173"/>
      <point x="741" y="161" type="curve" smooth="yes"/>
      <point x="741" y="144"/>
      <point x="739" y="128"/>
      <point x="735" y="113" type="curve" smooth="yes"/>
      <point x="735" y="110"/>
      <point x="735" y="108"/>
    </contour>
  </outline>
</glyph>
<glyph name="uni0DAF" format="1">
  <advance width="456"/>
  <unicode hex="0DAF"/>
  <outline>
    <contour>
      <point x="31" y="169" type="curve" smooth="yes"/>
      <point x="31" y="274"/>
      <point x="104" y="317"/>
      <point x="223" y="317" type="curve" smooth="yes"/>
      <point x="341" y="317" type="line"/>
      <point x="332" y="363"/>
      <point x="302" y="392"/>
      <point x="265" y="392" type="curve" smooth="yes"/>
      <point x="246" y="392"/>
      <point x="232" y="381"/>
      <point x="223" y="363" type="curve" smooth="yes"/>
      <point x="213" y="341"/>
      <point x="196" y="334"/>
      <point x="178" y="334" type="curve" smooth="yes"/>
      <point x="153" y="334"/>
      <point x="136" y="350"/>
      <point x="136" y="371" type="curve" smooth="yes"/>
      <point x="136" y="407"/>
      <point x="177" y="433"/>
      <point x="232" y="433" type="curve" smooth="yes"/>
      <point x="318" y="433"/>
      <point x="362" y="389"/>
      <point x="379" y="292" type="curve"/>
      <point x="293" y="292" type="line" smooth="yes"/>
      <point x="205" y="292"/>
      <point x="160" y="257"/>
      <point x="160" y="173" type="curve" smooth="yes"/>
      <point x="160" y="89"/>
      <point x="217" y="39"/>
      <point x="278" y="39" type="curve" smooth="yes"/>
      <point x="313" y="39"/>
      <point x="342" y="47"/>
      <point x="382" y="93" type="curve"/>
      <point x="407" y="75" type="line"/>
      <point x="376" y="39"/>
      <point x="326" y="-20"/>
      <point x="326" y="-96" type="curve" smooth="yes"/>
      <point x="326" y="-146"/>
      <point x="346" y="-189"/>
      <point x="409" y="-207" type="curve"/>
      <point x="409" y="-238" type="line"/>
      <point x="391" y="-242"/>
      <point x="370" y="-245"/>
      <point x="351" y="-245" type="curve" smooth="yes"/>
      <point x="274" y="-244"/>
      <point x="239" y="-195"/>
      <point x="239" y="-138" type="curve" smooth="yes"/>
      <point x="239" y="-87"/>
      <point x="269" y="-44"/>
      <point x="316" y="9" type="curve"/>
      <point x="288" y="1"/>
      <point x="261" y="-1"/>
      <point x="234" y="-1" type="curve" smooth="yes"/>
      <point x="103" y="-1"/>
      <point x="31" y="69"/>
    </contour>
  </outline>
</glyph>
<glyph name="uni0DB3" format="1">
  <advance width="534"/>
  <unicode hex="0DB3"/>
  <outline>
    <contour>
      <point x="115" y="169" type="curve" smooth="yes"/>
      <point x="115" y="274"/>
      <point x="188" y="317"/>
      <point x="307" y="317" type="curve" smooth="yes"/>
      <point x="425" y="317" type="line"/>
      <point x="415" y="363"/>
      <point x="381" y="391"/>
      <point x="345" y="391" type="curve" smooth="yes"/>
      <point x="326" y="391"/>
      <point x="311" y="380"/>
      <point x="302" y="363" type="curve" smooth="yes"/>
      <point x="292" y="341"/>
      <point x="276" y="334"/>
      <point x="257" y="334" type="curve" smooth="yes"/>
      <point x="232" y="334"/>
      <point x="216" y="350"/>
      <point x="216" y="371" type="curve" smooth="yes"/>
      <point x="216" y="408"/>
      <point x="256" y="433"/>
      <point x="310" y="433" type="curve" smooth="yes"/>
      <point x="395" y="433"/>
      <point x="445" y="389"/>
      <point x="463" y="292" type="curve"/>
      <point x="377" y="292" type="line" smooth="yes"/>
      <point x="289" y="292"/>
      <point x="244" y="257"/>
      <point x="244" y="173" type="curve" smooth="yes"/>
      <point x="244" y="89"/>
      <point x="301" y="39"/>
      <point x="362" y="39" type="curve" smooth="yes"/>
      <point x="397" y="39"/>
      <point x="426" y="47"/>
      <point x="466" y="93" type="curve"/>
      <point x="491" y="75" type="line"/>
      <point x="460" y="39"/>
      <point x="410" y="-20"/>
      <point x="410" y="-96" type="curve" smooth="yes"/>
      <point x="410" y="-146"/>
      <point x="430" y="-189"/>
      <point x="493" y="-207" type="curve"/>
      <point x="493" y="-238" type="line"/>
      <point x="475" y="-242"/>
      <point x="454" y="-245"/>
      <point x="435" y="-245" type="curve" smooth="yes"/>
      <point x="358" y="-244"/>
      <point x="323" y="-195"/>
      <point x="323" y="-138" type="curve" smooth="yes"/>
      <point x="323" y="-87"/>
      <point x="353" y="-44"/>
      <point x="400" y="9" type="curve"/>
      <point x="372" y="1"/>
      <point x="345" y="-1"/>
      <point x="318" y="-1" type="curve" smooth="yes"/>
      <point x="187" y="-1"/>
      <point x="115" y="69"/>
    </contour>
    <contour>
      <point x="27" y="221" type="curve" smooth="yes"/>
      <point x="27" y="342"/>
      <point x="98" y="436"/>
      <point x="262" y="436" type="curve" smooth="yes"/>
      <point x="282" y="436"/>
      <point x="315" y="435"/>
      <point x="346" y="429" type="curve"/>
      <point x="327" y="418"/>
      <point x="265" y="411"/>
      <point x="246" y="406" type="curve"/>
      <point x="158" y="403"/>
      <point x="58" y="361"/>
      <point x="58" y="218" type="curve" smooth="yes"/>
      <point x="58" y="137"/>
      <point x="85" y="77"/>
      <point x="135" y="33" type="curve"/>
      <point x="135" y="0" type="line"/>
      <point x="69" y="33"/>
      <point x="27" y="120"/>
    </contour>
  </outline>
</glyph>
<glyph name="si_Pa" format="1">
  <advance width="616"/>
  <unicode hex="0DB4"/>
  <outline>
    <contour>
      <point x="31" y="184" type="curve" smooth="yes"/>
      <point x="31" y="275"/>
      <point x="99" y="327"/>
      <point x="207" y="327" type="curve" smooth="yes"/>
      <point x="220" y="327"/>
      <point x="230" y="326"/>
      <point x="243" y="325" type="curve"/>
      <point x="243" y="329"/>
      <point x="244" y="332"/>
      <point x="244" y="336" type="curve" smooth="yes"/>
      <point x="244" y="376"/>
      <point x="218" y="392"/>
      <point x="192" y="392" type="curve" smooth="yes"/>
      <point x="163" y="392"/>
      <point x="149" y="377"/>
      <point x="144" y="359" type="curve" smooth="yes"/>
      <point x="138" y="341"/>
      <point x="122" y="327"/>
      <point x="96" y="327" type="curve" smooth="yes"/>
      <point x="76" y="327"/>
      <point x="55" y="338"/>
      <point x="55" y="366" type="curve" smooth="yes"/>
      <point x="55" y="408"/>
      <point x="103" y="434"/>
      <point x="158" y="434" type="curve" smooth="yes"/>
      <point x="231" y="434"/>
      <point x="275" y="401"/>
      <point x="275" y="334" type="curve" smooth="yes"/>
      <point x="275" y="323"/>
      <point x="274" y="310"/>
      <point x="271" y="297" type="curve"/>
      <point x="253" y="299"/>
      <point x="218" y="301"/>
      <point x="217" y="301" type="curve" smooth="yes"/>
      <point x="143" y="301"/>
      <point x="87" y="275"/>
      <point x="87" y="221" type="curve" smooth="yes"/>
      <point x="87" y="142"/>
      <point x="202" y="118"/>
      <point x="307" y="118" type="curve" smooth="yes"/>
      <point x="407" y="118"/>
      <point x="518" y="148"/>
      <point x="518" y="228" type="curve" smooth="yes"/>
      <point x="518" y="277"/>
      <point x="469" y="303"/>
      <point x="394" y="303" type="curve" smooth="yes"/>
      <point x="371" y="303"/>
      <point x="347" y="300"/>
      <point x="324" y="296" type="curve"/>
      <point x="322" y="307"/>
      <point x="321" y="318"/>
      <point x="321" y="328" type="curve" smooth="yes"/>
      <point x="321" y="397"/>
      <point x="366" y="433"/>
      <point x="439" y="433" type="curve" smooth="yes"/>
      <point x="505" y="433"/>
      <point x="541" y="393"/>
      <point x="541" y="354" type="curve" smooth="yes"/>
      <point x="541" y="334"/>
      <point x="533" y="317"/>
      <point x="514" y="303" type="curve"/>
      <point x="554" y="279"/>
      <point x="574" y="241"/>
      <point x="574" y="186" type="curve" smooth="yes"/>
      <point x="574" y="56"/>
      <point x="448" y="0"/>
      <point x="307" y="0" type="curve" smooth="yes"/>
      <point x="159" y="0"/>
      <point x="31" y="46"/>
    </contour>
    <contour>
      <point x="354" y="336" type="curve" smooth="yes"/>
      <point x="354" y="332"/>
      <point x="354" y="329"/>
      <point x="355" y="325" type="curve"/>
      <point x="372" y="327"/>
      <point x="387" y="328"/>
      <point x="403" y="328" type="curve" smooth="yes"/>
      <point x="436" y="328"/>
      <point x="463" y="324"/>
      <point x="488" y="315" type="curve"/>
      <point x="499" y="326"/>
      <point x="503" y="338"/>
      <point x="503" y="351" type="curve" smooth="yes"/>
      <point x="503" y="380"/>
      <point x="479" y="404"/>
      <point x="432" y="404" type="curve" smooth="yes"/>
      <point x="390" y="404"/>
      <point x="354" y="381"/>
    </contour>
  </outline>
</glyph>
<glyph name="uni0DB5" format="1">
  <advance width="582"/>
  <unicode hex="0DB5"/>
  <outline>
    <contour>
      <point x="33" y="165" type="curve" smooth="yes"/>
      <point x="33" y="275"/>
      <point x="123" y="309"/>
      <point x="234" y="309" type="curve" smooth="yes"/>
      <point x="248" y="309" type="line"/>
      <point x="248" y="311"/>
      <point x="248" y="313"/>
      <point x="248" y="315" type="curve" smooth="yes"/>
      <point x="248" y="357"/>
      <point x="217" y="391"/>
      <point x="181" y="391" type="curve" smooth="yes"/>
      <point x="153" y="391"/>
      <point x="138" y="371"/>
      <point x="133" y="355" type="curve" smooth="yes"/>
      <point x="125" y="333"/>
      <point x="114" y="322"/>
      <point x="89" y="322" type="curve" smooth="yes"/>
      <point x="72" y="322"/>
      <point x="52" y="333"/>
      <point x="52" y="359" type="curve" smooth="yes"/>
      <point x="52" y="406"/>
      <point x="102" y="432"/>
      <point x="157" y="432" type="curve" smooth="yes"/>
      <point x="245" y="432"/>
      <point x="281" y="364"/>
      <point x="281" y="297" type="curve" smooth="yes"/>
      <point x="281" y="294"/>
      <point x="281" y="286"/>
      <point x="281" y="283" type="curve"/>
      <point x="220" y="283" type="line" smooth="yes"/>
      <point x="146" y="283"/>
      <point x="91" y="257"/>
      <point x="91" y="202" type="curve" smooth="yes"/>
      <point x="91" y="137"/>
      <point x="184" y="118"/>
      <point x="267" y="118" type="curve" smooth="yes"/>
      <point x="420" y="118"/>
      <point x="489" y="190"/>
      <point x="489" y="290" type="curve" smooth="yes"/>
      <point x="489" y="342"/>
      <point x="477" y="382"/>
      <point x="459" y="411" type="curve"/>
      <point x="444" y="379"/>
      <point x="414" y="359"/>
      <point x="371" y="359" type="curve" smooth="yes"/>
      <point x="308" y="359"/>
      <point x="271" y="414"/>
      <point x="271" y="480" type="curve" smooth="yes"/>
      <point x="271" y="530"/>
      <point x="286" y="566"/>
      <point x="313" y="597" type="curve"/>
      <point x="374" y="564"/>
      <point x="445" y="492"/>
      <point x="481" y="430" type="curve" smooth="yes"/>
      <point x="520" y="363"/>
      <point x="533" y="315"/>
      <point x="533" y="245" type="curve" smooth="yes"/>
      <point x="533" y="117"/>
      <point x="447" y="0"/>
      <point x="264" y="0" type="curve" smooth="yes"/>
      <point x="143" y="0"/>
      <point x="33" y="46"/>
    </contour>
    <contour>
      <point x="304" y="487" type="curve" smooth="yes"/>
      <point x="304" y="438"/>
      <point x="333" y="402"/>
      <point x="381" y="402" type="curve" smooth="yes"/>
      <point x="401" y="402"/>
      <point x="428" y="413"/>
      <point x="438" y="441" type="curve"/>
      <point x="408" y="485"/>
      <point x="360" y="530"/>
      <point x="322" y="558" type="curve"/>
      <point x="313" y="541"/>
      <point x="304" y="518"/>
    </contour>
  </outline>
</glyph>
<glyph name="uni0DB6" format="1">
  <advance width="619"/>
  <unicode hex="0DB6"/>
  <outline>
    <contour>
      <point x="102" y="76" type="curve" smooth="yes"/>
      <point x="102" y="50"/>
      <point x="124" y="28"/>
      <point x="150" y="28" type="curve" smooth="yes"/>
      <point x="176" y="28"/>
      <point x="198" y="50"/>
      <point x="198" y="76" type="curve" smooth="yes"/>
      <point x="198" y="102"/>
      <point x="176" y="124"/>
      <point x="150" y="124" type="curve" smooth="yes"/>
      <point x="124" y="124"/>
      <point x="102" y="102"/>
    </contour>
    <contour>
      <point x="33" y="187" type="curve" smooth="yes"/>
      <point x="33" y="314"/>
      <point x="123" y="396"/>
      <point x="241" y="396" type="curve" smooth="yes"/>
      <point x="333" y="396"/>
      <point x="410" y="351"/>
      <point x="410" y="263" type="curve" smooth="yes"/>
      <point x="410" y="149"/>
      <point x="296" y="173"/>
      <point x="296" y="119" type="curve" smooth="yes"/>
      <point x="296" y="97"/>
      <point x="318" y="91"/>
      <point x="339" y="91" type="curve" smooth="yes"/>
      <point x="441" y="91"/>
      <point x="512" y="221"/>
      <point x="512" y="342" type="curve" smooth="yes"/>
      <point x="512" y="468"/>
      <point x="430" y="559"/>
      <point x="292" y="559" type="curve" smooth="yes"/>
      <point x="198" y="559"/>
      <point x="135" y="529"/>
      <point x="96" y="470" type="curve"/>
      <point x="64" y="470" type="line"/>
      <point x="99" y="542"/>
      <point x="179" y="585"/>
      <point x="292" y="585" type="curve" smooth="yes"/>
      <point x="470" y="585"/>
      <point x="575" y="465"/>
      <point x="575" y="284" type="curve" smooth="yes"/>
      <point x="575" y="141"/>
      <point x="518" y="-2"/>
      <point x="381" y="-2" type="curve" smooth="yes"/>
      <point x="308" y="-2"/>
      <point x="263" y="45"/>
      <point x="263" y="104" type="curve" smooth="yes"/>
      <point x="263" y="189"/>
      <point x="349" y="167"/>
      <point x="349" y="232" type="curve" smooth="yes"/>
      <point x="349" y="266"/>
      <point x="309" y="290"/>
      <point x="237" y="290" type="curve" smooth="yes"/>
      <point x="146" y="290"/>
      <point x="68" y="236"/>
      <point x="68" y="146" type="curve" smooth="yes"/>
      <point x="68" y="132"/>
      <point x="71" y="105"/>
      <point x="77" y="91" type="curve"/>
      <point x="81" y="126"/>
      <point x="109" y="153"/>
      <point x="150" y="153" type="curve" smooth="yes"/>
      <point x="193" y="153"/>
      <point x="229" y="119"/>
      <point x="229" y="77" type="curve" smooth="yes"/>
      <point x="229" y="29"/>
      <point x="190" y="-1"/>
      <point x="150" y="-1" type="curve" smooth="yes"/>
      <point x="68" y="-1"/>
      <point x="33" y="91"/>
    </contour>
  </outline>
</glyph>
<glyph name="uni0DB7" format="1">
  <advance width="670"/>
  <unicode hex="0DB7"/>
  <outline>
    <contour>
      <point x="6" y="269" type="curve"/>
      <point x="6" y="303" type="line"/>
      <point x="214" y="303" type="line"/>
      <point x="171" y="276" type="line"/>
      <point x="140" y="276" type="line" smooth="yes"/>
      <point x="69" y="275"/>
      <point x="22" y="272"/>
    </contour>
    <contour>
      <point x="49" y="155" type="curve" smooth="yes"/>
      <point x="49" y="248"/>
      <point x="141" y="303"/>
      <point x="215" y="303" type="curve" smooth="yes"/>
      <point x="218" y="303"/>
      <point x="217" y="303"/>
      <point x="221" y="303" type="curve"/>
      <point x="221" y="343"/>
      <point x="197" y="380"/>
      <point x="165" y="380" type="curve" smooth="yes"/>
      <point x="149" y="380"/>
      <point x="135" y="373"/>
      <point x="127" y="353" type="curve" smooth="yes"/>
      <point x="120" y="335"/>
      <point x="105" y="324"/>
      <point x="87" y="324" type="curve" smooth="yes"/>
      <point x="66" y="324"/>
      <point x="49" y="338"/>
      <point x="49" y="364" type="curve" smooth="yes"/>
      <point x="49" y="394"/>
      <point x="78" y="432"/>
      <point x="134" y="432" type="curve" smooth="yes"/>
      <point x="213" y="432"/>
      <point x="255" y="360"/>
      <point x="255" y="277" type="curve"/>
      <point x="243" y="278"/>
      <point x="232" y="279"/>
      <point x="224" y="279" type="curve" smooth="yes"/>
      <point x="153" y="279"/>
      <point x="102" y="245"/>
      <point x="102" y="197" type="curve" smooth="yes"/>
      <point x="102" y="140"/>
      <point x="166" y="117"/>
      <point x="227" y="117" type="curve" smooth="yes"/>
      <point x="274" y="117"/>
      <point x="338" y="135"/>
      <point x="338" y="182" type="curve" smooth="yes"/>
      <point x="338" y="204"/>
      <point x="326" y="214"/>
      <point x="312" y="214" type="curve" smooth="yes"/>
      <point x="298" y="214"/>
      <point x="286" y="206"/>
      <point x="279" y="185" type="curve"/>
      <point x="255" y="194" type="line"/>
      <point x="264" y="319"/>
      <point x="345" y="432"/>
      <point x="446" y="432" type="curve" smooth="yes"/>
      <point x="558" y="432"/>
      <point x="621" y="329"/>
      <point x="621" y="211" type="curve" smooth="yes"/>
      <point x="621" y="92"/>
      <point x="532" y="-1"/>
      <point x="409" y="-1" type="curve" smooth="yes"/>
      <point x="396" y="-1"/>
      <point x="382" y="0"/>
      <point x="368" y="2" type="curve"/>
      <point x="368" y="30" type="line"/>
      <point x="380" y="28"/>
      <point x="392" y="27"/>
      <point x="404" y="27" type="curve" smooth="yes"/>
      <point x="496" y="27"/>
      <point x="532" y="106"/>
      <point x="532" y="175" type="curve" smooth="yes"/>
      <point x="532" y="249"/>
      <point x="493" y="329"/>
      <point x="403" y="329" type="curve" smooth="yes"/>
      <point x="328" y="329"/>
      <point x="302" y="281"/>
      <point x="288" y="233" type="curve"/>
      <point x="298" y="239"/>
      <point x="307" y="240"/>
      <point x="317" y="240" type="curve" smooth="yes"/>
      <point x="357" y="240"/>
      <point x="382" y="199"/>
      <point x="382" y="145" type="curve" smooth="yes"/>
      <point x="382" y="53"/>
      <point x="311" y="-1"/>
      <point x="217" y="-1" type="curve" smooth="yes"/>
      <point x="119" y="-1"/>
      <point x="49" y="61"/>
    </contour>
  </outline>
</glyph>
<glyph name="si_Ma" format="1">
  <advance width="634"/>
  <unicode hex="0DB8"/>
  <outline>
    <contour>
      <point x="265" y="352" type="curve" smooth="yes"/>
      <point x="265" y="326"/>
      <point x="287" y="304"/>
      <point x="313" y="304" type="curve" smooth="yes"/>
      <point x="339" y="304"/>
      <point x="361" y="326"/>
      <point x="361" y="352" type="curve" smooth="yes"/>
      <point x="361" y="378"/>
      <point x="339" y="400"/>
      <point x="313" y="400" type="curve" smooth="yes"/>
      <point x="287" y="400"/>
      <point x="265" y="378"/>
    </contour>
    <contour>
      <point x="33" y="250" type="curve" smooth="yes"/>
      <point x="33" y="339"/>
      <point x="79" y="432"/>
      <point x="156" y="432" type="curve" smooth="yes"/>
      <point x="205" y="432"/>
      <point x="210" y="399"/>
      <point x="210" y="376" type="curve" smooth="yes"/>
      <point x="210" y="349"/>
      <point x="204" y="342"/>
      <point x="204" y="307" type="curve" smooth="yes"/>
      <point x="204" y="257"/>
      <point x="245" y="226"/>
      <point x="300" y="226" type="curve" smooth="yes"/>
      <point x="360" y="226"/>
      <point x="401" y="258"/>
      <point x="401" y="318" type="curve" smooth="yes"/>
      <point x="401" y="346"/>
      <point x="392" y="359"/>
      <point x="387" y="366" type="curve"/>
      <point x="389" y="356"/>
      <point x="389" y="351"/>
      <point x="389" y="343" type="curve" smooth="yes"/>
      <point x="389" y="306"/>
      <point x="361" y="271"/>
      <point x="313" y="271" type="curve" smooth="yes"/>
      <point x="262" y="271"/>
      <point x="233" y="315"/>
      <point x="233" y="351" type="curve" smooth="yes"/>
      <point x="233" y="397"/>
      <point x="270" y="432"/>
      <point x="318" y="432" type="curve" smooth="yes"/>
      <point x="387" y="432"/>
      <point x="432" y="385"/>
      <point x="432" y="312" type="curve" smooth="yes"/>
      <point x="432" y="238"/>
      <point x="375" y="194"/>
      <point x="302" y="194" type="curve" smooth="yes"/>
      <point x="242" y="194"/>
      <point x="171" y="227"/>
      <point x="171" y="301" type="curve" smooth="yes"/>
      <point x="171" y="336"/>
      <point x="179" y="355"/>
      <point x="179" y="377" type="curve" smooth="yes"/>
      <point x="179" y="389"/>
      <point x="176" y="403"/>
      <point x="154" y="403" type="curve" smooth="yes"/>
      <point x="110" y="403"/>
      <point x="85" y="349"/>
      <point x="85" y="296" type="curve" smooth="yes"/>
      <point x="85" y="182"/>
      <point x="178" y="114"/>
      <point x="304" y="114" type="curve" smooth="yes"/>
      <point x="430" y="114"/>
      <point x="527" y="191"/>
      <point x="527" y="325" type="curve" smooth="yes"/>
      <point x="527" y="442"/>
      <point x="444" y="558"/>
      <point x="303" y="558" type="curve" smooth="yes"/>
      <point x="222" y="558"/>
      <point x="159" y="529"/>
      <point x="112" y="469" type="curve"/>
      <point x="78" y="469" type="line"/>
      <point x="127" y="544"/>
      <point x="209" y="586"/>
      <point x="302" y="586" type="curve" smooth="yes"/>
      <point x="462" y="586"/>
      <point x="585" y="454"/>
      <point x="585" y="292" type="curve" smooth="yes"/>
      <point x="585" y="110"/>
      <point x="475" y="0"/>
      <point x="310" y="0" type="curve" smooth="yes"/>
      <point x="143" y="0"/>
      <point x="33" y="94"/>
    </contour>
  </outline>
</glyph>
<glyph name="uni0DB9" format="1">
  <advance width="636"/>
  <unicode hex="0DB9"/>
  <outline>
    <contour>
      <point x="30" y="229" type="curve" smooth="yes"/>
      <point x="30" y="336"/>
      <point x="74" y="432"/>
      <point x="148" y="432" type="curve" smooth="yes"/>
      <point x="167" y="432"/>
      <point x="174" y="428"/>
      <point x="181" y="423" type="curve" smooth="yes"/>
      <point x="192" y="415"/>
      <point x="200" y="401"/>
      <point x="200" y="371" type="curve" smooth="yes"/>
      <point x="200" y="357"/>
      <point x="200" y="352"/>
      <point x="200" y="349" type="curve" smooth="yes"/>
      <point x="200" y="296"/>
      <point x="235" y="263"/>
      <point x="296" y="263" type="curve" smooth="yes"/>
      <point x="349" y="263"/>
      <point x="379" y="293"/>
      <point x="379" y="319" type="curve" smooth="yes"/>
      <point x="379" y="320"/>
      <point x="379" y="319"/>
      <point x="379" y="321" type="curve"/>
      <point x="375" y="314"/>
      <point x="359" y="289"/>
      <point x="318" y="289" type="curve" smooth="yes"/>
      <point x="271" y="289"/>
      <point x="245" y="324"/>
      <point x="245" y="360" type="curve" smooth="yes"/>
      <point x="245" y="402"/>
      <point x="277" y="434"/>
      <point x="322" y="434" type="curve" smooth="yes"/>
      <point x="381" y="434"/>
      <point x="411" y="385"/>
      <point x="411" y="335" type="curve" smooth="yes"/>
      <point x="411" y="276"/>
      <point x="364" y="234"/>
      <point x="293" y="234" type="curve" smooth="yes"/>
      <point x="220" y="234"/>
      <point x="171" y="277"/>
      <point x="171" y="351" type="curve" smooth="yes"/>
      <point x="171" y="356"/>
      <point x="171" y="363"/>
      <point x="171" y="372" type="curve" smooth="yes"/>
      <point x="171" y="392"/>
      <point x="165" y="405"/>
      <point x="145" y="405" type="curve" smooth="yes"/>
      <point x="97" y="405"/>
      <point x="70" y="328"/>
      <point x="70" y="271" type="curve" smooth="yes"/>
      <point x="70" y="185"/>
      <point x="109" y="108"/>
      <point x="184" y="108" type="curve" smooth="yes"/>
      <point x="202" y="108"/>
      <point x="214" y="112"/>
      <point x="221" y="118" type="curve"/>
      <point x="220" y="125"/>
      <point x="221" y="134"/>
      <point x="223" y="143" type="curve" smooth="yes"/>
      <point x="231" y="193"/>
      <point x="271" y="213"/>
      <point x="310" y="213" type="curve" smooth="yes"/>
      <point x="349" y="213"/>
      <point x="390" y="193"/>
      <point x="397" y="143" type="curve" smooth="yes"/>
      <point x="399" y="134"/>
      <point x="400" y="125"/>
      <point x="399" y="118" type="curve"/>
      <point x="407" y="112"/>
      <point x="417" y="108"/>
      <point x="436" y="108" type="curve" smooth="yes"/>
      <point x="497" y="108"/>
      <point x="537" y="202"/>
      <point x="537" y="298" type="curve" smooth="yes"/>
      <point x="537" y="423"/>
      <point x="458" y="554"/>
      <point x="298" y="554" type="curve" smooth="yes"/>
      <point x="199" y="554"/>
      <point x="141" y="523"/>
      <point x="95" y="466" type="curve"/>
      <point x="62" y="466" type="line"/>
      <point x="107" y="531"/>
      <point x="173" y="579"/>
      <point x="300" y="579" type="curve" smooth="yes"/>
      <point x="488" y="579"/>
      <point x="590" y="431"/>
      <point x="590" y="254" type="curve" smooth="yes"/>
      <point x="590" y="127"/>
      <point x="525" y="0"/>
      <point x="421" y="0" type="curve" smooth="yes"/>
      <point x="397" y="0"/>
      <point x="384" y="4"/>
      <point x="356" y="14" type="curve"/>
      <point x="354" y="20"/>
      <point x="354" y="40"/>
      <point x="355" y="48" type="curve" smooth="yes"/>
      <point x="357" y="75"/>
      <point x="370" y="90"/>
      <point x="370" y="117" type="curve" smooth="yes"/>
      <point x="370" y="153"/>
      <point x="351" y="182"/>
      <point x="310" y="182" type="curve" smooth="yes"/>
      <point x="269" y="182"/>
      <point x="250" y="153"/>
      <point x="250" y="117" type="curve" smooth="yes"/>
      <point x="250" y="90"/>
      <point x="263" y="75"/>
      <point x="264" y="49" type="curve" smooth="yes"/>
      <point x="266" y="40"/>
      <point x="266" y="20"/>
      <point x="264" y="14" type="curve"/>
      <point x="236" y="4"/>
      <point x="223" y="0"/>
      <point x="199" y="0" type="curve" smooth="yes"/>
      <point x="87" y="0"/>
      <point x="30" y="119"/>
    </contour>
    <contour>
      <point x="275" y="363" type="curve" smooth="yes"/>
      <point x="275" y="338"/>
      <point x="296" y="317"/>
      <point x="321" y="317" type="curve" smooth="yes"/>
      <point x="346" y="317"/>
      <point x="367" y="338"/>
      <point x="367" y="363" type="curve" smooth="yes"/>
      <point x="367" y="388"/>
      <point x="346" y="409"/>
      <point x="321" y="409" type="curve" smooth="yes"/>
      <point x="296" y="409"/>
      <point x="275" y="388"/>
    </contour>
  </outline>
</glyph>
<glyph name="si_Ya" format="1">
  <advance width="636"/>
  <unicode hex="0DBA"/>
  <outline>
    <contour>
      <point x="30" y="185" type="curve" smooth="yes"/>
      <point x="30" y="305"/>
      <point x="106" y="389"/>
      <point x="223" y="389" type="curve" smooth="yes"/>
      <point x="233" y="389"/>
      <point x="242" y="388"/>
      <point x="251" y="387" type="curve"/>
      <point x="251" y="358" type="line"/>
      <point x="240" y="360"/>
      <point x="230" y="361"/>
      <point x="219" y="361" type="curve" smooth="yes"/>
      <point x="130" y="361"/>
      <point x="76" y="299"/>
      <point x="76" y="232" type="curve" smooth="yes"/>
      <point x="76" y="164"/>
      <point x="118" y="118"/>
      <point x="193" y="118" type="curve" smooth="yes"/>
      <point x="242" y="118"/>
      <point x="294" y="140"/>
      <point x="294" y="189" type="curve" smooth="yes"/>
      <point x="294" y="213" type="line"/>
      <point x="323" y="213" type="line"/>
      <point x="323" y="190" type="line" smooth="yes"/>
      <point x="323" y="141"/>
      <point x="378" y="118"/>
      <point x="435" y="118" type="curve" smooth="yes"/>
      <point x="517" y="118"/>
      <point x="543" y="163"/>
      <point x="543" y="205" type="curve" smooth="yes"/>
      <point x="543" y="269"/>
      <point x="494" y="299"/>
      <point x="408" y="299" type="curve" smooth="yes"/>
      <point x="378" y="299"/>
      <point x="349" y="295"/>
      <point x="322" y="288" type="curve"/>
      <point x="321" y="295"/>
      <point x="321" y="303"/>
      <point x="321" y="310" type="curve" smooth="yes"/>
      <point x="321" y="389"/>
      <point x="367" y="433"/>
      <point x="451" y="433" type="curve" smooth="yes"/>
      <point x="511" y="433"/>
      <point x="558" y="409"/>
      <point x="558" y="357" type="curve" smooth="yes"/>
      <point x="558" y="338"/>
      <point x="548" y="312"/>
      <point x="521" y="303" type="curve"/>
      <point x="564" y="277"/>
      <point x="592" y="228"/>
      <point x="592" y="167" type="curve" smooth="yes"/>
      <point x="592" y="71"/>
      <point x="528" y="-1"/>
      <point x="436" y="-1" type="curve" smooth="yes"/>
      <point x="370" y="-1"/>
      <point x="327" y="25"/>
      <point x="307" y="71" type="curve"/>
      <point x="284" y="23"/>
      <point x="244" y="-1"/>
      <point x="186" y="-1" type="curve" smooth="yes"/>
      <point x="85" y="-1"/>
      <point x="30" y="82"/>
    </contour>
    <contour>
      <point x="351" y="320" type="curve"/>
      <point x="367" y="324"/>
      <point x="390" y="325"/>
      <point x="410" y="325" type="curve" smooth="yes"/>
      <point x="446" y="325"/>
      <point x="473" y="322"/>
      <point x="495" y="315" type="curve"/>
      <point x="508" y="321"/>
      <point x="517" y="333"/>
      <point x="517" y="349" type="curve" smooth="yes"/>
      <point x="517" y="376"/>
      <point x="487" y="394"/>
      <point x="452" y="394" type="curve" smooth="yes"/>
      <point x="393" y="394"/>
      <point x="353" y="368"/>
    </contour>
  </outline>
</glyph>
<glyph name="si_Ra" format="1">
  <advance width="528"/>
  <unicode hex="0DBB"/>
  <outline>
    <contour>
      <point x="31" y="213" type="curve" smooth="yes"/>
      <point x="31" y="323"/>
      <point x="95" y="387"/>
      <point x="178" y="420" type="curve" smooth="yes"/>
      <point x="249" y="449"/>
      <point x="310" y="463"/>
      <point x="381" y="516" type="curve" smooth="yes"/>
      <point x="436" y="558"/>
      <point x="448" y="612"/>
      <point x="493" y="612" type="curve" smooth="yes"/>
      <point x="507" y="612"/>
      <point x="526" y="603"/>
      <point x="526" y="583" type="curve" smooth="yes"/>
      <point x="526" y="555"/>
      <point x="502" y="528"/>
      <point x="441" y="494" type="curve" smooth="yes"/>
      <point x="404" y="474"/>
      <point x="334" y="446"/>
      <point x="291" y="434" type="curve"/>
      <point x="333" y="433"/>
      <point x="389" y="412"/>
      <point x="430" y="366" type="curve" smooth="yes"/>
      <point x="465" y="326"/>
      <point x="482" y="281"/>
      <point x="482" y="225" type="curve" smooth="yes"/>
      <point x="482" y="102"/>
      <point x="384" y="0"/>
      <point x="248" y="0" type="curve" smooth="yes"/>
      <point x="124" y="0"/>
      <point x="31" y="89"/>
    </contour>
    <contour>
      <point x="75" y="250" type="curve" smooth="yes"/>
      <point x="75" y="181"/>
      <point x="124" y="117"/>
      <point x="232" y="117" type="curve" smooth="yes"/>
      <point x="337" y="117"/>
      <point x="414" y="178"/>
      <point x="414" y="279" type="curve" smooth="yes"/>
      <point x="414" y="360"/>
      <point x="353" y="411"/>
      <point x="261" y="411" type="curve" smooth="yes"/>
      <point x="177" y="411"/>
      <point x="75" y="348"/>
    </contour>
  </outline>
</glyph>
<glyph name="uni0DC0" format="1">
  <advance width="597"/>
  <unicode hex="0DC0"/>
  <outline>
    <contour>
      <point x="33" y="165" type="curve" smooth="yes"/>
      <point x="33" y="250"/>
      <point x="98" y="304"/>
      <point x="199" y="304" type="curve" smooth="yes"/>
      <point x="257" y="304" type="line"/>
      <point x="257" y="306"/>
      <point x="257" y="306"/>
      <point x="257" y="308" type="curve" smooth="yes"/>
      <point x="257" y="359"/>
      <point x="225" y="390"/>
      <point x="190" y="390" type="curve" smooth="yes"/>
      <point x="153" y="390"/>
      <point x="143" y="371"/>
      <point x="137" y="355" type="curve" smooth="yes"/>
      <point x="131" y="336"/>
      <point x="119" y="320"/>
      <point x="95" y="320" type="curve" smooth="yes"/>
      <point x="74" y="320"/>
      <point x="56" y="333"/>
      <point x="56" y="359" type="curve" smooth="yes"/>
      <point x="56" y="406"/>
      <point x="106" y="432"/>
      <point x="161" y="432" type="curve" smooth="yes"/>
      <point x="249" y="432"/>
      <point x="292" y="376"/>
      <point x="292" y="290" type="curve" smooth="yes"/>
      <point x="292" y="287"/>
      <point x="292" y="281"/>
      <point x="292" y="278" type="curve"/>
      <point x="208" y="278" type="line" smooth="yes"/>
      <point x="134" y="278"/>
      <point x="90" y="248"/>
      <point x="90" y="202" type="curve" smooth="yes"/>
      <point x="90" y="133"/>
      <point x="191" y="118"/>
      <point x="270" y="118" type="curve" smooth="yes"/>
      <point x="423" y="118"/>
      <point x="498" y="194"/>
      <point x="498" y="312" type="curve" smooth="yes"/>
      <point x="498" y="438"/>
      <point x="410" y="552"/>
      <point x="276" y="552" type="curve" smooth="yes"/>
      <point x="197" y="552"/>
      <point x="135" y="523"/>
      <point x="91" y="470" type="curve"/>
      <point x="57" y="470" type="line"/>
      <point x="106" y="540"/>
      <point x="178" y="577"/>
      <point x="276" y="577" type="curve" smooth="yes"/>
      <point x="436" y="577"/>
      <point x="548" y="443"/>
      <point x="548" y="274" type="curve" smooth="yes"/>
      <point x="548" y="114"/>
      <point x="450" y="0"/>
      <point x="267" y="0" type="curve" smooth="yes"/>
      <point x="146" y="0"/>
      <point x="33" y="46"/>
    </contour>
  </outline>
</glyph>
<glyph name="si_Sha" format="1">
  <advance width="631"/>
  <unicode hex="0DC1"/>
  <outline>
    <contour>
      <point x="34" y="206" type="curve" smooth="yes"/>
      <point x="34" y="334"/>
      <point x="107" y="432"/>
      <point x="234" y="432" type="curve" smooth="yes"/>
      <point x="238" y="432"/>
      <point x="248" y="432"/>
      <point x="251" y="431" type="curve"/>
      <point x="251" y="407" type="line"/>
      <point x="247" y="407"/>
      <point x="242" y="407"/>
      <point x="238" y="407" type="curve" smooth="yes"/>
      <point x="140" y="407"/>
      <point x="81" y="341"/>
      <point x="81" y="254" type="curve" smooth="yes"/>
      <point x="81" y="194"/>
      <point x="116" y="118"/>
      <point x="206" y="118" type="curve" smooth="yes"/>
      <point x="253" y="118"/>
      <point x="299" y="137"/>
      <point x="299" y="180" type="curve" smooth="yes"/>
      <point x="299" y="200"/>
      <point x="288" y="218"/>
      <point x="261" y="218" type="curve" smooth="yes"/>
      <point x="255" y="218"/>
      <point x="246" y="217"/>
      <point x="238" y="211" type="curve"/>
      <point x="236" y="206"/>
      <point x="235" y="197"/>
      <point x="234" y="192" type="curve"/>
      <point x="208" y="192" type="line"/>
      <point x="222" y="328"/>
      <point x="276" y="432"/>
      <point x="399" y="432" type="curve" smooth="yes"/>
      <point x="523" y="432"/>
      <point x="582" y="312"/>
      <point x="582" y="196" type="curve" smooth="yes"/>
      <point x="582" y="128"/>
      <point x="558" y="37"/>
      <point x="529" y="1" type="curve"/>
      <point x="501" y="1" type="line"/>
      <point x="504" y="6"/>
      <point x="505" y="10"/>
      <point x="505" y="14" type="curve" smooth="yes"/>
      <point x="505" y="21"/>
      <point x="501" y="27"/>
      <point x="494" y="27" type="curve" smooth="yes"/>
      <point x="473" y="27"/>
      <point x="465" y="-3"/>
      <point x="427" y="-3" type="curve" smooth="yes"/>
      <point x="390" y="-3"/>
      <point x="367" y="36"/>
      <point x="367" y="75" type="curve" smooth="yes"/>
      <point x="367" y="138"/>
      <point x="414" y="184"/>
      <point x="481" y="184" type="curve" smooth="yes"/>
      <point x="491" y="184"/>
      <point x="508" y="183"/>
      <point x="519" y="179" type="curve"/>
      <point x="510" y="262"/>
      <point x="461" y="336"/>
      <point x="372" y="336" type="curve" smooth="yes"/>
      <point x="310" y="336"/>
      <point x="253" y="300"/>
      <point x="241" y="239" type="curve"/>
      <point x="248" y="242"/>
      <point x="255" y="243"/>
      <point x="262" y="243" type="curve" smooth="yes"/>
      <point x="310" y="243"/>
      <point x="343" y="208"/>
      <point x="343" y="138" type="curve" smooth="yes"/>
      <point x="343" y="62"/>
      <point x="289" y="-1"/>
      <point x="198" y="-1" type="curve" smooth="yes"/>
      <point x="91" y="-1"/>
      <point x="34" y="92"/>
    </contour>
    <contour>
      <point x="399" y="79" type="curve" smooth="yes"/>
      <point x="399" y="51"/>
      <point x="409" y="28"/>
      <point x="433" y="28" type="curve" smooth="yes"/>
      <point x="458" y="28"/>
      <point x="473" y="54"/>
      <point x="495" y="54" type="curve" smooth="yes"/>
      <point x="503" y="54"/>
      <point x="509" y="51"/>
      <point x="512" y="45" type="curve"/>
      <point x="518" y="68"/>
      <point x="522" y="100"/>
      <point x="522" y="127" type="curve" smooth="yes"/>
      <point x="522" y="135"/>
      <point x="522" y="143"/>
      <point x="522" y="151" type="curve"/>
      <point x="510" y="156"/>
      <point x="494" y="157"/>
      <point x="482" y="157" type="curve" smooth="yes"/>
      <point x="435" y="157"/>
      <point x="399" y="126"/>
    </contour>
  </outline>
</glyph>
<glyph name="uni0DC2" format="1">
  <advance width="614"/>
  <unicode hex="0DC2"/>
  <outline>
    <contour>
      <point x="31" y="184" type="curve" smooth="yes"/>
      <point x="31" y="275"/>
      <point x="99" y="328"/>
      <point x="206" y="328" type="curve" smooth="yes"/>
      <point x="219" y="328"/>
      <point x="230" y="327"/>
      <point x="243" y="326" type="curve"/>
      <point x="243" y="329"/>
      <point x="244" y="333"/>
      <point x="244" y="336" type="curve" smooth="yes"/>
      <point x="244" y="374"/>
      <point x="219" y="393"/>
      <point x="189" y="393" type="curve" smooth="yes"/>
      <point x="161" y="393"/>
      <point x="149" y="378"/>
      <point x="145" y="360" type="curve" smooth="yes"/>
      <point x="141" y="345"/>
      <point x="127" y="327"/>
      <point x="97" y="327" type="curve" smooth="yes"/>
      <point x="76" y="327"/>
      <point x="55" y="339"/>
      <point x="55" y="365" type="curve" smooth="yes"/>
      <point x="55" y="409"/>
      <point x="103" y="434"/>
      <point x="158" y="434" type="curve" smooth="yes"/>
      <point x="231" y="434"/>
      <point x="275" y="401"/>
      <point x="275" y="334" type="curve" smooth="yes"/>
      <point x="275" y="323"/>
      <point x="274" y="311"/>
      <point x="271" y="298" type="curve"/>
      <point x="253" y="300"/>
      <point x="218" y="302"/>
      <point x="217" y="302" type="curve" smooth="yes"/>
      <point x="149" y="302"/>
      <point x="86" y="281"/>
      <point x="86" y="221" type="curve" smooth="yes"/>
      <point x="86" y="142"/>
      <point x="199" y="112"/>
      <point x="303" y="112" type="curve" smooth="yes"/>
      <point x="413" y="112"/>
      <point x="522" y="143"/>
      <point x="522" y="219" type="curve" smooth="yes"/>
      <point x="522" y="281"/>
      <point x="462" y="304"/>
      <point x="394" y="304" type="curve" smooth="yes"/>
      <point x="371" y="304"/>
      <point x="347" y="301"/>
      <point x="324" y="297" type="curve"/>
      <point x="322" y="308"/>
      <point x="321" y="318"/>
      <point x="321" y="328" type="curve" smooth="yes"/>
      <point x="321" y="397"/>
      <point x="366" y="433"/>
      <point x="439" y="433" type="curve" smooth="yes"/>
      <point x="505" y="433"/>
      <point x="541" y="393"/>
      <point x="541" y="354" type="curve" smooth="yes"/>
      <point x="541" y="334"/>
      <point x="533" y="317"/>
      <point x="514" y="303" type="curve"/>
      <point x="554" y="279"/>
      <point x="574" y="241"/>
      <point x="574" y="186" type="curve" smooth="yes"/>
      <point x="574" y="56"/>
      <point x="448" y="0"/>
      <point x="307" y="0" type="curve" smooth="yes"/>
      <point x="159" y="0"/>
      <point x="31" y="46"/>
    </contour>
    <contour>
      <point x="354" y="337" type="curve" smooth="yes"/>
      <point x="354" y="333"/>
      <point x="354" y="330"/>
      <point x="355" y="326" type="curve"/>
      <point x="372" y="328"/>
      <point x="388" y="329"/>
      <point x="403" y="329" type="curve" smooth="yes"/>
      <point x="435" y="329"/>
      <point x="463" y="325"/>
      <point x="486" y="316" type="curve"/>
      <point x="497" y="327"/>
      <point x="502" y="339"/>
      <point x="502" y="352" type="curve" smooth="yes"/>
      <point x="502" y="379"/>
      <point x="477" y="404"/>
      <point x="432" y="404" type="curve" smooth="yes"/>
      <point x="390" y="404"/>
      <point x="354" y="380"/>
    </contour>
    <contour>
      <point x="172" y="212" type="curve" smooth="yes"/>
      <point x="172" y="240"/>
      <point x="192" y="268"/>
      <point x="288" y="268" type="curve" smooth="yes"/>
      <point x="318" y="268"/>
      <point x="358" y="270"/>
      <point x="389" y="275" type="curve" smooth="yes"/>
      <point x="429" y="280"/>
      <point x="462" y="296"/>
      <point x="471" y="303" type="curve"/>
      <point x="498" y="291" type="line"/>
      <point x="476" y="275"/>
      <point x="439" y="260"/>
      <point x="399" y="254" type="curve"/>
      <point x="418" y="245"/>
      <point x="432" y="230"/>
      <point x="432" y="211" type="curve" smooth="yes"/>
      <point x="432" y="168"/>
      <point x="375" y="153"/>
      <point x="296" y="153" type="curve" smooth="yes"/>
      <point x="240" y="153"/>
      <point x="172" y="166"/>
    </contour>
    <contour>
      <point x="203" y="214" type="curve" smooth="yes"/>
      <point x="203" y="193"/>
      <point x="235" y="179"/>
      <point x="299" y="179" type="curve" smooth="yes"/>
      <point x="366" y="179"/>
      <point x="401" y="192"/>
      <point x="401" y="212" type="curve" smooth="yes"/>
      <point x="401" y="236"/>
      <point x="367" y="246"/>
      <point x="298" y="246" type="curve" smooth="yes"/>
      <point x="234" y="246"/>
      <point x="203" y="234"/>
    </contour>
  </outline>
</glyph>
<glyph name="si_Ha" format="1">
  <advance width="653"/>
  <unicode hex="0DC4"/>
  <outline>
    <contour>
      <point x="33" y="155" type="curve" smooth="yes"/>
      <point x="33" y="246"/>
      <point x="100" y="303"/>
      <point x="194" y="303" type="curve" smooth="yes"/>
      <point x="198" y="303"/>
      <point x="201" y="303"/>
      <point x="205" y="303" type="curve"/>
      <point x="205" y="343"/>
      <point x="181" y="380"/>
      <point x="149" y="380" type="curve" smooth="yes"/>
      <point x="133" y="380"/>
      <point x="119" y="373"/>
      <point x="111" y="353" type="curve" smooth="yes"/>
      <point x="104" y="335"/>
      <point x="89" y="324"/>
      <point x="71" y="324" type="curve" smooth="yes"/>
      <point x="50" y="324"/>
      <point x="33" y="338"/>
      <point x="33" y="364" type="curve" smooth="yes"/>
      <point x="33" y="394"/>
      <point x="62" y="432"/>
      <point x="118" y="432" type="curve" smooth="yes"/>
      <point x="197" y="432"/>
      <point x="239" y="360"/>
      <point x="239" y="277" type="curve"/>
      <point x="227" y="278"/>
      <point x="216" y="279"/>
      <point x="205" y="279" type="curve" smooth="yes"/>
      <point x="125" y="279"/>
      <point x="86" y="244"/>
      <point x="86" y="199" type="curve" smooth="yes"/>
      <point x="86" y="141"/>
      <point x="150" y="117"/>
      <point x="211" y="117" type="curve" smooth="yes"/>
      <point x="258" y="117"/>
      <point x="322" y="135"/>
      <point x="322" y="182" type="curve" smooth="yes"/>
      <point x="322" y="204"/>
      <point x="310" y="214"/>
      <point x="296" y="214" type="curve" smooth="yes"/>
      <point x="282" y="214"/>
      <point x="270" y="206"/>
      <point x="263" y="185" type="curve"/>
      <point x="239" y="194" type="line"/>
      <point x="248" y="319"/>
      <point x="329" y="432"/>
      <point x="430" y="432" type="curve" smooth="yes"/>
      <point x="542" y="432"/>
      <point x="605" y="329"/>
      <point x="605" y="211" type="curve" smooth="yes"/>
      <point x="605" y="92"/>
      <point x="516" y="-1"/>
      <point x="393" y="-1" type="curve" smooth="yes"/>
      <point x="380" y="-1"/>
      <point x="366" y="0"/>
      <point x="352" y="2" type="curve"/>
      <point x="352" y="30" type="line"/>
      <point x="364" y="28"/>
      <point x="376" y="27"/>
      <point x="388" y="27" type="curve" smooth="yes"/>
      <point x="480" y="27"/>
      <point x="516" y="106"/>
      <point x="516" y="175" type="curve" smooth="yes"/>
      <point x="516" y="249"/>
      <point x="477" y="329"/>
      <point x="387" y="329" type="curve" smooth="yes"/>
      <point x="312" y="329"/>
      <point x="286" y="281"/>
      <point x="272" y="233" type="curve"/>
      <point x="282" y="239"/>
      <point x="292" y="240"/>
      <point x="301" y="240" type="curve" smooth="yes"/>
      <point x="341" y="240"/>
      <point x="366" y="199"/>
      <point x="366" y="145" type="curve" smooth="yes"/>
      <point x="366" y="53"/>
      <point x="296" y="-1"/>
      <point x="201" y="-1" type="curve" smooth="yes"/>
      <point x="103" y="-1"/>
      <point x="33" y="61"/>
    </contour>
  </outline>
</glyph>
<glyph name="si_Lla" format="1">
  <advance width="636"/>
  <unicode hex="0DC5"/>
  <outline>
    <contour>
      <point x="31" y="114" type="curve" smooth="yes"/>
      <point x="31" y="192"/>
      <point x="80" y="297"/>
      <point x="179" y="297" type="curve" smooth="yes"/>
      <point x="541" y="297" type="line"/>
      <point x="541" y="351"/>
      <point x="510" y="402"/>
      <point x="444" y="402" type="curve" smooth="yes"/>
      <point x="398" y="402"/>
      <point x="365" y="364"/>
      <point x="365" y="329" type="curve"/>
      <point x="332" y="329" type="line"/>
      <point x="332" y="363"/>
      <point x="302" y="403"/>
      <point x="259" y="403" type="curve" smooth="yes"/>
      <point x="203" y="403"/>
      <point x="173" y="359"/>
      <point x="173" y="290" type="curve" smooth="yes"/>
      <point x="173" y="183"/>
      <point x="248" y="127"/>
      <point x="346" y="127" type="curve" smooth="yes"/>
      <point x="419" y="127"/>
      <point x="475" y="149"/>
      <point x="500" y="184" type="curve"/>
      <point x="530" y="184" type="line"/>
      <point x="507" y="90"/>
      <point x="437" y="43"/>
      <point x="334" y="43" type="curve" smooth="yes"/>
      <point x="218" y="43"/>
      <point x="126" y="138"/>
      <point x="126" y="274" type="curve" smooth="yes"/>
      <point x="126" y="373"/>
      <point x="187" y="432"/>
      <point x="260" y="432" type="curve" smooth="yes"/>
      <point x="296" y="432"/>
      <point x="333" y="415"/>
      <point x="349" y="377" type="curve"/>
      <point x="367" y="415"/>
      <point x="409" y="432"/>
      <point x="445" y="432" type="curve" smooth="yes"/>
      <point x="532" y="432"/>
      <point x="576" y="363"/>
      <point x="576" y="270" type="curve"/>
      <point x="250" y="270" type="line" smooth="yes"/>
      <point x="208" y="270"/>
      <point x="136" y="254"/>
      <point x="136" y="162" type="curve" smooth="yes"/>
      <point x="136" y="30"/>
      <point x="238" y="-81"/>
      <point x="393" y="-81" type="curve" smooth="yes"/>
      <point x="489" y="-81"/>
      <point x="587" y="-30"/>
      <point x="590" y="74" type="curve"/>
      <point x="618" y="74" type="line"/>
      <point x="618" y="-68"/>
      <point x="472" y="-153"/>
      <point x="343" y="-153" type="curve" smooth="yes"/>
      <point x="168" y="-153"/>
      <point x="31" y="-57"/>
    </contour>
  </outline>
</glyph>
<glyph name="uni0DC6" format="1">
  <advance width="607"/>
  <unicode hex="0DC6"/>
  <outline>
    <contour>
      <point x="33" y="212" type="curve" smooth="yes"/>
      <point x="33" y="316"/>
      <point x="78" y="431"/>
      <point x="186" y="431" type="curve" smooth="yes"/>
      <point x="246" y="431"/>
      <point x="280" y="398"/>
      <point x="296" y="359" type="curve"/>
      <point x="312" y="398"/>
      <point x="346" y="431"/>
      <point x="406" y="431" type="curve" smooth="yes"/>
      <point x="514" y="431"/>
      <point x="559" y="316"/>
      <point x="559" y="212" type="curve" smooth="yes"/>
      <point x="559" y="110"/>
      <point x="511" y="-1"/>
      <point x="410" y="-1" type="curve" smooth="yes"/>
      <point x="398" y="-1"/>
      <point x="385" y="1"/>
      <point x="372" y="6" type="curve"/>
      <point x="372" y="33" type="line"/>
      <point x="383" y="29"/>
      <point x="394" y="27"/>
      <point x="405" y="27" type="curve" smooth="yes"/>
      <point x="476" y="27"/>
      <point x="510" y="98"/>
      <point x="510" y="178" type="curve" smooth="yes"/>
      <point x="510" y="238"/>
      <point x="491" y="317"/>
      <point x="405" y="317" type="curve" smooth="yes"/>
      <point x="353" y="317"/>
      <point x="313" y="291"/>
      <point x="313" y="220" type="curve" smooth="yes"/>
      <point x="313" y="193" type="line"/>
      <point x="279" y="193" type="line"/>
      <point x="279" y="220" type="line" smooth="yes"/>
      <point x="279" y="291"/>
      <point x="239" y="317"/>
      <point x="187" y="317" type="curve" smooth="yes"/>
      <point x="101" y="317"/>
      <point x="81" y="235"/>
      <point x="81" y="176" type="curve" smooth="yes"/>
      <point x="81" y="98"/>
      <point x="116" y="27"/>
      <point x="187" y="27" type="curve" smooth="yes"/>
      <point x="198" y="27"/>
      <point x="209" y="29"/>
      <point x="220" y="33" type="curve"/>
      <point x="220" y="6" type="line"/>
      <point x="207" y="1"/>
      <point x="194" y="-1"/>
      <point x="182" y="-1" type="curve" smooth="yes"/>
      <point x="81" y="-1"/>
      <point x="33" y="110"/>
    </contour>
  </outline>
</glyph>
<glyph name="si_Halant" format="1">
  <advance width="2"/>
  <unicode hex="0DCA"/>
  <outline>
    <contour>
      <point x="-141" y="348" type="line"/>
      <point x="-141" y="681" type="line"/>
      <point x="-87" y="639"/>
      <point x="10" y="634"/>
      <point x="10" y="542" type="curve" smooth="yes"/>
      <point x="10" y="498"/>
      <point x="-25" y="468"/>
      <point x="-68" y="468" type="curve" smooth="yes"/>
      <point x="-83" y="468"/>
      <point x="-98" y="471"/>
      <point x="-113" y="478" type="curve"/>
      <point x="-113" y="331" type="line"/>
    </contour>
    <contour>
      <point x="-113" y="504" type="line"/>
      <point x="-104" y="499"/>
      <point x="-94" y="497"/>
      <point x="-81" y="497" type="curve" smooth="yes"/>
      <point x="-47" y="497"/>
      <point x="-32" y="522"/>
      <point x="-32" y="545" type="curve" smooth="yes"/>
      <point x="-32" y="587"/>
      <point x="-67" y="606"/>
      <point x="-113" y="637" type="curve"/>
    </contour>
  </outline>
</glyph>
<glyph name="uni0DCF" format="1">
  <advance width="312"/>
  <unicode hex="0DCF"/>
  <outline>
    <contour>
      <point x="22" y="110" type="curve" smooth="yes"/>
      <point x="22" y="118"/>
      <point x="22" y="125"/>
      <point x="23" y="132" type="curve"/>
      <point x="51" y="132" type="line"/>
      <point x="50" y="128"/>
      <point x="50" y="123"/>
      <point x="50" y="117" type="curve" smooth="yes"/>
      <point x="50" y="70"/>
      <point x="73" y="56"/>
      <point x="96" y="56" type="curve" smooth="yes"/>
      <point x="130" y="57"/>
      <point x="155" y="91"/>
      <point x="155" y="201" type="curve" smooth="yes"/>
      <point x="155" y="311"/>
      <point x="129" y="347"/>
      <point x="96" y="347" type="curve" smooth="yes"/>
      <point x="77" y="347"/>
      <point x="50" y="332"/>
      <point x="50" y="285" type="curve" smooth="yes"/>
      <point x="50" y="279"/>
      <point x="50" y="274"/>
      <point x="51" y="270" type="curve"/>
      <point x="23" y="270" type="line"/>
      <point x="22" y="277"/>
      <point x="22" y="284"/>
      <point x="22" y="292" type="curve" smooth="yes"/>
      <point x="22" y="361"/>
      <point x="74" y="403"/>
      <point x="133" y="403" type="curve" smooth="yes"/>
      <point x="224" y="403"/>
      <point x="270" y="329"/>
      <point x="270" y="201" type="curve" smooth="yes"/>
      <point x="270" y="73"/>
      <point x="224" y="-1"/>
      <point x="133" y="-1" type="curve" smooth="yes"/>
      <point x="66" y="-1"/>
      <point x="22" y="41"/>
    </contour>
  </outline>
</glyph>
<glyph name="uni0DD0" format="1">
  <advance width="334"/>
  <unicode hex="0DD0"/>
  <outline>
    <contour>
      <point x="3" y="312" type="line"/>
      <point x="3" y="339" type="line"/>
      <point x="249" y="339" type="line"/>
      <point x="248" y="337"/>
      <point x="247" y="330"/>
      <point x="246" y="321" type="curve"/>
      <point x="188" y="233"/>
      <point x="170" y="156"/>
      <point x="170" y="77" type="curve" smooth="yes"/>
      <point x="170" y="0"/>
      <point x="203" y="-63"/>
      <point x="260" y="-81" type="curve" smooth="yes"/>
      <point x="273" y="-86"/>
      <point x="287" y="-88"/>
      <point x="302" y="-87" type="curve"/>
      <point x="306" y="-106" type="line"/>
      <point x="279" y="-137"/>
      <point x="242" y="-147"/>
      <point x="201" y="-147" type="curve" smooth="yes"/>
      <point x="116" y="-147"/>
      <point x="61" y="-80"/>
      <point x="61" y="17" type="curve" smooth="yes"/>
      <point x="61" y="148"/>
      <point x="152" y="249"/>
      <point x="209" y="312" type="curve"/>
    </contour>
  </outline>
</glyph>
<glyph name="uni0DD1" format="1">
  <advance width="336"/>
  <unicode hex="0DD1"/>
  <outline>
    <contour>
      <point x="4" y="313" type="line"/>
      <point x="4" y="339" type="line"/>
      <point x="249" y="339" type="line"/>
      <point x="249" y="317" type="line"/>
      <point x="122" y="223" type="line"/>
      <point x="272" y="223" type="line"/>
      <point x="272" y="200" type="line"/>
      <point x="226" y="166"/>
      <point x="179" y="111"/>
      <point x="179" y="29" type="curve" smooth="yes"/>
      <point x="179" y="-43"/>
      <point x="223" y="-102"/>
      <point x="306" y="-102" type="curve"/>
      <point x="306" y="-128" type="line"/>
      <point x="276" y="-141"/>
      <point x="242" y="-148"/>
      <point x="214" y="-148" type="curve" smooth="yes"/>
      <point x="124" y="-148"/>
      <point x="67" y="-98"/>
      <point x="67" y="-16" type="curve" smooth="yes"/>
      <point x="67" y="90"/>
      <point x="163" y="156"/>
      <point x="230" y="197" type="curve"/>
      <point x="72" y="197" type="line"/>
      <point x="72" y="220" type="line"/>
      <point x="200" y="313" type="line"/>
    </contour>
  </outline>
</glyph>
<glyph name="si_MatraI" format="1">
  <advance width="2"/>
  <unicode hex="0DD2"/>
  <outline>
    <contour>
      <point x="-545" y="518" type="curve" smooth="yes"/>
      <point x="-545" y="626"/>
      <point x="-432" y="671"/>
      <point x="-313" y="671" type="curve" smooth="yes"/>
      <point x="-194" y="671"/>
      <point x="-81" y="626"/>
      <point x="-81" y="518" type="curve" smooth="yes"/>
      <point x="-81" y="443"/>
      <point x="-147" y="408"/>
      <point x="-224" y="405" type="curve"/>
      <point x="-224" y="427" type="line"/>
      <point x="-170" y="430"/>
      <point x="-137" y="449"/>
      <point x="-137" y="489" type="curve" smooth="yes"/>
      <point x="-137" y="540"/>
      <point x="-226" y="556"/>
      <point x="-313" y="556" type="curve" smooth="yes"/>
      <point x="-402" y="556"/>
      <point x="-491" y="541"/>
      <point x="-491" y="489" type="curve" smooth="yes"/>
      <point x="-491" y="451"/>
      <point x="-456" y="430"/>
      <point x="-402" y="427" type="curve"/>
      <point x="-402" y="405" type="line"/>
      <point x="-479" y="408"/>
      <point x="-545" y="443"/>
    </contour>
  </outline>
</glyph>
<glyph name="si_MatraIi" format="1">
  <advance width="2"/>
  <unicode hex="0DD3"/>
  <outline>
    <contour>
      <point x="-249" y="514" type="curve" smooth="yes"/>
      <point x="-249" y="484"/>
      <point x="-219" y="459"/>
      <point x="-184" y="459" type="curve" smooth="yes"/>
      <point x="-149" y="459"/>
      <point x="-119" y="484"/>
      <point x="-119" y="514" type="curve" smooth="yes"/>
      <point x="-119" y="544"/>
      <point x="-149" y="569"/>
      <point x="-184" y="569" type="curve" smooth="yes"/>
      <point x="-219" y="569"/>
      <point x="-249" y="544"/>
    </contour>
    <contour>
      <point x="-587" y="517" type="curve" smooth="yes"/>
      <point x="-587" y="624"/>
      <point x="-463" y="671"/>
      <point x="-336" y="671" type="curve" smooth="yes"/>
      <point x="-219" y="671"/>
      <point x="-83" y="627"/>
      <point x="-83" y="524" type="curve" smooth="yes"/>
      <point x="-83" y="469"/>
      <point x="-128" y="429"/>
      <point x="-184" y="429" type="curve" smooth="yes"/>
      <point x="-242" y="429"/>
      <point x="-282" y="470"/>
      <point x="-282" y="515" type="curve" smooth="yes"/>
      <point x="-282" y="536"/>
      <point x="-270" y="560"/>
      <point x="-255" y="571" type="curve"/>
      <point x="-264" y="573"/>
      <point x="-304" y="576"/>
      <point x="-344" y="576" type="curve" smooth="yes"/>
      <point x="-438" y="576"/>
      <point x="-542" y="554"/>
      <point x="-542" y="487" type="curve" smooth="yes"/>
      <point x="-542" y="460"/>
      <point x="-526" y="436"/>
      <point x="-490" y="427" type="curve"/>
      <point x="-497" y="406" type="line"/>
      <point x="-550" y="411"/>
      <point x="-587" y="456"/>
    </contour>
  </outline>
</glyph>
<glyph name="uni0DD4" format="1">
  <advance width="2"/>
  <unicode hex="0DD4"/>
  <outline>
    <contour>
      <point x="-594" y="-144" type="curve" smooth="yes"/>
      <point x="-594" y="-90"/>
      <point x="-549" y="-50"/>
      <point x="-494" y="-50" type="curve" smooth="yes"/>
      <point x="-451" y="-50"/>
      <point x="-415" y="-72"/>
      <point x="-399" y="-110" type="curve"/>
      <point x="-431" y="-122" type="line"/>
      <point x="-439" y="-102"/>
      <point x="-459" y="-82"/>
      <point x="-492" y="-82" type="curve" smooth="yes"/>
      <point x="-529" y="-82"/>
      <point x="-559" y="-108"/>
      <point x="-559" y="-142" type="curve" smooth="yes"/>
      <point x="-559" y="-175"/>
      <point x="-535" y="-194"/>
      <point x="-472" y="-194" type="curve" smooth="yes"/>
      <point x="-90" y="-194" type="line"/>
      <point x="-90" y="128" type="line"/>
      <point x="-56" y="219" type="line"/>
      <point x="-56" y="-235" type="line"/>
      <point x="-487" y="-235" type="line" smooth="yes"/>
      <point x="-563" y="-235"/>
      <point x="-594" y="-191"/>
    </contour>
  </outline>
</glyph>
<glyph name="si_MatraUu" format="1">
  <advance width="2"/>
  <unicode hex="0DD6"/>
  <outline>
    <contour>
      <point x="-582" y="-141" type="curve" smooth="yes"/>
      <point x="-582" y="-83"/>
      <point x="-533" y="-43"/>
      <point x="-480" y="-43" type="curve" smooth="yes"/>
      <point x="-438" y="-43"/>
      <point x="-406" y="-58"/>
      <point x="-383" y="-94" type="curve"/>
      <point x="-415" y="-105" type="line"/>
      <point x="-426" y="-88"/>
      <point x="-446" y="-73"/>
      <point x="-475" y="-73" type="curve" smooth="yes"/>
      <point x="-514" y="-73"/>
      <point x="-541" y="-97"/>
      <point x="-541" y="-126" type="curve" smooth="yes"/>
      <point x="-541" y="-160"/>
      <point x="-512" y="-178"/>
      <point x="-475" y="-178" type="curve" smooth="yes"/>
      <point x="-396" y="-178"/>
      <point x="-319" y="-118"/>
      <point x="-215" y="-118" type="curve" smooth="yes"/>
      <point x="-166" y="-118"/>
      <point x="-119" y="-138"/>
      <point x="-92" y="-170" type="curve"/>
      <point x="-92" y="149" type="line"/>
      <point x="-58" y="209" type="line"/>
      <point x="-58" y="-234" type="line"/>
      <point x="-83" y="-234" type="line"/>
      <point x="-97" y="-198"/>
      <point x="-142" y="-149"/>
      <point x="-207" y="-149" type="curve" smooth="yes"/>
      <point x="-298" y="-149"/>
      <point x="-373" y="-240"/>
      <point x="-471" y="-240" type="curve" smooth="yes"/>
      <point x="-526" y="-240"/>
      <point x="-582" y="-209"/>
    </contour>
  </outline>
</glyph>
<glyph name="uni0DD8" format="1">
  <advance width="313"/>
  <unicode hex="0DD8"/>
  <outline>
    <contour>
      <point x="33" y="249" type="curve" smooth="yes"/>
      <point x="33" y="329"/>
      <point x="68" y="393"/>
      <point x="146" y="393" type="curve" smooth="yes"/>
      <point x="233" y="393"/>
      <point x="269" y="309"/>
      <point x="269" y="203" type="curve" smooth="yes"/>
      <point x="269" y="144"/>
      <point x="252" y="52"/>
      <point x="252" y="23" type="curve" smooth="yes"/>
      <point x="252" y="16"/>
      <point x="252" y="9"/>
      <point x="253" y="3" type="curve"/>
      <point x="192" y="3" type="line"/>
      <point x="189" y="12"/>
      <point x="184" y="17"/>
      <point x="177" y="17" type="curve" smooth="yes"/>
      <point x="165" y="17"/>
      <point x="151" y="-1"/>
      <point x="121" y="-1" type="curve" smooth="yes"/>
      <point x="62" y="-1"/>
      <point x="33" y="61"/>
      <point x="33" y="106" type="curve" smooth="yes"/>
      <point x="33" y="153"/>
      <point x="55" y="187"/>
      <point x="99" y="206" type="curve" smooth="yes"/>
      <point x="122" y="216"/>
      <point x="152" y="221"/>
      <point x="170" y="221" type="curve"/>
      <point x="170" y="311"/>
      <point x="155" y="346"/>
      <point x="121" y="346" type="curve" smooth="yes"/>
      <point x="82" y="346"/>
      <point x="59" y="308"/>
      <point x="59" y="246" type="curve" smooth="yes"/>
      <point x="59" y="244"/>
      <point x="59" y="244"/>
      <point x="59" y="242" type="curve"/>
      <point x="33" y="242" type="line"/>
      <point x="33" y="245"/>
      <point x="33" y="246"/>
    </contour>
    <contour>
      <point x="64" y="107" type="curve" smooth="yes"/>
      <point x="64" y="72"/>
      <point x="82" y="29"/>
      <point x="123" y="29" type="curve" smooth="yes"/>
      <point x="145" y="29"/>
      <point x="158" y="38"/>
      <point x="167" y="41" type="curve" smooth="yes"/>
      <point x="169" y="42"/>
      <point x="172" y="42"/>
      <point x="175" y="41" type="curve"/>
      <point x="169" y="49"/>
      <point x="168" y="77"/>
      <point x="168" y="115" type="curve" smooth="yes"/>
      <point x="168" y="146"/>
      <point x="170" y="166"/>
      <point x="170" y="184" type="curve" smooth="yes"/>
      <point x="170" y="187"/>
      <point x="170" y="191"/>
      <point x="170" y="193" type="curve"/>
      <point x="162" y="193"/>
      <point x="138" y="190"/>
      <point x="123" y="186" type="curve" smooth="yes"/>
      <point x="87" y="175"/>
      <point x="64" y="151"/>
    </contour>
  </outline>
</glyph>
<glyph name="si_MatraE" format="1">
  <advance width="603"/>
  <unicode hex="0DD9"/>
  <outline>
    <contour>
      <point x="226" y="266" type="curve" smooth="yes"/>
      <point x="226" y="241"/>
      <point x="250" y="220"/>
      <point x="280" y="220" type="curve" smooth="yes"/>
      <point x="310" y="220"/>
      <point x="334" y="241"/>
      <point x="334" y="266" type="curve" smooth="yes"/>
      <point x="334" y="291"/>
      <point x="310" y="312"/>
      <point x="280" y="312" type="curve" smooth="yes"/>
      <point x="250" y="312"/>
      <point x="226" y="291"/>
    </contour>
    <contour>
      <point x="33" y="212" type="curve" smooth="yes"/>
      <point x="33" y="347"/>
      <point x="161" y="432"/>
      <point x="301" y="432" type="curve" smooth="yes"/>
      <point x="449" y="432"/>
      <point x="572" y="340"/>
      <point x="584" y="206" type="curve"/>
      <point x="554" y="206" type="line"/>
      <point x="535" y="323"/>
      <point x="430" y="403"/>
      <point x="301" y="403" type="curve" smooth="yes"/>
      <point x="187" y="403"/>
      <point x="96" y="343"/>
      <point x="96" y="256" type="curve" smooth="yes"/>
      <point x="96" y="179"/>
      <point x="163" y="116"/>
      <point x="269" y="116" type="curve" smooth="yes"/>
      <point x="358" y="116"/>
      <point x="429" y="155"/>
      <point x="429" y="226" type="curve" smooth="yes"/>
      <point x="429" y="265"/>
      <point x="398" y="300"/>
      <point x="349" y="311" type="curve"/>
      <point x="362" y="299"/>
      <point x="369" y="280"/>
      <point x="369" y="264" type="curve" smooth="yes"/>
      <point x="369" y="218"/>
      <point x="325" y="189"/>
      <point x="280" y="189" type="curve" smooth="yes"/>
      <point x="235" y="189"/>
      <point x="191" y="220"/>
      <point x="191" y="264" type="curve" smooth="yes"/>
      <point x="191" y="312"/>
      <point x="236" y="344"/>
      <point x="294" y="344" type="curve" smooth="yes"/>
      <point x="402" y="344"/>
      <point x="491" y="284"/>
      <point x="491" y="174" type="curve" smooth="yes"/>
      <point x="491" y="76"/>
      <point x="412" y="0"/>
      <point x="269" y="0" type="curve" smooth="yes"/>
      <point x="134" y="0"/>
      <point x="33" y="84"/>
    </contour>
  </outline>
</glyph>
<glyph name="uni0DF3" format="1">
  <advance width="441"/>
  <unicode hex="0DF3"/>
  <outline>
    <contour>
      <point x="33" y="321" type="curve" smooth="yes"/>
      <point x="33" y="370"/>
      <point x="49" y="404"/>
      <point x="70" y="428" type="curve"/>
      <point x="106" y="428" type="line"/>
      <point x="84" y="410"/>
      <point x="63" y="375"/>
      <point x="63" y="322" type="curve" smooth="yes"/>
      <point x="63" y="276"/>
      <point x="86" y="243"/>
      <point x="122" y="243" type="curve" smooth="yes"/>
      <point x="149" y="243"/>
      <point x="166" y="261"/>
      <point x="166" y="290" type="curve" smooth="yes"/>
      <point x="166" y="307"/>
      <point x="159" y="323"/>
      <point x="146" y="337" type="curve"/>
      <point x="145" y="342"/>
      <point x="145" y="344"/>
      <point x="145" y="349" type="curve" smooth="yes"/>
      <point x="145" y="398"/>
      <point x="181" y="432"/>
      <point x="243" y="432" type="curve" smooth="yes"/>
      <point x="357" y="432"/>
      <point x="393" y="316"/>
      <point x="393" y="220" type="curve" smooth="yes"/>
      <point x="393" y="101"/>
      <point x="349" y="-2"/>
      <point x="238" y="-2" type="curve" smooth="yes"/>
      <point x="157" y="-2"/>
      <point x="122" y="54"/>
      <point x="122" y="120" type="curve" smooth="yes"/>
      <point x="122" y="132"/>
      <point x="123" y="144"/>
      <point x="126" y="157" type="curve"/>
      <point x="153" y="157" type="line"/>
      <point x="151" y="146"/>
      <point x="150" y="136"/>
      <point x="150" y="125" type="curve" smooth="yes"/>
      <point x="150" y="74"/>
      <point x="177" y="51"/>
      <point x="208" y="51" type="curve" smooth="yes"/>
      <point x="255" y="51"/>
      <point x="275" y="108"/>
      <point x="275" y="238" type="curve" smooth="yes"/>
      <point x="275" y="346"/>
      <point x="249" y="395"/>
      <point x="214" y="395" type="curve" smooth="yes"/>
      <point x="194" y="395"/>
      <point x="173" y="384"/>
      <point x="173" y="351" type="curve" smooth="yes"/>
      <point x="173" y="349"/>
      <point x="173" y="347"/>
      <point x="173" y="345" type="curve"/>
      <point x="197" y="332"/>
      <point x="210" y="312"/>
      <point x="210" y="288" type="curve" smooth="yes"/>
      <point x="210" y="238"/>
      <point x="176" y="212"/>
      <point x="126" y="212" type="curve" smooth="yes"/>
      <point x="68" y="212"/>
      <point x="33" y="261"/>
    </contour>
  </outline>
</glyph>
<glyph name="uni0DF4" format="1">
  <advance width="1742"/>
  <unicode hex="0DF4"/>
  <outline>
    <contour>
      <point x="1285" y="41" type="curve"/>
      <point x="1311" y="132" type="line"/>
      <point x="1162" y="40" type="line"/>
      <point x="1190" y="173" type="line"/>
      <point x="1037" y="73" type="line"/>
      <point x="1054" y="236" type="line"/>
      <point x="896" y="87" type="line"/>
      <point x="883" y="263" type="line"/>
      <point x="749" y="115" type="line"/>
      <point x="718" y="260" type="line"/>
      <point x="589" y="113" type="line"/>
      <point x="562" y="225" type="line"/>
      <point x="450" y="75" type="line"/>
      <point x="420" y="161" type="line"/>
      <point x="360" y="56" type="line"/>
      <point x="349" y="74"/>
      <point x="338" y="88"/>
      <point x="319" y="88" type="curve" smooth="yes"/>
      <point x="255" y="88"/>
      <point x="213" y="-2"/>
      <point x="126" y="-2" type="curve" smooth="yes"/>
      <point x="86" y="-2"/>
      <point x="50" y="22"/>
      <point x="50" y="70" type="curve" smooth="yes"/>
      <point x="50" y="106"/>
      <point x="73" y="136"/>
      <point x="112" y="136" type="curve" smooth="yes"/>
      <point x="149" y="136"/>
      <point x="169" y="107"/>
      <point x="169" y="79" type="curve" smooth="yes"/>
      <point x="169" y="65"/>
      <point x="163" y="48"/>
      <point x="154" y="40" type="curve"/>
      <point x="156" y="38"/>
      <point x="160" y="37"/>
      <point x="165" y="37" type="curve" smooth="yes"/>
      <point x="224" y="37"/>
      <point x="285" y="140"/>
      <point x="339" y="140" type="curve" smooth="yes"/>
      <point x="349" y="140"/>
      <point x="363" y="138"/>
      <point x="372" y="124" type="curve"/>
      <point x="454" y="266" type="line"/>
      <point x="493" y="167" type="line"/>
      <point x="620" y="337" type="line"/>
      <point x="650" y="216" type="line"/>
      <point x="787" y="374" type="line"/>
      <point x="819" y="225" type="line"/>
      <point x="967" y="395" type="line"/>
      <point x="981" y="200" type="line"/>
      <point x="1159" y="363" type="line"/>
      <point x="1135" y="166" type="line"/>
      <point x="1298" y="272" type="line"/>
      <point x="1265" y="130" type="line"/>
      <point x="1408" y="220" type="line"/>
      <point x="1376" y="133" type="line"/>
      <point x="1385" y="139"/>
      <point x="1396" y="140"/>
      <point x="1407" y="140" type="curve" smooth="yes"/>
      <point x="1460" y="140"/>
      <point x="1519" y="37"/>
      <point x="1579" y="37" type="curve" smooth="yes"/>
      <point x="1583" y="37"/>
      <point x="1588" y="38"/>
      <point x="1591" y="40" type="curve"/>
      <point x="1582" y="48"/>
      <point x="1577" y="62"/>
      <point x="1577" y="79" type="curve" smooth="yes"/>
      <point x="1577" y="105"/>
      <point x="1596" y="136"/>
      <point x="1634" y="136" type="curve" smooth="yes"/>
      <point x="1672" y="136"/>
      <point x="1695" y="106"/>
      <point x="1695" y="70" type="curve" smooth="yes"/>
      <point x="1695" y="22"/>
      <point x="1659" y="-2"/>
      <point x="1619" y="-2" type="curve" smooth="yes"/>
      <point x="1532" y="-2"/>
      <point x="1483" y="93"/>
      <point x="1409" y="93" type="curve" smooth="yes"/>
      <point x="1379" y="93"/>
      <point x="1341" y="82"/>
    </contour>
  </outline>
</glyph>
<glyph name="zwnj" format="1">
  <advance width="0"/>
  <unicode hex="200C"/>
  <outline>
    <contour>
      <point x="-34" y="-5" type="line"/>
      <point x="-34" y="775" type="line"/>
      <point x="34" y="775" type="line"/>
      <point x="34" y="-5" type="line"/>
    </contour>
  </outline>
</glyph>
<glyph name="zwj" format="1">
  <advance width="0"/>
  <unicode hex="200D"/>
  <outline>
    <contour>
      <point x="46" y="655" type="line"/>
      <point x="171" y="532" type="line"/>
      <point x="124" y="486" type="line"/>
      <point x="34" y="577" type="line"/>
      <point x="34" y="-4" type="line"/>
      <point x="-34" y="-4" type="line"/>
      <point x="-34" y="577" type="line"/>
      <point x="-124" y="486" type="line"/>
      <point x="-171" y="532" type="line"/>
      <point x="-46" y="655" type="line"/>
      <point x="-171" y="776" type="line"/>
      <point x="-124" y="823" type="line"/>
      <point x="0" y="699" type="line"/>
      <point x="124" y="823" type="line"/>
      <point x="171" y="776" type="line"/>
    </contour>
  </outline>
</glyph>
<glyph name="uni25CC" format="1">
  <advance width="558"/>
  <unicode hex="25CC"/>
  <outline>
    <contour>
      <point x="99" y="97" type="curve" smooth="yes"/>
      <point x="100" y="114"/>
      <point x="112" y="125"/>
      <point x="129" y="125" type="curve" smooth="yes"/>
      <point x="148" y="125"/>
      <point x="159" y="114"/>
      <point x="158" y="95" type="curve" smooth="yes"/>
      <point x="157" y="78"/>
      <point x="146" y="67"/>
      <point x="129" y="67" type="curve" smooth="yes"/>
      <point x="110" y="67"/>
      <point x="99" y="78"/>
    </contour>
    <contour>
      <point x="57" y="164" type="curve" smooth="yes"/>
      <point x="58" y="181"/>
      <point x="69" y="193"/>
      <point x="86" y="193" type="curve" smooth="yes"/>
      <point x="104" y="193"/>
      <point x="115" y="181"/>
      <point x="114" y="163" type="curve" smooth="yes"/>
      <point x="113" y="145"/>
      <point x="102" y="134"/>
      <point x="85" y="134" type="curve" smooth="yes"/>
      <point x="68" y="134"/>
      <point x="56" y="145"/>
    </contour>
    <contour>
      <point x="165" y="54" type="curve" smooth="yes"/>
      <point x="165" y="71"/>
      <point x="177" y="82"/>
      <point x="194" y="82" type="curve" smooth="yes"/>
      <point x="212" y="82"/>
      <point x="223" y="71"/>
      <point x="222" y="52" type="curve" smooth="yes"/>
      <point x="222" y="35"/>
      <point x="210" y="24"/>
      <point x="193" y="24" type="curve" smooth="yes"/>
      <point x="175" y="24"/>
      <point x="164" y="35"/>
    </contour>
    <contour>
      <point x="241" y="38" type="curve" smooth="yes"/>
      <point x="242" y="55"/>
      <point x="253" y="66"/>
      <point x="270" y="66" type="curve" smooth="yes"/>
      <point x="288" y="66"/>
      <point x="299" y="55"/>
      <point x="298" y="36" type="curve" smooth="yes"/>
      <point x="297" y="19"/>
      <point x="286" y="8"/>
      <point x="269" y="8" type="curve" smooth="yes"/>
      <point x="251" y="8"/>
      <point x="240" y="19"/>
    </contour>
    <contour>
      <point x="43" y="240" type="curve" smooth="yes"/>
      <point x="43" y="258"/>
      <point x="54" y="269"/>
      <point x="72" y="269" type="curve" smooth="yes"/>
      <point x="90" y="269"/>
      <point x="102" y="258"/>
      <point x="101" y="239" type="curve" smooth="yes"/>
      <point x="100" y="222"/>
      <point x="89" y="211"/>
      <point x="72" y="211" type="curve" smooth="yes"/>
      <point x="53" y="211"/>
      <point x="42" y="222"/>
    </contour>
    <contour>
      <point x="60" y="317" type="curve" smooth="yes"/>
      <point x="62" y="335"/>
      <point x="73" y="346"/>
      <point x="90" y="346" type="curve" smooth="yes"/>
      <point x="107" y="346"/>
      <point x="118" y="335"/>
      <point x="117" y="316" type="curve" smooth="yes"/>
      <point x="116" y="299"/>
      <point x="106" y="287"/>
      <point x="90" y="287" type="curve" smooth="yes"/>
      <point x="71" y="287"/>
      <point x="59" y="299"/>
    </contour>
    <contour>
      <point x="320" y="54" type="curve" smooth="yes"/>
      <point x="320" y="71"/>
      <point x="332" y="82"/>
      <point x="349" y="82" type="curve" smooth="yes"/>
      <point x="367" y="82"/>
      <point x="378" y="71"/>
      <point x="377" y="52" type="curve" smooth="yes"/>
      <point x="377" y="35"/>
      <point x="365" y="24"/>
      <point x="348" y="24" type="curve" smooth="yes"/>
      <point x="330" y="24"/>
      <point x="319" y="35"/>
    </contour>
    <contour>
      <point x="105" y="384" type="curve" smooth="yes"/>
      <point x="107" y="401"/>
      <point x="118" y="412"/>
      <point x="135" y="412" type="curve" smooth="yes"/>
      <point x="153" y="412"/>
      <point x="164" y="401"/>
      <point x="163" y="383" type="curve" smooth="yes"/>
      <point x="162" y="366"/>
      <point x="150" y="355"/>
      <point x="133" y="355" type="curve" smooth="yes"/>
      <point x="115" y="355"/>
      <point x="104" y="366"/>
    </contour>
    <contour>
      <point x="387" y="97" type="curve" smooth="yes"/>
      <point x="388" y="114"/>
      <point x="399" y="125"/>
      <point x="416" y="125" type="curve" smooth="yes"/>
      <point x="434" y="125"/>
      <point x="445" y="114"/>
      <point x="444" y="95" type="curve" smooth="yes"/>
      <point x="443" y="78"/>
      <point x="431" y="67"/>
      <point x="415" y="67" type="curve" smooth="yes"/>
      <point x="397" y="67"/>
      <point x="386" y="78"/>
    </contour>
    <contour>
      <point x="171" y="428" type="curve" smooth="yes"/>
      <point x="172" y="445"/>
      <point x="183" y="457"/>
      <point x="201" y="457" type="curve" smooth="yes"/>
      <point x="219" y="457"/>
      <point x="230" y="445"/>
      <point x="229" y="427" type="curve" smooth="yes"/>
      <point x="229" y="409"/>
      <point x="217" y="398"/>
      <point x="200" y="398" type="curve" smooth="yes"/>
      <point x="182" y="398"/>
      <point x="171" y="409"/>
    </contour>
    <contour>
      <point x="431" y="164" type="curve" smooth="yes"/>
      <point x="432" y="181"/>
      <point x="443" y="193"/>
      <point x="461" y="193" type="curve" smooth="yes"/>
      <point x="479" y="193"/>
      <point x="491" y="181"/>
      <point x="490" y="163" type="curve" smooth="yes"/>
      <point x="488" y="145"/>
      <point x="477" y="134"/>
      <point x="459" y="134" type="curve" smooth="yes"/>
      <point x="441" y="134"/>
      <point x="430" y="145"/>
    </contour>
    <contour>
      <point x="249" y="443" type="curve" smooth="yes"/>
      <point x="250" y="461"/>
      <point x="261" y="472"/>
      <point x="278" y="472" type="curve" smooth="yes"/>
      <point x="296" y="472"/>
      <point x="307" y="461"/>
      <point x="306" y="442" type="curve" smooth="yes"/>
      <point x="305" y="425"/>
      <point x="294" y="413"/>
      <point x="277" y="413" type="curve" smooth="yes"/>
      <point x="260" y="413"/>
      <point x="249" y="425"/>
    </contour>
    <contour>
      <point x="448" y="240" type="curve" smooth="yes"/>
      <point x="448" y="258"/>
      <point x="459" y="269"/>
      <point x="477" y="269" type="curve" smooth="yes"/>
      <point x="495" y="269"/>
      <point x="507" y="258"/>
      <point x="506" y="239" type="curve" smooth="yes"/>
      <point x="505" y="222"/>
      <point x="494" y="211"/>
      <point x="477" y="211" type="curve" smooth="yes"/>
      <point x="458" y="211"/>
      <point x="447" y="222"/>
    </contour>
    <contour>
      <point x="326" y="428" type="curve" smooth="yes"/>
      <point x="327" y="445"/>
      <point x="338" y="457"/>
      <point x="356" y="457" type="curve" smooth="yes"/>
      <point x="374" y="457"/>
      <point x="385" y="445"/>
      <point x="384" y="427" type="curve" smooth="yes"/>
      <point x="384" y="409"/>
      <point x="372" y="398"/>
      <point x="355" y="398" type="curve" smooth="yes"/>
      <point x="337" y="398"/>
      <point x="326" y="409"/>
    </contour>
    <contour>
      <point x="434" y="317" type="curve" smooth="yes"/>
      <point x="435" y="335"/>
      <point x="446" y="346"/>
      <point x="464" y="346" type="curve" smooth="yes"/>
      <point x="482" y="346"/>
      <point x="494" y="335"/>
      <point x="493" y="316" type="curve" smooth="yes"/>
      <point x="492" y="299"/>
      <point x="481" y="287"/>
      <point x="463" y="287" type="curve" smooth="yes"/>
      <point x="445" y="287"/>
      <point x="433" y="299"/>
    </contour>
    <contour>
      <point x="391" y="384" type="curve" smooth="yes"/>
      <point x="392" y="401"/>
      <point x="403" y="412"/>
      <point x="421" y="412" type="curve" smooth="yes"/>
      <point x="439" y="412"/>
      <point x="451" y="401"/>
      <point x="450" y="383" type="curve" smooth="yes"/>
      <point x="449" y="366"/>
      <point x="437" y="355"/>
      <point x="420" y="355" type="curve" smooth="yes"/>
      <point x="401" y="355"/>
      <point x="390" y="366"/>
    </contour>
  </outline>
</glyph>
<glyph name="si_BI" format="1">
  <advance width="619"/>
  <outline>
    <contour>
      <point x="66" y="562" type="curve" smooth="yes"/>
      <point x="66" y="652"/>
      <point x="197" y="670"/>
      <point x="297" y="670" type="curve" smooth="yes"/>
      <point x="433" y="670"/>
      <point x="543" y="639"/>
      <point x="543" y="554" type="curve" smooth="yes"/>
      <point x="543" y="502"/>
      <point x="489" y="480"/>
      <point x="455" y="474" type="curve"/>
      <point x="405" y="490" type="line"/>
      <point x="441" y="491"/>
      <point x="477" y="505"/>
      <point x="477" y="532" type="curve" smooth="yes"/>
      <point x="477" y="576"/>
      <point x="405" y="591"/>
      <point x="297" y="591" type="curve" smooth="yes"/>
      <point x="222" y="591"/>
      <point x="120" y="584"/>
      <point x="120" y="543" type="curve" smooth="yes"/>
      <point x="120" y="510"/>
      <point x="173" y="508"/>
      <point x="275" y="504" type="curve" smooth="yes"/>
      <point x="340" y="501"/>
      <point x="434" y="499"/>
      <point x="489" y="459" type="curve" smooth="yes"/>
      <point x="538" y="423"/>
      <point x="575" y="357"/>
      <point x="575" y="279" type="curve"/>
      <point x="512" y="316" type="line"/>
      <point x="512" y="350"/>
      <point x="505" y="394"/>
      <point x="477" y="422" type="curve" smooth="yes"/>
      <point x="432" y="469"/>
      <point x="377" y="471"/>
      <point x="276" y="477" type="curve" smooth="yes"/>
      <point x="187" y="482"/>
      <point x="66" y="476"/>
    </contour>
    <contour>
      <point x="102" y="76" type="curve" smooth="yes"/>
      <point x="102" y="50"/>
      <point x="124" y="28"/>
      <point x="150" y="28" type="curve" smooth="yes"/>
      <point x="176" y="28"/>
      <point x="198" y="50"/>
      <point x="198" y="76" type="curve" smooth="yes"/>
      <point x="198" y="102"/>
      <point x="176" y="124"/>
      <point x="150" y="124" type="curve" smooth="yes"/>
      <point x="124" y="124"/>
      <point x="102" y="102"/>
    </contour>
    <contour>
      <point x="33" y="187" type="curve" smooth="yes"/>
      <point x="33" y="314"/>
      <point x="123" y="396"/>
      <point x="241" y="396" type="curve" smooth="yes"/>
      <point x="333" y="396"/>
      <point x="410" y="351"/>
      <point x="410" y="263" type="curve" smooth="yes"/>
      <point x="410" y="149"/>
      <point x="296" y="173"/>
      <point x="296" y="119" type="curve" smooth="yes"/>
      <point x="296" y="97"/>
      <point x="318" y="91"/>
      <point x="339" y="91" type="curve" smooth="yes"/>
      <point x="441" y="91"/>
      <point x="512" y="214"/>
      <point x="512" y="321" type="curve"/>
      <point x="530" y="308"/>
      <point x="551" y="311"/>
      <point x="575" y="282" type="curve"/>
      <point x="575" y="141"/>
      <point x="518" y="-2"/>
      <point x="381" y="-2" type="curve" smooth="yes"/>
      <point x="308" y="-2"/>
      <point x="263" y="45"/>
      <point x="263" y="104" type="curve" smooth="yes"/>
      <point x="263" y="189"/>
      <point x="349" y="167"/>
      <point x="349" y="232" type="curve" smooth="yes"/>
      <point x="349" y="266"/>
      <point x="309" y="290"/>
      <point x="237" y="290" type="curve" smooth="yes"/>
      <point x="146" y="290"/>
      <point x="68" y="236"/>
      <point x="68" y="146" type="curve" smooth="yes"/>
      <point x="68" y="132"/>
      <point x="71" y="105"/>
      <point x="77" y="91" type="curve"/>
      <point x="81" y="126"/>
      <point x="109" y="153"/>
      <point x="150" y="153" type="curve" smooth="yes"/>
      <point x="193" y="153"/>
      <point x="229" y="119"/>
      <point x="229" y="77" type="curve" smooth="yes"/>
      <point x="229" y="29"/>
      <point x="190" y="-1"/>
      <point x="150" y="-1" type="curve" smooth="yes"/>
      <point x="68" y="-1"/>
      <point x="33" y="91"/>
    </contour>
  </outline>
</glyph>
<glyph name="si_BRIi" format="1">
  <advance width="619"/>
  <outline>
    <contour>
      <point x="392" y="544" type="curve" smooth="yes"/>
      <point x="392" y="573"/>
      <point x="419" y="597"/>
      <point x="452" y="597" type="curve" smooth="yes"/>
      <point x="484" y="597"/>
      <point x="511" y="573"/>
      <point x="511" y="544" type="curve" smooth="yes"/>
      <point x="511" y="514"/>
      <point x="484" y="490"/>
      <point x="452" y="490" type="curve" smooth="yes"/>
      <point x="419" y="490"/>
      <point x="392" y="514"/>
    </contour>
    <contour>
      <point x="67" y="562" type="curve" smooth="yes"/>
      <point x="67" y="476"/>
      <point x="188" y="482"/>
      <point x="277" y="477" type="curve" smooth="yes"/>
      <point x="378" y="471"/>
      <point x="432" y="471"/>
      <point x="479" y="418" type="curve" smooth="yes"/>
      <point x="507" y="387"/>
      <point x="512" y="347"/>
      <point x="512" y="315" type="curve"/>
      <point x="514" y="310"/>
      <point x="575" y="274"/>
      <point x="575" y="274" type="curve"/>
      <point x="575" y="356"/>
      <point x="539" y="423"/>
      <point x="490" y="459" type="curve" smooth="yes"/>
      <point x="435" y="499"/>
      <point x="341" y="501"/>
      <point x="276" y="504" type="curve" smooth="yes"/>
      <point x="174" y="508"/>
      <point x="118" y="510"/>
      <point x="118" y="544" type="curve" smooth="yes"/>
      <point x="118" y="588"/>
      <point x="221" y="595"/>
      <point x="297" y="595" type="curve" smooth="yes"/>
      <point x="335" y="595"/>
      <point x="367" y="593"/>
      <point x="376" y="592" type="curve"/>
      <point x="371" y="586"/>
      <point x="360" y="571"/>
      <point x="360" y="547" type="curve" smooth="yes"/>
      <point x="360" y="494"/>
      <point x="408" y="463"/>
      <point x="452" y="463" type="curve" smooth="yes"/>
      <point x="496" y="463"/>
      <point x="544" y="494"/>
      <point x="544" y="547" type="curve" smooth="yes"/>
      <point x="544" y="640"/>
      <point x="434" y="670"/>
      <point x="298" y="670" type="curve" smooth="yes"/>
      <point x="198" y="670"/>
      <point x="67" y="652"/>
    </contour>
    <contour>
      <point x="102" y="76" type="curve" smooth="yes"/>
      <point x="102" y="50"/>
      <point x="124" y="28"/>
      <point x="150" y="28" type="curve" smooth="yes"/>
      <point x="176" y="28"/>
      <point x="198" y="50"/>
      <point x="198" y="76" type="curve" smooth="yes"/>
      <point x="198" y="102"/>
      <point x="176" y="124"/>
      <point x="150" y="124" type="curve" smooth="yes"/>
      <point x="124" y="124"/>
      <point x="102" y="102"/>
    </contour>
    <contour>
      <point x="33" y="187" type="curve" smooth="yes"/>
      <point x="33" y="314"/>
      <point x="123" y="396"/>
      <point x="241" y="396" type="curve" smooth="yes"/>
      <point x="333" y="396"/>
      <point x="410" y="351"/>
      <point x="410" y="263" type="curve" smooth="yes"/>
      <point x="410" y="149"/>
      <point x="296" y="173"/>
      <point x="296" y="119" type="curve" smooth="yes"/>
      <point x="296" y="97"/>
      <point x="318" y="91"/>
      <point x="339" y="91" type="curve" smooth="yes"/>
      <point x="441" y="91"/>
      <point x="512" y="214"/>
      <point x="512" y="321" type="curve"/>
      <point x="530" y="308"/>
      <point x="551" y="306"/>
      <point x="575" y="277" type="curve"/>
      <point x="575" y="141"/>
      <point x="518" y="-2"/>
      <point x="381" y="-2" type="curve" smooth="yes"/>
      <point x="308" y="-2"/>
      <point x="263" y="45"/>
      <point x="263" y="104" type="curve" smooth="yes"/>
      <point x="263" y="189"/>
      <point x="349" y="167"/>
      <point x="349" y="232" type="curve" smooth="yes"/>
      <point x="349" y="266"/>
      <point x="309" y="290"/>
      <point x="237" y="290" type="curve" smooth="yes"/>
      <point x="146" y="290"/>
      <point x="68" y="236"/>
      <point x="68" y="146" type="curve" smooth="yes"/>
      <point x="68" y="132"/>
      <point x="71" y="105"/>
      <point x="77" y="91" type="curve"/>
      <point x="81" y="126"/>
      <point x="109" y="153"/>
      <point x="150" y="153" type="curve" smooth="yes"/>
      <point x="193" y="153"/>
      <point x="229" y="119"/>
      <point x="229" y="77" type="curve" smooth="yes"/>
      <point x="229" y="29"/>
      <point x="190" y="-1"/>
      <point x="150" y="-1" type="curve" smooth="yes"/>
      <point x="68" y="-1"/>
      <point x="33" y="91"/>
    </contour>
    <contour>
      <point x="58" y="-44" type="curve"/>
      <point x="88" y="-44" type="line"/>
      <point x="124" y="-97"/>
      <point x="182" y="-128"/>
      <point x="286" y="-128" type="curve" smooth="yes"/>
      <point x="428" y="-128"/>
      <point x="537" y="-49"/>
      <point x="537" y="59" type="curve" smooth="yes"/>
      <point x="537" y="76"/>
      <point x="534" y="91"/>
      <point x="527" y="102" type="curve"/>
      <point x="542" y="133" type="line"/>
      <point x="560" y="106"/>
      <point x="568" y="75"/>
      <point x="568" y="38" type="curve" smooth="yes"/>
      <point x="568" y="-124"/>
      <point x="444" y="-219"/>
      <point x="301" y="-219" type="curve" smooth="yes"/>
      <point x="175" y="-219"/>
      <point x="95" y="-153"/>
    </contour>
  </outline>
</glyph>
<glyph name="si_BRa" format="1">
  <advance width="619"/>
  <outline>
    <contour>
      <point x="58" y="-44" type="curve"/>
      <point x="88" y="-44" type="line"/>
      <point x="124" y="-97"/>
      <point x="182" y="-128"/>
      <point x="286" y="-128" type="curve" smooth="yes"/>
      <point x="428" y="-128"/>
      <point x="537" y="-49"/>
      <point x="537" y="59" type="curve" smooth="yes"/>
      <point x="537" y="76"/>
      <point x="534" y="91"/>
      <point x="527" y="102" type="curve"/>
      <point x="542" y="133" type="line"/>
      <point x="560" y="106"/>
      <point x="568" y="75"/>
      <point x="568" y="38" type="curve" smooth="yes"/>
      <point x="568" y="-124"/>
      <point x="444" y="-219"/>
      <point x="301" y="-219" type="curve" smooth="yes"/>
      <point x="175" y="-219"/>
      <point x="95" y="-153"/>
    </contour>
    <component base="uni0DB6"/>
  </outline>
</glyph>
<glyph name="si_BU" format="1">
  <advance width="619"/>
  <outline>
    <contour>
      <point x="49" y="-142" type="curve" smooth="yes"/>
      <point x="49" y="-90"/>
      <point x="96" y="-50"/>
      <point x="151" y="-50" type="curve" smooth="yes"/>
      <point x="193" y="-50"/>
      <point x="230" y="-74"/>
      <point x="245" y="-110" type="curve"/>
      <point x="213" y="-122" type="line"/>
      <point x="206" y="-103"/>
      <point x="184" y="-81"/>
      <point x="151" y="-81" type="curve" smooth="yes"/>
      <point x="114" y="-81"/>
      <point x="84" y="-109"/>
      <point x="84" y="-142" type="curve" smooth="yes"/>
      <point x="84" y="-172"/>
      <point x="106" y="-194"/>
      <point x="175" y="-194" type="curve" smooth="yes"/>
      <point x="531" y="-194" type="line"/>
      <point x="531" y="128" type="line"/>
      <point x="566" y="219" type="line"/>
      <point x="566" y="-235" type="line"/>
      <point x="155" y="-235" type="line" smooth="yes"/>
      <point x="79" y="-235"/>
      <point x="49" y="-186"/>
    </contour>
    <component base="si_Ba"/>
  </outline>
</glyph>
<glyph name="si_BUu" format="1">
  <advance width="619"/>
  <outline>
    <contour>
      <point x="49" y="-138" type="curve" smooth="yes"/>
      <point x="49" y="-80"/>
      <point x="98" y="-40"/>
      <point x="151" y="-40" type="curve" smooth="yes"/>
      <point x="193" y="-40"/>
      <point x="226" y="-55"/>
      <point x="248" y="-91" type="curve"/>
      <point x="216" y="-102" type="line"/>
      <point x="205" y="-84"/>
      <point x="185" y="-69"/>
      <point x="156" y="-69" type="curve" smooth="yes"/>
      <point x="117" y="-69"/>
      <point x="90" y="-94"/>
      <point x="90" y="-123" type="curve" smooth="yes"/>
      <point x="90" y="-156"/>
      <point x="119" y="-175"/>
      <point x="156" y="-175" type="curve" smooth="yes"/>
      <point x="235" y="-175"/>
      <point x="305" y="-115"/>
      <point x="408" y="-115" type="curve" smooth="yes"/>
      <point x="457" y="-115"/>
      <point x="504" y="-135"/>
      <point x="531" y="-167" type="curve"/>
      <point x="531" y="152" type="line"/>
      <point x="565" y="212" type="line"/>
      <point x="565" y="-231" type="line"/>
      <point x="541" y="-231" type="line"/>
      <point x="526" y="-195"/>
      <point x="481" y="-145"/>
      <point x="416" y="-145" type="curve" smooth="yes"/>
      <point x="325" y="-145"/>
      <point x="258" y="-237"/>
      <point x="160" y="-237" type="curve" smooth="yes"/>
      <point x="105" y="-237"/>
      <point x="49" y="-206"/>
    </contour>
    <component base="uni0DB6"/>
  </outline>
</glyph>
<glyph name="si_B.halant" format="1">
  <advance width="619"/>
  <outline>
    <contour>
      <point x="101" y="76" type="curve" smooth="yes"/>
      <point x="101" y="50"/>
      <point x="124" y="27"/>
      <point x="150" y="27" type="curve" smooth="yes"/>
      <point x="176" y="27"/>
      <point x="199" y="50"/>
      <point x="199" y="76" type="curve" smooth="yes"/>
      <point x="199" y="102"/>
      <point x="176" y="125"/>
      <point x="150" y="125" type="curve" smooth="yes"/>
      <point x="124" y="125"/>
      <point x="101" y="102"/>
    </contour>
    <contour>
      <point x="140" y="540" type="curve" smooth="yes"/>
      <point x="140" y="529"/>
      <point x="161" y="525"/>
      <point x="161" y="515" type="curve" smooth="yes"/>
      <point x="161" y="513"/>
      <point x="160" y="510"/>
      <point x="158" y="508" type="curve"/>
      <point x="191" y="514"/>
      <point x="231" y="519"/>
      <point x="277" y="519" type="curve" smooth="yes"/>
      <point x="385" y="519"/>
      <point x="477" y="485"/>
      <point x="525" y="422" type="curve"/>
      <point x="493" y="530"/>
      <point x="402" y="579"/>
      <point x="290" y="579" type="curve" smooth="yes"/>
      <point x="216" y="579"/>
      <point x="140" y="562"/>
    </contour>
    <contour>
      <point x="33" y="187" type="curve" smooth="yes"/>
      <point x="33" y="314"/>
      <point x="120" y="396"/>
      <point x="247" y="396" type="curve" smooth="yes"/>
      <point x="332" y="396"/>
      <point x="409" y="349"/>
      <point x="409" y="267" type="curve" smooth="yes"/>
      <point x="409" y="142"/>
      <point x="296" y="177"/>
      <point x="296" y="117" type="curve" smooth="yes"/>
      <point x="296" y="100"/>
      <point x="311" y="91"/>
      <point x="340" y="91" type="curve" smooth="yes"/>
      <point x="446" y="91"/>
      <point x="509" y="216"/>
      <point x="509" y="316" type="curve" smooth="yes"/>
      <point x="509" y="436"/>
      <point x="415" y="493"/>
      <point x="269" y="493" type="curve" smooth="yes"/>
      <point x="233" y="493"/>
      <point x="198" y="490"/>
      <point x="162" y="482" type="curve" smooth="yes"/>
      <point x="123" y="474"/>
      <point x="83" y="461"/>
      <point x="40" y="441" type="curve"/>
      <point x="40" y="473" type="line"/>
      <point x="71" y="485"/>
      <point x="123" y="499"/>
      <point x="123" y="508" type="curve" smooth="yes"/>
      <point x="123" y="520"/>
      <point x="94" y="524"/>
      <point x="94" y="545" type="curve" smooth="yes"/>
      <point x="94" y="582"/>
      <point x="160" y="629"/>
      <point x="276" y="629" type="curve" smooth="yes"/>
      <point x="484" y="629"/>
      <point x="555" y="490"/>
      <point x="567" y="356" type="curve" smooth="yes"/>
      <point x="570" y="343"/>
      <point x="575" y="300"/>
      <point x="575" y="267" type="curve" smooth="yes"/>
      <point x="574" y="138"/>
      <point x="517" y="-2"/>
      <point x="381" y="-2" type="curve" smooth="yes"/>
      <point x="316" y="-2"/>
      <point x="263" y="37"/>
      <point x="263" y="107" type="curve" smooth="yes"/>
      <point x="263" y="187"/>
      <point x="349" y="166"/>
      <point x="349" y="234" type="curve" smooth="yes"/>
      <point x="349" y="274"/>
      <point x="290" y="290"/>
      <point x="237" y="290" type="curve" smooth="yes"/>
      <point x="148" y="290"/>
      <point x="68" y="240"/>
      <point x="68" y="141" type="curve" smooth="yes"/>
      <point x="68" y="122"/>
      <point x="72" y="101"/>
      <point x="77" y="91" type="curve"/>
      <point x="81" y="126"/>
      <point x="109" y="153"/>
      <point x="150" y="153" type="curve" smooth="yes"/>
      <point x="193" y="153"/>
      <point x="229" y="119"/>
      <point x="229" y="77" type="curve" smooth="yes"/>
      <point x="229" y="29"/>
      <point x="190" y="-1"/>
      <point x="150" y="-1" type="curve" smooth="yes"/>
      <point x="68" y="-1"/>
      <point x="33" y="91"/>
    </contour>
  </outline>
</glyph>
<glyph name="si_Ba.reph" format="1">
  <advance width="619"/>
  <outline>
    <contour>
      <point x="261" y="628" type="curve" smooth="yes"/>
      <point x="261" y="648"/>
      <point x="279" y="664"/>
      <point x="301" y="664" type="curve" smooth="yes"/>
      <point x="323" y="664"/>
      <point x="341" y="648"/>
      <point x="341" y="628" type="curve" smooth="yes"/>
      <point x="341" y="608"/>
      <point x="323" y="592"/>
      <point x="301" y="592" type="curve" smooth="yes"/>
      <point x="279" y="592"/>
      <point x="261" y="608"/>
    </contour>
    <contour>
      <point x="158" y="647" type="curve" smooth="yes"/>
      <point x="158" y="591"/>
      <point x="217" y="562"/>
      <point x="276" y="562" type="curve" smooth="yes"/>
      <point x="334" y="562"/>
      <point x="369" y="588"/>
      <point x="369" y="627" type="curve" smooth="yes"/>
      <point x="369" y="662"/>
      <point x="341" y="689"/>
      <point x="300" y="689" type="curve" smooth="yes"/>
      <point x="264" y="689"/>
      <point x="233" y="664"/>
      <point x="233" y="629" type="curve" smooth="yes"/>
      <point x="233" y="608"/>
      <point x="245" y="594"/>
      <point x="253" y="588" type="curve"/>
      <point x="233" y="590"/>
      <point x="190" y="608"/>
      <point x="190" y="647" type="curve" smooth="yes"/>
      <point x="190" y="698"/>
      <point x="244" y="720"/>
      <point x="297" y="720" type="curve" smooth="yes"/>
      <point x="358" y="720"/>
      <point x="408" y="689"/>
      <point x="408" y="633" type="curve" smooth="yes"/>
      <point x="408" y="606"/>
      <point x="392" y="581"/>
      <point x="379" y="569" type="curve"/>
      <point x="414" y="569" type="line"/>
      <point x="431" y="588"/>
      <point x="439" y="610"/>
      <point x="439" y="634" type="curve" smooth="yes"/>
      <point x="439" y="705"/>
      <point x="375" y="748"/>
      <point x="298" y="748" type="curve" smooth="yes"/>
      <point x="216" y="748"/>
      <point x="158" y="711"/>
    </contour>
    <contour>
      <point x="102" y="76" type="curve" smooth="yes"/>
      <point x="102" y="50"/>
      <point x="124" y="28"/>
      <point x="150" y="28" type="curve" smooth="yes"/>
      <point x="176" y="28"/>
      <point x="198" y="50"/>
      <point x="198" y="76" type="curve" smooth="yes"/>
      <point x="198" y="102"/>
      <point x="176" y="124"/>
      <point x="150" y="124" type="curve" smooth="yes"/>
      <point x="124" y="124"/>
      <point x="102" y="102"/>
    </contour>
    <contour>
      <point x="33" y="187" type="curve" smooth="yes"/>
      <point x="33" y="314"/>
      <point x="123" y="396"/>
      <point x="241" y="396" type="curve" smooth="yes"/>
      <point x="333" y="396"/>
      <point x="410" y="351"/>
      <point x="410" y="263" type="curve" smooth="yes"/>
      <point x="410" y="149"/>
      <point x="296" y="173"/>
      <point x="296" y="119" type="curve" smooth="yes"/>
      <point x="296" y="97"/>
      <point x="318" y="91"/>
      <point x="339" y="91" type="curve" smooth="yes"/>
      <point x="441" y="91"/>
      <point x="512" y="221"/>
      <point x="512" y="342" type="curve" smooth="yes"/>
      <point x="512" y="468"/>
      <point x="430" y="559"/>
      <point x="292" y="559" type="curve" smooth="yes"/>
      <point x="198" y="559"/>
      <point x="135" y="529"/>
      <point x="96" y="470" type="curve"/>
      <point x="64" y="470" type="line"/>
      <point x="99" y="542"/>
      <point x="179" y="585"/>
      <point x="292" y="585" type="curve" smooth="yes"/>
      <point x="470" y="585"/>
      <point x="575" y="465"/>
      <point x="575" y="284" type="curve" smooth="yes"/>
      <point x="575" y="141"/>
      <point x="518" y="-2"/>
      <point x="381" y="-2" type="curve" smooth="yes"/>
      <point x="308" y="-2"/>
      <point x="263" y="45"/>
      <point x="263" y="104" type="curve" smooth="yes"/>
      <point x="263" y="189"/>
      <point x="349" y="167"/>
      <point x="349" y="232" type="curve" smooth="yes"/>
      <point x="349" y="266"/>
      <point x="309" y="290"/>
      <point x="237" y="290" type="curve" smooth="yes"/>
      <point x="146" y="290"/>
      <point x="68" y="236"/>
      <point x="68" y="146" type="curve" smooth="yes"/>
      <point x="68" y="132"/>
      <point x="71" y="105"/>
      <point x="77" y="91" type="curve"/>
      <point x="81" y="126"/>
      <point x="109" y="153"/>
      <point x="150" y="153" type="curve" smooth="yes"/>
      <point x="193" y="153"/>
      <point x="229" y="119"/>
      <point x="229" y="77" type="curve" smooth="yes"/>
      <point x="229" y="29"/>
      <point x="190" y="-1"/>
      <point x="150" y="-1" type="curve" smooth="yes"/>
      <point x="68" y="-1"/>
      <point x="33" y="91"/>
    </contour>
  </outline>
</glyph>
<glyph name="si_BhI" format="1">
  <advance width="670"/>
  <outline>
    <contour>
      <point x="178" y="537" type="curve" smooth="yes"/>
      <point x="178" y="628"/>
      <point x="277" y="667"/>
      <point x="379" y="667" type="curve" smooth="yes"/>
      <point x="485" y="667"/>
      <point x="587" y="618"/>
      <point x="587" y="523" type="curve" smooth="yes"/>
      <point x="587" y="461"/>
      <point x="548" y="414"/>
      <point x="467" y="408" type="curve"/>
      <point x="449" y="431" type="line"/>
      <point x="452" y="431"/>
      <point x="455" y="431"/>
      <point x="457" y="431" type="curve" smooth="yes"/>
      <point x="515" y="431"/>
      <point x="549" y="465"/>
      <point x="549" y="502" type="curve" smooth="yes"/>
      <point x="549" y="560"/>
      <point x="464" y="576"/>
      <point x="384" y="576" type="curve" smooth="yes"/>
      <point x="303" y="576"/>
      <point x="239" y="548"/>
      <point x="239" y="507" type="curve" smooth="yes"/>
      <point x="239" y="455"/>
      <point x="353" y="431"/>
      <point x="439" y="431" type="curve" smooth="yes"/>
      <point x="440" y="431"/>
      <point x="440" y="431"/>
      <point x="441" y="432" type="curve"/>
      <point x="425" y="409" type="line"/>
      <point x="265" y="412"/>
      <point x="178" y="462"/>
    </contour>
    <component base="uni0DB7"/>
  </outline>
</glyph>
<glyph name="si_BhIi" format="1">
  <advance width="670"/>
  <outline>
    <contour>
      <point x="421" y="520" type="curve" smooth="yes"/>
      <point x="421" y="553"/>
      <point x="451" y="581"/>
      <point x="488" y="581" type="curve" smooth="yes"/>
      <point x="526" y="581"/>
      <point x="556" y="553"/>
      <point x="556" y="520" type="curve" smooth="yes"/>
      <point x="556" y="487"/>
      <point x="526" y="459"/>
      <point x="488" y="459" type="curve" smooth="yes"/>
      <point x="451" y="459"/>
      <point x="421" y="487"/>
    </contour>
    <contour>
      <point x="178" y="537" type="curve" smooth="yes"/>
      <point x="178" y="462"/>
      <point x="265" y="410"/>
      <point x="425" y="407" type="curve"/>
      <point x="441" y="432" type="line"/>
      <point x="440" y="431"/>
      <point x="440" y="431"/>
      <point x="439" y="431" type="curve" smooth="yes"/>
      <point x="353" y="431"/>
      <point x="239" y="455"/>
      <point x="239" y="507" type="curve" smooth="yes"/>
      <point x="239" y="548"/>
      <point x="303" y="576"/>
      <point x="384" y="576" type="curve" smooth="yes"/>
      <point x="396" y="576"/>
      <point x="404" y="576"/>
      <point x="415" y="575" type="curve"/>
      <point x="405" y="566"/>
      <point x="389" y="547"/>
      <point x="389" y="520" type="curve" smooth="yes"/>
      <point x="389" y="463"/>
      <point x="443" y="431"/>
      <point x="487" y="431" type="curve" smooth="yes"/>
      <point x="530" y="431"/>
      <point x="587" y="457"/>
      <point x="587" y="525" type="curve" smooth="yes"/>
      <point x="587" y="618"/>
      <point x="485" y="667"/>
      <point x="379" y="667" type="curve" smooth="yes"/>
      <point x="277" y="667"/>
      <point x="178" y="628"/>
    </contour>
  </outline>
</glyph>
<glyph name="si_BhRIi" format="1">
  <advance width="670"/>
  <outline>
    <contour>
      <point x="421" y="520" type="curve" smooth="yes"/>
      <point x="421" y="486"/>
      <point x="450" y="459"/>
      <point x="488" y="459" type="curve" smooth="yes"/>
      <point x="526" y="459"/>
      <point x="556" y="486"/>
      <point x="556" y="520" type="curve" smooth="yes"/>
      <point x="556" y="554"/>
      <point x="526" y="581"/>
      <point x="488" y="581" type="curve" smooth="yes"/>
      <point x="450" y="581"/>
      <point x="421" y="554"/>
    </contour>
    <contour>
      <point x="178" y="537" type="curve" smooth="yes"/>
      <point x="178" y="628"/>
      <point x="277" y="667"/>
      <point x="379" y="667" type="curve" smooth="yes"/>
      <point x="485" y="667"/>
      <point x="587" y="618"/>
      <point x="587" y="525" type="curve" smooth="yes"/>
      <point x="587" y="457"/>
      <point x="530" y="431"/>
      <point x="487" y="431" type="curve" smooth="yes"/>
      <point x="443" y="431"/>
      <point x="389" y="463"/>
      <point x="389" y="520" type="curve" smooth="yes"/>
      <point x="389" y="547"/>
      <point x="405" y="566"/>
      <point x="415" y="575" type="curve"/>
      <point x="404" y="576"/>
      <point x="396" y="576"/>
      <point x="384" y="576" type="curve" smooth="yes"/>
      <point x="303" y="576"/>
      <point x="239" y="548"/>
      <point x="239" y="507" type="curve" smooth="yes"/>
      <point x="239" y="455"/>
      <point x="353" y="431"/>
      <point x="439" y="431" type="curve" smooth="yes"/>
      <point x="440" y="431"/>
      <point x="440" y="431"/>
      <point x="441" y="432" type="curve"/>
      <point x="425" y="407" type="line"/>
      <point x="265" y="410"/>
      <point x="178" y="462"/>
    </contour>
    <contour>
      <point x="76" y="-44" type="curve"/>
      <point x="104" y="-44" type="line"/>
      <point x="139" y="-101"/>
      <point x="199" y="-128"/>
      <point x="310" y="-128" type="curve" smooth="yes"/>
      <point x="459" y="-128"/>
      <point x="573" y="-50"/>
      <point x="573" y="59" type="curve" smooth="yes"/>
      <point x="573" y="76"/>
      <point x="569" y="92"/>
      <point x="562" y="102" type="curve"/>
      <point x="575" y="133" type="line"/>
      <point x="593" y="106"/>
      <point x="602" y="75"/>
      <point x="602" y="38" type="curve" smooth="yes"/>
      <point x="602" y="-124"/>
      <point x="480" y="-219"/>
      <point x="330" y="-219" type="curve" smooth="yes"/>
      <point x="193" y="-219"/>
      <point x="113" y="-153"/>
    </contour>
    <component base="uni0DB7"/>
  </outline>
</glyph>
<glyph name="si_BhRa" format="1">
  <advance width="670"/>
  <outline>
    <contour>
      <point x="76" y="-44" type="curve"/>
      <point x="104" y="-44" type="line"/>
      <point x="139" y="-101"/>
      <point x="199" y="-128"/>
      <point x="310" y="-128" type="curve" smooth="yes"/>
      <point x="459" y="-128"/>
      <point x="573" y="-50"/>
      <point x="573" y="59" type="curve" smooth="yes"/>
      <point x="573" y="76"/>
      <point x="569" y="92"/>
      <point x="562" y="102" type="curve"/>
      <point x="575" y="133" type="line"/>
      <point x="593" y="106"/>
      <point x="602" y="75"/>
      <point x="602" y="38" type="curve" smooth="yes"/>
      <point x="602" y="-124"/>
      <point x="480" y="-219"/>
      <point x="330" y="-219" type="curve" smooth="yes"/>
      <point x="193" y="-219"/>
      <point x="113" y="-153"/>
    </contour>
    <component base="uni0DB7"/>
  </outline>
</glyph>
